<svg width="62" height="60" viewBox="0 0 62 60" fill="none" xmlns="http://www.w3.org/2000/svg">
<path d="M42.5963 21.9753C42.4857 22.1424 42.4253 22.4355 42.5412 22.7136L44.4664 27.2333H52.6246L54.5512 22.7066C54.6658 22.4316 54.6076 22.1385 54.4974 21.9727C54.4842 21.9538 54.4198 21.8604 54.3634 21.8604H42.7277C42.6894 21.8604 42.6325 21.9203 42.5959 21.9754L42.5963 21.9753Z" fill="#99CD41"/>
<path d="M59.7888 41.6923C59.4869 38.8824 58.1545 36.2343 55.7333 34.209C55.2018 34.3139 41.8895 34.3156 41.3591 34.2094C36.7403 37.9947 37.6188 40.3555 35.1245 58.8608C35.0786 59.2606 35.2598 59.529 35.3717 59.655C35.4863 59.7837 35.7385 59.9997 36.1426 59.9997H60.9497C61.3534 59.9997 61.606 59.7842 61.7206 59.655C61.8326 59.5303 62.0137 59.2619 61.9692 58.874L59.7888 41.6923ZM48.5479 59.2632C43.1635 59.2632 38.7841 54.8829 38.7841 49.4993C38.7841 44.1158 43.1635 39.7355 48.5479 39.7355C53.9324 39.7355 58.3118 44.1158 58.3118 49.4993C58.3118 54.8829 53.9319 59.2632 48.5479 59.2632Z" fill="#99CD41"/>
<path d="M11.2402 23.4513C10.9639 23.4513 10.6945 23.5165 10.4367 23.6448L1.02637 28.3333C0.408414 28.6409 0.0253906 29.2598 0.0253906 29.9491V43.2751C0.0253906 44.2707 0.834201 45.08 1.82987 45.08H11.2411C12.2368 45.08 13.0456 44.2703 13.0456 43.2751L13.046 25.2596C13.046 24.1423 12.1081 23.4512 11.2402 23.4512L11.2402 23.4513Z" fill="#99CD41"/>
<path d="M55.0642 29.9268H42.0271C41.5841 29.9268 41.2051 30.2736 41.2051 30.7488C41.2051 31.2967 41.6996 31.584 42.0271 31.584H55.0642C55.4821 31.584 55.8849 31.2508 55.8849 30.7488C55.8845 30.2957 55.5165 29.9268 55.0642 29.9268Z" fill="#99CD41"/>
<path d="M26.1404 15.8241C26.102 15.8427 26.0641 15.8598 26.0245 15.8748L16.7432 20.5081C16.1187 20.8127 15.7383 21.4275 15.7383 22.1178V43.2746C15.7383 44.2695 16.5471 45.0791 17.5428 45.0791H26.9567C27.9524 45.0791 28.7612 44.2694 28.7612 43.2746V43.2733L28.7616 17.444C28.7616 16.0807 27.3269 15.2396 26.1404 15.8241Z" fill="#99CD41"/>
<path d="M48.5488 42.4297C44.6507 42.4297 41.4785 45.6014 41.4785 49.5C41.4785 53.3991 44.6507 56.5703 48.5488 56.5703C52.447 56.5703 55.6192 53.3986 55.6192 49.5C55.6192 45.601 52.447 42.4297 48.5488 42.4297Z" fill="#99CD41"/>
<path d="M56.7413 20.4816C57.3698 21.4292 57.4818 22.6837 57.0317 23.7557L55.538 27.2654C55.5451 27.2663 55.787 27.3179 55.944 27.3589C58.2086 27.9499 59.2669 30.5148 58.0804 32.5396C58.0641 32.567 58.0588 32.5987 58.0421 32.6256C58.061 32.6419 58.087 32.6644 58.0932 32.6701C58.3444 32.9028 58.5864 33.1461 58.8205 33.3982V1.79392C58.8205 0.323096 57.2897 -0.35302 56.2204 0.18205L46.8157 4.8581C46.2079 5.16532 45.8107 5.79825 45.8107 6.46647C45.8085 8.8964 45.7984 19.8601 45.7988 19.1651V19.1664H54.3633C55.318 19.1668 56.1851 19.6464 56.7413 20.4812L56.7413 20.4816Z" fill="#99CD41"/>
<path d="M39.049 32.6293C38.7079 32.081 38.5113 31.4295 38.5113 30.749C38.5113 28.9763 39.8349 27.5036 41.5521 27.2657L40.0605 23.7615C39.6096 22.6852 39.7225 21.4317 40.3537 20.4835C40.9099 19.6469 41.7756 19.1669 42.7276 19.1669H43.1049C43.1054 18.8077 43.1155 7.73099 43.1155 7.86752C42.6999 7.75424 42.2595 7.79655 41.862 7.99446L32.4455 12.6825C32.4375 12.6869 32.4283 12.6917 32.419 12.6957L32.4177 12.6961C31.8231 13.0086 31.4551 13.6235 31.4551 14.3054V43.2739C31.4551 44.2687 32.2639 45.0784 33.2596 45.0784H34.1499C34.7004 40.8801 34.6585 40.9113 34.852 40.0012C35.4198 37.3288 36.8739 34.6308 39.049 32.6298L39.049 32.6293Z" fill="#99CD41"/>
</svg>
