<svg width="48" height="50" viewBox="0 0 48 50" fill="none" xmlns="http://www.w3.org/2000/svg">
<path d="M40.6501 47.5149H21.7636V48.509C21.7636 49.3539 21.1175 50 20.2725 50H12.3203C12.2209 50 12.0718 50 11.9724 49.9503L2.03216 47.4652C1.38604 47.3161 0.889084 46.7197 0.889084 46.0238V41.0537C0.889084 40.2088 1.5352 39.5627 2.38012 39.5627C3.22505 39.5627 3.87116 40.2088 3.87116 41.0537V44.8808L10.8293 46.6203V3.42951L3.87116 5.3678V9.24451C3.87116 10.0894 3.22505 10.7355 2.38012 10.7355C1.5352 10.7355 0.889084 10.0894 0.889084 9.24451V4.27437C0.889084 3.62825 1.3364 3.03178 1.98251 2.83298L11.9228 0.0497013H11.9725C12.0719 0 12.221 0 12.3204 0H20.2726C21.1175 0 21.7636 0.646117 21.7636 1.49104V2.78327H40.6502C44.2287 2.78327 47.1113 5.66595 47.1113 9.24445V41.0533C47.1113 44.6318 44.2286 47.5149 40.6501 47.5149ZM18.7815 2.98253H13.8114V47.0174H18.7815V2.98253Z" fill="#99CD41"/>
</svg>
