<svg width="52" height="50" viewBox="0 0 52 50" fill="none" xmlns="http://www.w3.org/2000/svg">
<path d="M14.7438 49.9999C7.15006 49.9999 0.994141 43.8438 0.994141 36.2502C0.994141 28.6566 7.15027 22.5005 14.7438 22.5005C22.3381 22.5005 28.4946 28.6566 28.4946 36.2502C28.4946 43.8438 22.3385 49.9999 14.7438 49.9999ZM12.2549 41.2501C13.6357 41.2501 14.7548 40.1306 14.7548 38.7498C14.7548 37.3691 13.6357 36.25 12.2549 36.25C10.8741 36.25 9.75461 37.3691 9.75461 38.7498C9.75461 40.1306 10.8741 41.2501 12.2549 41.2501Z" fill="#99CD41"/>
<path d="M29.7556 30.0006C29.7556 30.3321 29.6237 30.6498 29.3898 30.8841C28.3037 31.9702 28.3037 31.9702 27.3407 32.9328C26.671 33.6025 25.5289 33.3129 25.2589 32.4051C24.4005 29.5177 21.5042 26.6147 18.6482 25.684C17.7614 25.3948 17.4922 24.271 18.1518 23.6114C24.367 17.3966 32.1062 9.64846 41.3709 0.366634C41.6052 0.13184 41.9238 0 42.2556 0H49.7557C50.4458 0 51.0054 0.559577 51.0054 1.24972V8.74975C51.0054 9.08123 50.874 9.39931 50.6396 9.63369L49.3894 10.8838C49.1551 11.1182 48.837 11.25 48.5055 11.25H44.7555V15.0001C44.7555 15.3315 44.6237 15.6492 44.3893 15.884L43.1396 17.1337C42.9048 17.3681 42.5871 17.4999 42.2556 17.4999H37.2555V22.5001C37.2555 22.8316 37.1236 23.1492 36.8893 23.384L35.6395 24.6337C35.4047 24.8681 35.0871 25 34.7556 25H29.7554L29.7556 30.0006Z" fill="#99CD41"/>
</svg>
