<svg width="82" height="70" viewBox="0 0 82 70" fill="none" xmlns="http://www.w3.org/2000/svg">
<g filter="url(#filter0_d_177_2500)">
<path d="M10.8794 39.3894L25.1354 25.1352C25.1568 25.1138 25.1851 25.1061 25.2082 25.0872C25.2314 25.0683 25.2451 25.0409 25.27 25.0238C25.3008 25.0023 25.3334 24.9989 25.3643 24.9835C25.4234 24.9509 25.4817 24.926 25.5426 24.9063C25.6017 24.8892 25.66 24.8772 25.7191 24.872C25.7809 24.866 25.84 24.8643 25.9017 24.8703C25.9635 24.8763 26.0226 24.8875 26.08 24.9046C26.1375 24.9218 26.1915 24.9432 26.2455 24.9698C26.3046 25.0006 26.3569 25.0349 26.4084 25.0795C26.4349 25.1009 26.4675 25.1103 26.4907 25.1352C26.5121 25.1566 26.5198 25.1832 26.537 25.2064C26.5558 25.2312 26.585 25.2449 26.6021 25.2698L40.2896 45.1551L55.4482 34.2176C55.4576 34.2099 55.4713 34.2099 55.4825 34.2021C55.5399 34.1619 55.605 34.1404 55.6745 34.1156C55.7242 34.0967 55.7739 34.0693 55.8262 34.0598C55.8879 34.0487 55.9488 34.0538 56.0148 34.0538C56.074 34.0538 56.1357 34.0478 56.1931 34.0598C56.2471 34.0693 56.2986 34.0967 56.3509 34.1173C56.416 34.1421 56.4794 34.1636 56.5412 34.2039C56.5506 34.2099 56.5643 34.2099 56.5737 34.2176L71.1211 44.6407V10L10.8789 10.0009L10.8794 39.3894ZM58.9244 15.8486C62.277 15.8486 65.0057 18.5773 65.0057 21.9316C65.0057 25.286 62.277 28.0147 58.9244 28.0147C55.5674 28.0147 52.8372 25.286 52.8372 21.9316C52.8381 18.579 55.5683 15.8486 58.9244 15.8486Z" fill="#99CD41"/>
<path d="M25.6767 27.3083L10.8789 42.1035V59.9984H48.1772L25.6767 27.3083Z" fill="#99CD41"/>
<path d="M63.0882 21.934C63.0882 24.2332 61.2237 26.0968 58.9245 26.0968C56.6253 26.0968 54.7617 24.2331 54.7617 21.934C54.7617 19.6341 56.6254 17.7703 58.9245 17.7703C61.2237 17.7703 63.0882 19.6339 63.0882 21.934Z" fill="#99CD41"/>
<path d="M71.1194 47.0001L56.0131 36.1799L41.3809 46.7394L50.5071 60.0001H71.1194V47.0001Z" fill="#99CD41"/>
</g>
<defs>
<filter id="filter0_d_177_2500" x="0.878906" y="0" width="80.2422" height="70" filterUnits="userSpaceOnUse" color-interpolation-filters="sRGB">
<feFlood flood-opacity="0" result="BackgroundImageFix"/>
<feColorMatrix in="SourceAlpha" type="matrix" values="0 0 0 0 0 0 0 0 0 0 0 0 0 0 0 0 0 0 127 0" result="hardAlpha"/>
<feOffset/>
<feGaussianBlur stdDeviation="5"/>
<feComposite in2="hardAlpha" operator="out"/>
<feColorMatrix type="matrix" values="0 0 0 0 0.607843 0 0 0 0 0.827451 0 0 0 0 0.235294 0 0 0 0.4 0"/>
<feBlend mode="normal" in2="BackgroundImageFix" result="effect1_dropShadow_177_2500"/>
<feBlend mode="normal" in="SourceGraphic" in2="effect1_dropShadow_177_2500" result="shape"/>
</filter>
</defs>
</svg>
