<!-- icon666.com - MILLIONS vector ICONS FREE --><svg clip-rule="evenodd" fill-rule="evenodd" stroke-linejoin="round" stroke-miterlimit="2" viewBox="0 0 100 101" xmlns="http://www.w3.org/2000/svg"><path d="m71.734 58.954 24.708 24.707c3.411 3.411 3.411 8.942 0 12.353-.25.249-.502.501-.751.751-3.411 3.411-8.942 3.411-12.353 0l-24.624-24.625c5.295-3.325 9.762-7.848 13.02-13.186zm.85-11.953c-3.999 15.728-18.266 27.378-35.233 27.378-20.063 0-36.351-16.288-36.351-36.351s16.288-36.351 36.351-36.351c19.035 0 34.673 14.663 36.224 33.301l-15.674-5.225c-1.301-3.877-4.964-6.673-9.275-6.673-5.397 0-9.78 4.383-9.78 9.78 0 1.317.261 2.574.734 3.721l-5.306 9.306-.177.023c0-.001-8.529-8.53-8.529-8.53.066-.459.1-.928.1-1.405 0-5.397-4.381-9.78-9.78-9.78-5.397 0-9.78 4.383-9.78 9.78 0 5.399 4.383 9.78 9.78 9.78.469 0 .931-.033 1.383-.097-.001 0 8.549 8.549 8.549 8.549-.064.451-.097.913-.097 1.382 0 5.397 4.383 9.78 9.78 9.78s9.78-4.383 9.78-9.78c0-1.392-.292-2.717-.817-3.917l5.181-9.087c1.69-.173 3.252-.779 4.576-1.704zm-18.08-14.269 22.966 7.655c1.055-1.378 2.705-2.276 4.565-2.308l6.279-18.835c-1.38-1.077-2.268-2.755-2.268-4.639 0-3.245 2.635-5.88 5.88-5.88s5.88 2.635 5.88 5.88c0 3.21-2.578 5.822-5.774 5.879l-6.278 18.836c1.379 1.076 2.266 2.754 2.266 4.638 0 3.245-2.634 5.88-5.88 5.88-3.192 0-5.793-2.549-5.877-5.721l-22.985-7.662c-1.076 1.39-2.76 2.285-4.652 2.285-.413 0-.816-.042-1.205-.124l-7.479 13.118c.897 1.033 1.441 2.381 1.441 3.855 0 3.245-2.635 5.88-5.88 5.88s-5.88-2.635-5.88-5.88c0-.904.204-1.76.569-2.525l-11.778-11.778c-.765.365-1.622.569-2.526.569-3.245 0-5.88-2.634-5.88-5.88 0-3.245 2.635-5.88 5.88-5.88 3.246 0 5.88 2.635 5.88 5.88 0 .911-.207 1.774-.577 2.544l11.768 11.768c.769-.371 1.633-.578 2.544-.578.351 0 .696.031 1.03.09l7.538-13.222c-.828-1.013-1.325-2.307-1.325-3.717 0-3.245 2.635-5.88 5.88-5.88 3.202 0 5.81 2.566 5.878 5.752zm-19.001 20.807c1.132 0 2.05.918 2.05 2.05 0 1.131-.918 2.05-2.05 2.05-1.131 0-2.05-.919-2.05-2.05 0-1.132.919-2.05 2.05-2.05zm46.637-11.631c1.132 0 2.05.918 2.05 2.05 0 1.131-.918 2.05-2.05 2.05-1.131 0-2.05-.919-2.05-2.05 0-1.132.919-2.05 2.05-2.05zm-66.252-7.983c1.132 0 2.05.918 2.05 2.05 0 1.131-.918 2.05-2.05 2.05-1.131 0-2.05-.919-2.05-2.05 0-1.132.919-2.05 2.05-2.05zm32.738-3.115c1.132 0 2.05.918 2.05 2.05 0 1.131-.918 2.05-2.05 2.05-1.131 0-2.05-.919-2.05-2.05 0-1.132.919-2.05 2.05-2.05zm43.3-18.255c1.132 0 2.05.918 2.05 2.05 0 1.131-.918 2.05-2.05 2.05-1.131 0-2.05-.919-2.05-2.05 0-1.132.919-2.05 2.05-2.05z" fill="#000000" style="fill: rgb(255, 255, 255);"></path></svg>