<svg width="20" height="20" viewBox="0 0 20 20" fill="none" xmlns="http://www.w3.org/2000/svg">
<path d="M12.5001 2.5C12.7211 2.5 12.9331 2.5878 13.0893 2.74408C13.2456 2.90036 13.3334 3.11232 13.3334 3.33333V5H17.5001C17.7211 5 17.9331 5.0878 18.0893 5.24408C18.2456 5.40036 18.3334 5.61232 18.3334 5.83333V16.6667C18.3334 16.8877 18.2456 17.0996 18.0893 17.2559C17.9331 17.4122 17.7211 17.5 17.5001 17.5H2.50008C2.27907 17.5 2.06711 17.4122 1.91083 17.2559C1.75455 17.0996 1.66675 16.8877 1.66675 16.6667V5.83333C1.66675 5.61232 1.75455 5.40036 1.91083 5.24408C2.06711 5.0878 2.27907 5 2.50008 5H6.66675V3.33333C6.66675 3.11232 6.75455 2.90036 6.91083 2.74408C7.06711 2.5878 7.27907 2.5 7.50008 2.5H12.5001ZM6.66675 6.66667H5.00008V15.8333H6.66675V6.66667ZM15.0001 6.66667H13.3334V15.8333H15.0001V6.66667ZM11.6667 4.16667H8.33341V5H11.6667V4.16667Z" fill="white"/>
</svg>
