<svg width="20" height="19" viewBox="0 0 20 19" fill="none" xmlns="http://www.w3.org/2000/svg">
<path d="M15 13.3333L19 9.49992M19 9.49992L15 5.66659M19 9.49992H5M11 13.3333V14.2916C11 15.0541 10.6839 15.7854 10.1213 16.3245C9.55871 16.8637 8.79565 17.1666 8 17.1666H4C3.20435 17.1666 2.44129 16.8637 1.87868 16.3245C1.31607 15.7854 1 15.0541 1 14.2916V4.70825C1 3.94575 1.31607 3.21449 1.87868 2.67532C2.44129 2.13615 3.20435 1.83325 4 1.83325H8C8.79565 1.83325 9.55871 2.13615 10.1213 2.67532C10.6839 3.21449 11 3.94575 11 4.70825V5.66659" stroke="white" stroke-width="2" stroke-linecap="round" stroke-linejoin="round"/>
</svg>
