<svg width="17" height="17" viewBox="0 0 17 17" fill="none" xmlns="http://www.w3.org/2000/svg">
<path d="M11.7297 0H14.5513C15.7199 0 16.6668 0.954877 16.6668 2.1333V4.97877C16.6668 6.1572 15.7199 7.11207 14.5513 7.11207H11.7297C10.5611 7.11207 9.61426 6.1572 9.61426 4.97877V2.1333C9.61426 0.954877 10.5611 0 11.7297 0" fill="white"/>
<path d="M2.11544 0H4.93708C6.10563 0 7.05251 0.954877 7.05251 2.1333V4.97877C7.05251 6.1572 6.10563 7.11207 4.93708 7.11207H2.11544C0.94688 7.11207 0 6.1572 0 4.97877V2.1333C0 0.954877 0.94688 0 2.11544 0" fill="white"/>
<path d="M2.11544 9.55469H4.93708C6.10563 9.55469 7.05251 10.5096 7.05251 11.688V14.5335C7.05251 15.7111 6.10563 16.6668 4.93708 16.6668H2.11544C0.94688 16.6668 0 15.7111 0 14.5335V11.688C0 10.5096 0.94688 9.55469 2.11544 9.55469" fill="white"/>
<path d="M11.7297 9.55469H14.5513C15.7199 9.55469 16.6668 10.5096 16.6668 11.688V14.5335C16.6668 15.7111 15.7199 16.6668 14.5513 16.6668H11.7297C10.5611 16.6668 9.61426 15.7111 9.61426 14.5335V11.688C9.61426 10.5096 10.5611 9.55469 11.7297 9.55469" fill="white"/>
</svg>
