<svg width="18" height="18" viewBox="0 0 18 18" fill="none" xmlns="http://www.w3.org/2000/svg">
<path fill-rule="evenodd" clip-rule="evenodd" d="M9.00008 16.5001C13.1422 16.5001 16.5001 13.1422 16.5001 9.00008C16.5001 4.858 13.1422 1.50008 9.00008 1.50008C4.858 1.50008 1.50008 4.858 1.50008 9.00008C1.50008 13.1422 4.858 16.5001 9.00008 16.5001ZM9.00008 17.3334C13.6026 17.3334 17.3334 13.6026 17.3334 9.00008C17.3334 4.39758 13.6026 0.666748 9.00008 0.666748C4.39758 0.666748 0.666748 4.39758 0.666748 9.00008C0.666748 13.6026 4.39758 17.3334 9.00008 17.3334Z" fill="white"/>
<path d="M4 13.846C4 13.4156 4.32167 13.0518 4.75 13.0043C7.96458 12.6485 10.05 12.6806 13.2575 13.0122C13.4177 13.0291 13.5695 13.0922 13.6944 13.1938C13.8193 13.2955 13.9119 13.4314 13.9608 13.5848C14.0098 13.7382 14.013 13.9026 13.9701 14.0578C13.9272 14.213 13.84 14.3524 13.7192 14.4589C9.93375 17.7585 7.77042 17.7131 4.26667 14.4622C4.09583 14.3039 4 14.0789 4 13.8464V13.846Z" fill="white"/>
<path fill-rule="evenodd" clip-rule="evenodd" d="M13.2147 13.4263C10.0327 13.0971 7.97725 13.0663 4.79558 13.4184C4.69085 13.4306 4.5943 13.481 4.52442 13.5599C4.45453 13.6389 4.41623 13.7408 4.41683 13.8463C4.41683 13.9654 4.46642 14.0784 4.55017 14.1567C6.28683 15.7675 7.60267 16.4954 8.88892 16.5C10.1797 16.5046 11.5664 15.7825 13.4456 14.145C13.5053 14.0919 13.5483 14.0226 13.5693 13.9455C13.5903 13.8683 13.5885 13.7868 13.5641 13.7107C13.5396 13.6346 13.4936 13.5673 13.4316 13.5168C13.3695 13.4664 13.2942 13.4351 13.2147 13.4267V13.4263ZM4.70433 12.59C7.95267 12.2304 10.0685 12.2629 13.301 12.5975C13.542 12.6227 13.7704 12.7175 13.9582 12.8705C14.1461 13.0235 14.2853 13.2279 14.3588 13.4587C14.4323 13.6896 14.4369 13.9369 14.372 14.1703C14.3071 14.4037 14.1756 14.6131 13.9935 14.7729C12.0872 16.4346 10.4997 17.3396 8.88642 17.3334C7.2685 17.3275 5.751 16.4071 3.98392 14.7675C3.8574 14.6497 3.75654 14.507 3.68764 14.3484C3.61875 14.1899 3.58329 14.0188 3.5835 13.8459C3.58289 13.5352 3.69692 13.2353 3.90373 13.0034C4.11055 12.7716 4.39562 12.6243 4.70433 12.5896V12.59Z" fill="white"/>
<path d="M12.3334 7.33333C12.3334 8.21739 11.9822 9.06523 11.3571 9.69036C10.732 10.3155 9.88414 10.6667 9.00008 10.6667C8.11603 10.6667 7.26818 10.3155 6.64306 9.69036C6.01794 9.06523 5.66675 8.21739 5.66675 7.33333C5.66675 6.44928 6.01794 5.60143 6.64306 4.97631C7.26818 4.35119 8.11603 4 9.00008 4C9.88414 4 10.732 4.35119 11.3571 4.97631C11.9822 5.60143 12.3334 6.44928 12.3334 7.33333Z" fill="white"/>
<path fill-rule="evenodd" clip-rule="evenodd" d="M9.00008 9.83333C9.66312 9.83333 10.299 9.56994 10.7678 9.1011C11.2367 8.63226 11.5001 7.99637 11.5001 7.33333C11.5001 6.67029 11.2367 6.03441 10.7678 5.56557C10.299 5.09673 9.66312 4.83333 9.00008 4.83333C8.33704 4.83333 7.70115 5.09673 7.23231 5.56557C6.76347 6.03441 6.50008 6.67029 6.50008 7.33333C6.50008 7.99637 6.76347 8.63226 7.23231 9.1011C7.70115 9.56994 8.33704 9.83333 9.00008 9.83333ZM9.00008 10.6667C9.88414 10.6667 10.732 10.3155 11.3571 9.69036C11.9822 9.06523 12.3334 8.21739 12.3334 7.33333C12.3334 6.44928 11.9822 5.60143 11.3571 4.97631C10.732 4.35119 9.88414 4 9.00008 4C8.11603 4 7.26818 4.35119 6.64306 4.97631C6.01794 5.60143 5.66675 6.44928 5.66675 7.33333C5.66675 8.21739 6.01794 9.06523 6.64306 9.69036C7.26818 10.3155 8.11603 10.6667 9.00008 10.6667Z" fill="white"/>
</svg>
