<svg width="18" height="18" viewBox="0 0 18 18" fill="none" xmlns="http://www.w3.org/2000/svg">
<path d="M10.9688 6.46875V5.625H10.125C9.82663 5.625 9.54048 5.74353 9.3295 5.9545C9.11853 6.16548 9 6.45163 9 6.75V11.25C9 11.5484 9.11853 11.8345 9.3295 12.0455C9.54048 12.2565 9.82663 12.375 10.125 12.375H10.9688V11.5312C10.9688 11.2329 11.0873 10.9467 11.2983 10.7358C11.5092 10.5248 11.7954 10.4062 12.0938 10.4062H14.9062C15.2046 10.4062 15.4908 10.5248 15.7017 10.7358C15.9127 10.9467 16.0312 11.2329 16.0312 11.5312V14.3438C16.0312 14.6421 15.9127 14.9283 15.7017 15.1392C15.4908 15.3502 15.2046 15.4688 14.9062 15.4688H12.0938C11.7954 15.4688 11.5092 15.3502 11.2983 15.1392C11.0873 14.9283 10.9688 14.6421 10.9688 14.3438V13.5H10.125C9.52883 13.4981 8.95761 13.2605 8.53606 12.8389C8.1145 12.4174 7.87685 11.8462 7.875 11.25V9.5625H5.90625V10.125C5.90625 10.4234 5.78772 10.7095 5.57675 10.9205C5.36577 11.1315 5.07962 11.25 4.78125 11.25H2.53125C2.23288 11.25 1.94673 11.1315 1.73575 10.9205C1.52478 10.7095 1.40625 10.4234 1.40625 10.125V7.875C1.40625 7.57663 1.52478 7.29048 1.73575 7.0795C1.94673 6.86853 2.23288 6.75 2.53125 6.75H4.78125C5.07962 6.75 5.36577 6.86853 5.57675 7.0795C5.78772 7.29048 5.90625 7.57663 5.90625 7.875V8.4375H7.875V6.75C7.87685 6.15383 8.1145 5.58261 8.53606 5.16106C8.95761 4.7395 9.52883 4.50185 10.125 4.5H10.9688V3.65625C10.9688 3.35788 11.0873 3.07173 11.2983 2.86075C11.5092 2.64978 11.7954 2.53125 12.0938 2.53125H14.9062C15.2046 2.53125 15.4908 2.64978 15.7017 2.86075C15.9127 3.07173 16.0312 3.35788 16.0312 3.65625V6.46875C16.0312 6.76712 15.9127 7.05327 15.7017 7.26425C15.4908 7.47522 15.2046 7.59375 14.9062 7.59375H12.0938C11.7954 7.59375 11.5092 7.47522 11.2983 7.26425C11.0873 7.05327 10.9688 6.76712 10.9688 6.46875Z" fill="white"/>
</svg>
