<svg width="18" height="16" viewBox="0 0 18 16" fill="none" xmlns="http://www.w3.org/2000/svg">
<path fill-rule="evenodd" clip-rule="evenodd" d="M17.3305 4.97927H13.8016C12.1593 4.98216 10.829 6.27929 10.826 7.88047C10.8238 9.48527 12.1556 10.7882 13.8016 10.7903H17.3334V11.0453C17.3334 13.8446 15.6364 15.5 12.7645 15.5H5.23638C2.36379 15.5 0.666748 13.8446 0.666748 11.0453V4.94822C0.666748 2.14885 2.36379 0.5 5.23638 0.5H12.7616C15.6334 0.5 17.3305 2.14885 17.3305 4.94822V4.97927ZM4.61638 4.97277H9.31638H9.31934H9.32527C9.67712 4.97133 9.96156 4.69182 9.96008 4.34804C9.9586 4.00498 9.67119 3.72765 9.31934 3.72909H4.61638C4.26675 3.73054 3.98304 4.00715 3.98156 4.34876C3.98008 4.69182 4.26453 4.97133 4.61638 4.97277Z" fill="white"/>
<path d="M12.3647 8.24722C12.5389 9.03988 13.2339 9.59756 14.0273 9.58306H16.7356C17.0657 9.58306 17.3335 9.30965 17.3335 8.97171V6.86208C17.3328 6.52485 17.0657 6.25073 16.7356 6.25H13.9636C13.061 6.2529 12.3321 7.00204 12.3335 7.92523C12.3335 8.03329 12.3441 8.14134 12.3647 8.24722Z" fill="white"/>
<circle cx="14.0001" cy="7.91659" r="0.833333" fill="white"/>
</svg>
