<svg width="35" height="24" viewBox="0 0 35 24" fill="none" xmlns="http://www.w3.org/2000/svg">
<path d="M33.4722 3.93565C33.2835 3.23539 32.9146 2.59676 32.4024 2.08335C31.8901 1.56993 31.2523 1.19963 30.5525 1.0093C27.9576 0.296768 17.5761 0.285169 17.5761 0.285169C17.5761 0.285169 7.19637 0.273569 4.59977 0.954617C3.90037 1.15371 3.26389 1.52924 2.75144 2.04518C2.23898 2.56111 1.86776 3.20012 1.67342 3.90085C0.989053 6.4958 0.982424 11.8779 0.982424 11.8779C0.982424 11.8779 0.975796 17.2865 1.65519 19.8549C2.03631 21.275 3.15482 22.3969 4.57657 22.7796C7.19802 23.4922 17.5513 23.5038 17.5513 23.5038C17.5513 23.5038 27.9327 23.5154 30.5277 22.836C31.2277 22.646 31.8661 22.2765 32.3797 21.7642C32.8932 21.2518 33.2641 20.6143 33.4557 19.9146C34.1417 17.3213 34.1467 11.9409 34.1467 11.9409C34.1467 11.9409 34.1798 6.53059 33.4722 3.93565ZM14.2554 16.864L14.2637 6.92166L22.892 11.9011L14.2554 16.864Z" fill="white"/>
<path d="M33.4722 3.93565C33.2835 3.23539 32.9146 2.59676 32.4024 2.08335C31.8901 1.56993 31.2523 1.19963 30.5525 1.0093C27.9576 0.296768 17.5761 0.285169 17.5761 0.285169C17.5761 0.285169 7.19637 0.273569 4.59977 0.954617C3.90037 1.15371 3.26389 1.52924 2.75144 2.04518C2.23898 2.56111 1.86776 3.20012 1.67342 3.90085C0.989053 6.4958 0.982424 11.8779 0.982424 11.8779C0.982424 11.8779 0.975796 17.2865 1.65519 19.8549C2.03631 21.275 3.15482 22.3969 4.57657 22.7796C7.19802 23.4922 17.5513 23.5038 17.5513 23.5038C17.5513 23.5038 27.9327 23.5154 30.5277 22.836C31.2277 22.646 31.8661 22.2765 32.3797 21.7642C32.8932 21.2518 33.2641 20.6143 33.4557 19.9146C34.1417 17.3213 34.1467 11.9409 34.1467 11.9409C34.1467 11.9409 34.1798 6.53059 33.4722 3.93565ZM14.2554 16.864L14.2637 6.92166L22.892 11.9011L14.2554 16.864Z" fill="url(#paint0_linear_177_2796)" fill-opacity="0.15"/>
<defs>
<linearGradient id="paint0_linear_177_2796" x1="17.5647" y1="0.285156" x2="17.5647" y2="23.5038" gradientUnits="userSpaceOnUse">
<stop stop-color="#EAEAEA"/>
<stop offset="1" stop-color="#C5C5C5" stop-opacity="0"/>
</linearGradient>
</defs>
</svg>
