<svg width="31" height="20" viewBox="0 0 31 20" fill="none" xmlns="http://www.w3.org/2000/svg">
<path fill-rule="evenodd" clip-rule="evenodd" d="M25.7692 3.39996C25.7692 3.39996 23.6923 1.62498 19.2051 0.374984L19.5641 0C19.5641 0 19.5898 0 19.6154 0C19.9488 0 23.3847 0.05 26.9743 2.50001C26.9743 2.50001 30.7692 8.72495 30.7692 16.375C30.7692 16.375 28.5384 19.85 22.7179 20C22.7179 20 21.7693 18.975 20.9745 18.075C24.436 17.2 25.7436 15.25 25.7436 15.25C24.6668 15.875 23.641 16.35 22.7179 16.65C21.3846 17.15 20.1282 17.475 18.8974 17.675C17.7436 17.875 16.6409 17.95 15.5896 17.95C14.3332 17.95 13.1537 17.825 12.0511 17.65C10.564 17.375 9.25625 17 8.17933 16.625C7.58959 16.4 6.92292 16.15 6.25625 15.825L6.02559 15.7L5.92323 15.625C5.43605 15.375 5.17954 15.225 5.17954 15.225C5.17954 15.225 6.43577 17.125 9.79474 18.025C8.99987 18.925 8.02564 20 8.02564 20C2.20514 19.85 0 16.375 0 16.375C0 8.72495 3.79482 2.50001 3.79482 2.50001C7.38456 0.05 10.8205 0 11.1538 0C11.1794 0 11.1795 0 11.1795 0L11.4615 0.274961C6.71787 1.52496 4.51284 3.39996 4.51284 3.39996C4.51284 3.39996 5.10256 3.12498 6.07692 2.72498C8.89743 1.59998 11.1281 1.27504 12.0511 1.20004C12.2306 1.20004 12.359 1.17501 12.5128 1.17501C13.4103 1.05001 14.3846 0.999984 15.3846 0.999984C16.1795 0.999984 16.9999 1.02503 17.846 1.12504C20.3332 1.37504 23.0258 2.04996 25.7692 3.39996ZM18.0514 12.2C18.0514 13.625 19.3077 14.8 20.8461 14.8C22.4102 14.8 23.6666 13.625 23.6666 12.2C23.6666 10.775 22.4102 9.59998 20.8461 9.59998C19.3077 9.59998 18.0514 10.775 18.0514 12.2ZM7.923 12.2C7.923 13.625 9.17961 14.8 10.7181 14.8C12.2822 14.8 13.5385 13.625 13.5385 12.2C13.5385 10.775 12.2822 9.59998 10.7181 9.59998C9.17961 9.59998 7.923 10.775 7.923 12.2Z" fill="#99CD41"/>
</svg>
