<svg width="21" height="20" viewBox="0 0 21 20" fill="none" xmlns="http://www.w3.org/2000/svg">
<path d="M3.04943 17.2077C3.81277 16.5608 4.66052 16.0305 5.56046 15.6207C5.12252 14.0979 4.86539 12.3221 4.83327 10.4017H0C0.104477 13.0654 1.25351 15.468 3.04943 17.2077Z" fill="white"/>
<path d="M4.83327 9.5982C4.86539 7.68175 5.12252 5.9019 5.56046 4.37924C4.66052 3.96943 3.81679 3.43913 3.04943 2.79224C1.25351 4.53192 0.104477 6.93448 0 9.5982H4.83327Z" fill="white"/>
<path d="M7.74195 19.779C6.96253 19.0036 6.29959 17.8385 5.80543 16.4001C5.03804 16.7536 4.31889 17.2117 3.65601 17.7581C4.82915 18.7183 6.21926 19.4214 7.74195 19.779Z" fill="white"/>
<path d="M5.8056 3.59977C6.29975 2.16146 6.96269 1.00037 7.74211 0.224976C6.21942 0.578477 4.82931 1.28159 3.66016 2.24584C4.31905 2.7882 5.03821 3.24627 5.8056 3.59977Z" fill="white"/>
<path d="M6.56079 3.91722C7.53707 4.27882 8.57365 4.48366 9.63029 4.52791V0C8.39685 0.269154 7.29201 1.75975 6.56079 3.91722Z" fill="white"/>
<path d="M5.63672 9.59824H9.63027V5.33952C8.49327 5.29527 7.37634 5.07435 6.3197 4.6886C5.91793 6.13501 5.66884 7.81437 5.63672 9.59824Z" fill="white"/>
<path d="M9.63027 14.6604V10.4017H5.63672C5.66884 12.1856 5.91793 13.865 6.3197 15.3113C7.37634 14.9256 8.49327 14.7046 9.63027 14.6604Z" fill="white"/>
<path d="M6.55688 16.0827C7.29212 18.2402 8.39696 19.7308 9.6304 20V15.472C8.57376 15.5163 7.53719 15.7212 6.55688 16.0827Z" fill="white"/>
<path d="M10.4341 20C11.6675 19.7308 12.7723 18.2402 13.5076 16.0787C12.5273 15.7171 11.4947 15.5163 10.4341 15.472V20Z" fill="white"/>
<path d="M10.4341 0V4.52791C11.4947 4.48366 12.5273 4.28278 13.5076 3.92124C12.7723 1.75975 11.6675 0.269154 10.4341 0Z" fill="white"/>
<path d="M10.4341 14.6604C11.5751 14.7046 12.692 14.9256 13.7446 15.3073C14.1504 13.865 14.3995 12.1856 14.4316 10.4017H10.4341V14.6604Z" fill="white"/>
<path d="M10.4341 9.59825H14.4316C14.3995 7.81438 14.1504 6.13502 13.7446 4.69263C12.692 5.07436 11.5751 5.2993 10.4341 5.33952V9.59825Z" fill="white"/>
<path d="M12.3262 19.779C13.8489 19.4214 15.239 18.7183 16.4081 17.754C15.7492 17.2117 15.0261 16.7536 14.2627 16.3961C13.7645 17.8384 13.1016 19.0036 12.3262 19.779Z" fill="white"/>
<path d="M16.4081 2.24584C15.239 1.28159 13.8489 0.578477 12.3262 0.224976C13.1016 1.00037 13.7645 2.16551 14.2627 3.60379C15.0261 3.24627 15.7492 2.79222 16.4081 2.24584Z" fill="white"/>
<path d="M15.235 10.4017C15.2029 12.3181 14.9417 14.0979 14.5078 15.6207C15.4078 16.0264 16.2515 16.5608 17.0188 17.2077C18.8148 15.468 19.9598 13.0654 20.0683 10.4017H15.235Z" fill="white"/>
<path d="M17.0188 2.79626C16.2515 3.43914 15.4078 3.97346 14.5078 4.37925C14.9417 5.90593 15.2029 7.68175 15.235 9.5982H20.0683C19.9598 6.93449 18.8148 4.53595 17.0188 2.79626Z" fill="white"/>
</svg>
