<svg width="18" height="20" viewBox="0 0 18 20" fill="none" xmlns="http://www.w3.org/2000/svg">
<path d="M17.5625 5.00777C16.4194 5.00777 15.3645 4.6291 14.5176 3.99022C13.5462 3.25777 12.8482 2.18355 12.6018 0.945332C12.5404 0.639332 12.5078 0.323555 12.5045 0H9.2389V8.9231L9.2349 13.8107C9.2349 15.1173 8.38402 16.2253 7.20445 16.6149C6.86222 16.728 6.49245 16.7815 6.10735 16.7604C5.61602 16.7335 5.15558 16.5851 4.75535 16.3458C3.90358 15.8365 3.32623 14.9122 3.31045 13.8551C3.2858 12.2029 4.62158 10.856 6.27245 10.856C6.59845 10.856 6.91135 10.9091 7.20445 11.0058V8.5671V7.69045C6.89535 7.64467 6.5809 7.6209 6.26267 7.6209C4.45557 7.6209 2.76557 8.372 1.55735 9.72533C0.644235 10.748 0.0964577 12.0527 0.0120133 13.4209C-0.0986533 15.2182 0.558902 16.9267 1.83446 18.1873C2.02179 18.3725 2.21868 18.5442 2.42446 18.7027C3.51803 19.5438 4.8549 20 6.2629 20C6.5809 20 6.89558 19.9765 7.20468 19.9307C8.52003 19.7358 9.73357 19.1338 10.6913 18.1869C11.8682 17.0238 12.5184 15.4795 12.5253 13.836L12.5084 6.53732C13.0698 6.97045 13.6838 7.3289 14.3424 7.6069C15.3671 8.0391 16.4536 8.25823 17.5716 8.258V5.8869V5.0071L17.5625 5.00777Z" fill="#99CD41"/>
</svg>
