<svg width="22" height="22" viewBox="0 0 22 22" fill="none" xmlns="http://www.w3.org/2000/svg">
<path d="M13.7497 2.75C13.9928 2.75 14.2259 2.84658 14.3979 3.01849C14.5698 3.19039 14.6663 3.42355 14.6663 3.66667V5.5H19.2497C19.4928 5.5 19.7259 5.59658 19.8979 5.76849C20.0698 5.94039 20.1663 6.17355 20.1663 6.41667V18.3333C20.1663 18.5764 20.0698 18.8096 19.8979 18.9815C19.7259 19.1534 19.4928 19.25 19.2497 19.25H2.74967C2.50656 19.25 2.2734 19.1534 2.10149 18.9815C1.92958 18.8096 1.83301 18.5764 1.83301 18.3333V6.41667C1.83301 6.17355 1.92958 5.94039 2.10149 5.76849C2.2734 5.59658 2.50656 5.5 2.74967 5.5H7.33301V3.66667C7.33301 3.42355 7.42958 3.19039 7.60149 3.01849C7.7734 2.84658 8.00656 2.75 8.24967 2.75H13.7497ZM7.33301 7.33333H5.49967V17.4167H7.33301V7.33333ZM16.4997 7.33333H14.6663V17.4167H16.4997V7.33333ZM12.833 4.58333H9.16634V5.5H12.833V4.58333Z" fill="#93DB37"/>
</svg>
