<svg width="35" height="28" viewBox="0 0 35 28" fill="none" xmlns="http://www.w3.org/2000/svg">
<path d="M29.5463 2.83213C27.3424 1.80476 24.9562 1.05908 22.4707 0.62825C22.4489 0.627553 22.4272 0.631643 22.4072 0.640232C22.3871 0.648821 22.3692 0.6617 22.3547 0.677962C22.0564 1.22479 21.7084 1.93732 21.4764 2.48415C18.8401 2.08645 16.159 2.08645 13.5226 2.48415C13.2906 1.92075 12.9426 1.22479 12.6278 0.677962C12.6112 0.644821 12.5615 0.62825 12.5118 0.62825C10.0262 1.05908 7.65663 1.80476 5.43618 2.83213C5.41961 2.83213 5.40304 2.8487 5.38647 2.86527C0.879288 9.60947 -0.363501 16.1714 0.249608 22.667C0.249608 22.7002 0.266179 22.7333 0.29932 22.7499C3.28201 24.9372 6.14871 26.2628 8.98227 27.1411C9.03198 27.1576 9.08169 27.1411 9.09826 27.1079C9.76108 26.1965 10.3576 25.2355 10.8713 24.2247C10.9044 24.1584 10.8713 24.0921 10.805 24.0755C9.8605 23.711 8.9657 23.2801 8.08746 22.783C8.02118 22.7499 8.02118 22.6505 8.07089 22.6007C8.25317 22.4682 8.43544 22.319 8.61772 22.1865C8.65086 22.1533 8.70057 22.1533 8.73371 22.1699C14.434 24.7715 20.5816 24.7715 26.2156 22.1699C26.2487 22.1533 26.2985 22.1533 26.3316 22.1865C26.5139 22.3356 26.6961 22.4682 26.8784 22.6173C26.9447 22.667 26.9447 22.7665 26.8618 22.7996C26.0002 23.3133 25.0888 23.7275 24.1443 24.0921C24.078 24.1087 24.0614 24.1915 24.078 24.2412C24.6083 25.252 25.2048 26.2131 25.851 27.1245C25.9008 27.1411 25.9505 27.1576 26.0002 27.1411C28.8503 26.2628 31.717 24.9372 34.6997 22.7499C34.7328 22.7333 34.7494 22.7002 34.7494 22.667C35.4785 15.1606 33.5398 8.64838 29.6126 2.86527C29.596 2.8487 29.5794 2.83213 29.5463 2.83213ZM11.733 18.7067C10.0262 18.7067 8.60115 17.1325 8.60115 15.1937C8.60115 13.255 9.99307 11.6808 11.733 11.6808C13.4894 11.6808 14.8814 13.2716 14.8648 15.1937C14.8648 17.1325 13.4729 18.7067 11.733 18.7067ZM23.2826 18.7067C21.5759 18.7067 20.1508 17.1325 20.1508 15.1937C20.1508 13.255 21.5427 11.6808 23.2826 11.6808C25.0391 11.6808 26.431 13.2716 26.4144 15.1937C26.4144 17.1325 25.0391 18.7067 23.2826 18.7067Z" fill="white"/>
</svg>
