<svg width="39" height="32" viewBox="0 0 39 32" fill="none" xmlns="http://www.w3.org/2000/svg">
<path d="M38.1016 4.18088C36.7179 4.79399 35.2316 5.20825 33.669 5.3955C35.2813 4.43075 36.4875 2.91235 37.0626 1.12362C35.5478 2.02338 33.8899 2.65671 32.161 2.99609C30.9984 1.75473 29.4585 0.931942 27.7803 0.655459C26.1022 0.378976 24.3797 0.66427 22.8803 1.46705C21.3809 2.26982 20.1885 3.54517 19.4882 5.09508C18.7879 6.64499 18.6188 8.38275 19.0074 10.0386C15.938 9.88444 12.9353 9.08666 10.1942 7.69698C7.45311 6.30731 5.03485 4.35679 3.09636 1.97203C2.43354 3.11539 2.05242 4.44104 2.05242 5.85284C2.05168 7.12379 2.36466 8.37528 2.9636 9.49626C3.56253 10.6172 4.4289 11.573 5.48583 12.2789C4.26007 12.2399 3.06135 11.9087 1.98945 11.3128V11.4122C1.98933 13.1948 2.60593 14.9225 3.73463 16.3022C4.86333 17.6819 6.43461 18.6286 8.18185 18.9817C7.04475 19.2894 5.8526 19.3347 4.69542 19.1142C5.18838 20.648 6.14864 21.9893 7.44176 22.9502C8.73487 23.9111 10.2961 24.4436 11.9069 24.4731C9.17249 26.6197 5.79551 27.7841 2.3192 27.7789C1.70341 27.7791 1.08814 27.7432 0.476562 27.6712C4.00521 29.94 8.11282 31.1441 12.3079 31.1394C26.5088 31.1394 34.2721 19.3777 34.2721 9.17689C34.2721 8.84548 34.2638 8.51075 34.2489 8.17934C35.759 7.0873 37.0624 5.73502 38.0983 4.18585L38.1016 4.18088Z" fill="white"/>
<path d="M38.1016 4.18088C36.7179 4.79399 35.2316 5.20825 33.669 5.3955C35.2813 4.43075 36.4875 2.91235 37.0626 1.12362C35.5478 2.02338 33.8899 2.65671 32.161 2.99609C30.9984 1.75473 29.4585 0.931942 27.7803 0.655459C26.1022 0.378976 24.3797 0.66427 22.8803 1.46705C21.3809 2.26982 20.1885 3.54517 19.4882 5.09508C18.7879 6.64499 18.6188 8.38275 19.0074 10.0386C15.938 9.88444 12.9353 9.08666 10.1942 7.69698C7.45311 6.30731 5.03485 4.35679 3.09636 1.97203C2.43354 3.11539 2.05242 4.44104 2.05242 5.85284C2.05168 7.12379 2.36466 8.37528 2.9636 9.49626C3.56253 10.6172 4.4289 11.573 5.48583 12.2789C4.26007 12.2399 3.06135 11.9087 1.98945 11.3128V11.4122C1.98933 13.1948 2.60593 14.9225 3.73463 16.3022C4.86333 17.6819 6.43461 18.6286 8.18185 18.9817C7.04475 19.2894 5.8526 19.3347 4.69542 19.1142C5.18838 20.648 6.14864 21.9893 7.44176 22.9502C8.73487 23.9111 10.2961 24.4436 11.9069 24.4731C9.17249 26.6197 5.79551 27.7841 2.3192 27.7789C1.70341 27.7791 1.08814 27.7432 0.476562 27.6712C4.00521 29.94 8.11282 31.1441 12.3079 31.1394C26.5088 31.1394 34.2721 19.3777 34.2721 9.17689C34.2721 8.84548 34.2638 8.51075 34.2489 8.17934C35.759 7.0873 37.0624 5.73502 38.0983 4.18585L38.1016 4.18088Z" fill="url(#paint0_linear_177_2793)" fill-opacity="0.15"/>
<defs>
<linearGradient id="paint0_linear_177_2793" x1="19.2891" y1="0.552734" x2="19.2891" y2="31.1395" gradientUnits="userSpaceOnUse">
<stop stop-color="#EAEAEA"/>
<stop offset="1" stop-color="#C5C5C5" stop-opacity="0"/>
</linearGradient>
</defs>
</svg>
