<svg width="22" height="22" viewBox="0 0 22 22" fill="none" xmlns="http://www.w3.org/2000/svg">
<path fill-rule="evenodd" clip-rule="evenodd" d="M10.9997 19.2499C15.556 19.2499 19.2497 15.5562 19.2497 10.9999C19.2497 6.44363 15.556 2.74992 10.9997 2.74992C6.44338 2.74992 2.74967 6.44363 2.74967 10.9999C2.74967 15.5562 6.44338 19.2499 10.9997 19.2499ZM10.9997 20.1666C16.0624 20.1666 20.1663 16.0627 20.1663 10.9999C20.1663 5.93717 16.0624 1.83325 10.9997 1.83325C5.93692 1.83325 1.83301 5.93717 1.83301 10.9999C1.83301 16.0627 5.93692 20.1666 10.9997 20.1666Z" fill="#93DB37"/>
<path d="M5.5 16.3303C5.5 15.8569 5.85383 15.4567 6.325 15.4045C9.86104 15.0131 12.155 15.0484 15.6832 15.4132C15.8594 15.4317 16.0264 15.5011 16.1638 15.6129C16.3012 15.7248 16.403 15.8742 16.4569 16.043C16.5108 16.2118 16.5143 16.3926 16.4671 16.5633C16.4199 16.7341 16.324 16.8874 16.1911 17.0045C12.0271 20.6341 9.64746 20.5841 5.79333 17.0082C5.60542 16.834 5.5 16.5865 5.5 16.3308V16.3303Z" fill="#93DB37"/>
<path fill-rule="evenodd" clip-rule="evenodd" d="M15.6354 15.8688C12.1351 15.5068 9.87414 15.4728 6.37431 15.8601C6.2591 15.8736 6.1529 15.929 6.07603 16.0158C5.99915 16.1027 5.95702 16.2149 5.95768 16.3308C5.95768 16.4619 6.01223 16.5861 6.10435 16.6723C8.01468 18.4442 9.4621 19.2449 10.877 19.25C12.2969 19.255 13.8222 18.4607 15.8893 16.6595C15.955 16.601 16.0023 16.5247 16.0254 16.4399C16.0485 16.3551 16.0465 16.2654 16.0196 16.1817C15.9927 16.098 15.9421 16.0239 15.8739 15.9685C15.8057 15.913 15.7228 15.8785 15.6354 15.8693V15.8688ZM6.27393 14.949C9.8471 14.5534 12.1745 14.5892 15.7303 14.9572C15.9953 14.9849 16.2466 15.0892 16.4532 15.2575C16.6599 15.4257 16.813 15.6506 16.8938 15.9045C16.9747 16.1585 16.9797 16.4305 16.9084 16.6872C16.837 16.944 16.6923 17.1744 16.492 17.3502C14.3951 19.178 12.6489 20.1735 10.8742 20.1666C9.09452 20.1602 7.42527 19.1478 5.48148 17.3442C5.3423 17.2146 5.23136 17.0576 5.15558 16.8832C5.07979 16.7088 5.04079 16.5206 5.04102 16.3304C5.04035 15.9887 5.16578 15.6587 5.39328 15.4037C5.62078 15.1487 5.93435 14.9866 6.27393 14.9485V14.949Z" fill="#93DB37"/>
<path d="M14.6663 9.16667C14.6663 10.1391 14.28 11.0718 13.5924 11.7594C12.9048 12.447 11.9721 12.8333 10.9997 12.8333C10.0272 12.8333 9.09458 12.447 8.40695 11.7594C7.71932 11.0718 7.33301 10.1391 7.33301 9.16667C7.33301 8.19421 7.71932 7.26157 8.40695 6.57394C9.09458 5.88631 10.0272 5.5 10.9997 5.5C11.9721 5.5 12.9048 5.88631 13.5924 6.57394C14.28 7.26157 14.6663 8.19421 14.6663 9.16667Z" fill="#93DB37"/>
<path fill-rule="evenodd" clip-rule="evenodd" d="M10.9997 11.9167C11.729 11.9167 12.4285 11.6269 12.9442 11.1112C13.4599 10.5955 13.7497 9.89601 13.7497 9.16667C13.7497 8.43732 13.4599 7.73785 12.9442 7.22212C12.4285 6.7064 11.729 6.41667 10.9997 6.41667C10.2703 6.41667 9.57086 6.7064 9.05513 7.22212C8.53941 7.73785 8.24967 8.43732 8.24967 9.16667C8.24967 9.89601 8.53941 10.5955 9.05513 11.1112C9.57086 11.6269 10.2703 11.9167 10.9997 11.9167ZM10.9997 12.8333C11.9721 12.8333 12.9048 12.447 13.5924 11.7594C14.28 11.0718 14.6663 10.1391 14.6663 9.16667C14.6663 8.19421 14.28 7.26157 13.5924 6.57394C12.9048 5.88631 11.9721 5.5 10.9997 5.5C10.0272 5.5 9.09458 5.88631 8.40695 6.57394C7.71932 7.26157 7.33301 8.19421 7.33301 9.16667C7.33301 10.1391 7.71932 11.0718 8.40695 11.7594C9.09458 12.447 10.0272 12.8333 10.9997 12.8333Z" fill="#93DB37"/>
</svg>
