<svg width="42" height="42" viewBox="0 0 42 42" fill="none" xmlns="http://www.w3.org/2000/svg">
<path d="M6.09844 35.796C10.0226 39.7483 15.3561 41.9799 20.9256 41.9998C26.4951 42.0197 31.8444 39.8263 35.7967 35.9022C39.749 31.978 41.9806 26.6445 42.0005 21.075C42.0204 15.5055 39.827 10.1562 35.9028 6.20386C31.9787 2.25155 26.6452 0.0199798 21.0757 7.98257e-05C15.5062 -0.0198202 10.1569 2.17358 6.20455 6.09774C2.25224 10.0219 0.0206782 15.3554 0.000777519 20.9249C-0.0191231 26.4944 2.17427 31.8437 6.09844 35.796ZM22.2804 30.0979C22.2829 30.2721 22.2505 30.4451 22.1854 30.6068C22.1202 30.7684 22.0235 30.9155 21.9009 31.0393C21.7783 31.1632 21.6322 31.2614 21.4713 31.3282C21.3103 31.395 21.1377 31.4291 20.9634 31.4285C20.7891 31.4279 20.6167 31.3925 20.4562 31.3246C20.2957 31.2566 20.1504 31.1574 20.0287 31.0326C19.907 30.9079 19.8113 30.7602 19.7473 30.5981C19.6833 30.436 19.6522 30.2627 19.6559 30.0885L19.7102 14.883L14.554 20.0024C14.307 20.2477 13.9727 20.3848 13.6246 20.3835C13.2765 20.3823 12.9431 20.2428 12.6979 19.9958C12.4526 19.7488 12.3155 19.4144 12.3168 19.0663C12.318 18.7183 12.4575 18.3849 12.7045 18.1396L20.109 10.7878C20.3561 10.5426 20.6904 10.4055 21.0385 10.4067C21.3866 10.408 21.7199 10.5475 21.9652 10.7945L29.317 18.199C29.5623 18.446 29.6993 18.7804 29.6981 19.1285C29.6969 19.4765 29.5574 19.8099 29.3104 20.0551C29.0633 20.3004 28.729 20.4375 28.3809 20.4363C28.0328 20.435 27.6995 20.2955 27.4542 20.0485L22.3348 14.8924L22.2804 30.0979Z" fill="#99CD41"/>
</svg>
