<svg width="2020" height="1463" viewBox="0 0 2020 1463" fill="none" xmlns="http://www.w3.org/2000/svg">
<path opacity="0.694313" fill-rule="evenodd" clip-rule="evenodd" d="M1488 1362.77C1488 1371.87 1492.86 1380.27 1500.74 1384.82L1585.26 1433.59C1593.14 1438.14 1602.86 1438.14 1610.74 1433.59L1695.26 1384.82C1703.14 1380.27 1708 1371.87 1708 1362.77V1265.23C1708 1256.13 1703.14 1247.73 1695.26 1243.18L1610.74 1194.41C1602.86 1189.86 1593.14 1189.86 1585.26 1194.41L1500.74 1243.18C1492.86 1247.73 1488 1256.13 1488 1265.23V1362.77Z" fill="#625E5E" fill-opacity="0.12"/>
<path opacity="0.694313" fill-rule="evenodd" clip-rule="evenodd" d="M1320 1426.19C1320 1430.7 1322.41 1434.87 1326.31 1437.12L1368.19 1461.31C1372.09 1463.56 1376.91 1463.56 1380.81 1461.31L1422.69 1437.12C1426.59 1434.87 1429 1430.7 1429 1426.19V1377.81C1429 1373.3 1426.59 1369.13 1422.69 1366.88L1380.81 1342.69C1376.91 1340.44 1372.09 1340.44 1368.19 1342.69L1326.31 1366.88C1322.41 1369.13 1320 1373.3 1320 1377.81V1426.19Z" fill="#625E5E" fill-opacity="0.12"/>
<path opacity="0.5" fill-rule="evenodd" clip-rule="evenodd" d="M1968.18 826.943C2013.14 669.615 2058.6 367.575 1961.5 194.5C1847.5 -8.69977 971.833 -14.3326 543.5 11.5007L473.703 90.9073C368.726 72.3122 277.205 65.5731 206.32 75.0507C-192.19 128.333 86.8661 943.176 222.982 1286.02C259.654 1378.39 349.685 1436.22 449.065 1436.22L993.354 1436.22C1036.34 1436.22 1078.62 1425.27 1116.2 1404.4L1842.75 1000.86C1914.44 961.038 1956.08 895.948 1968.18 826.943Z" fill="url(#paint0_linear_159_3062)"/>
<defs>
<linearGradient id="paint0_linear_159_3062" x1="0.508698" y1="0.620117" x2="2152.81" y2="241.587" gradientUnits="userSpaceOnUse">
<stop stop-color="#96F574"/>
<stop offset="1" stop-color="#05A3E7"/>
</linearGradient>
</defs>
</svg>
