<svg width="24" height="28" viewBox="0 0 24 28" fill="none" xmlns="http://www.w3.org/2000/svg">
<path d="M10 25.2385H14C13.7219 25.5529 13.3827 26.8046 13 26.9771C12.6173 27.1495 12.4196 27.2386 11.9999 27.2386C11.5801 27.2386 11.3827 27.1724 11 27C10.6173 26.8276 10.2781 25.5529 10 25.2385ZM22.9479 21.2095L20.9999 17.9615V10.2385C20.9969 8.02592 20.1798 5.89177 18.7045 4.24285C17.2291 2.59393 15.1986 1.54555 12.9999 1.29753V1.23853C12.9999 0.973309 12.8945 0.718955 12.707 0.531419C12.5195 0.343882 12.2651 0.238525 11.9999 0.238525C11.7347 0.238525 11.4803 0.343882 11.2928 0.531419C11.1052 0.718955 10.9999 0.973309 10.9999 1.23853V1.29753C8.80131 1.54576 6.7709 2.59421 5.29557 4.24308C3.82024 5.89195 3.00311 8.02598 2.99989 10.2385V17.9615L1.05089 21.2095C0.868792 21.513 0.770494 21.8594 0.766028 22.2133C0.761563 22.5672 0.851091 22.9159 1.02547 23.2239C1.19985 23.5319 1.45284 23.7881 1.75861 23.9664C2.06437 24.1446 2.41196 24.2385 2.76589 24.2385H21.2329C21.5868 24.2385 21.9344 24.1446 22.2402 23.9664C22.5459 23.7881 22.7989 23.5319 22.9733 23.2239C23.1477 22.9159 23.2372 22.5672 23.2328 22.2133C23.2283 21.8594 23.13 21.513 22.9479 21.2095Z" fill="#97999B"/>
</svg>
