<svg width="23" height="27" viewBox="0 0 23 27" fill="none" xmlns="http://www.w3.org/2000/svg">
<path d="M9.23413 25H13.2341C12.956 25.3144 12.6168 26.5661 12.2341 26.7385C11.8514 26.9109 11.6538 27.0001 11.234 27.0001C10.8143 27.0001 10.6168 26.9339 10.2341 26.7615C9.85142 26.5891 9.51226 25.3144 9.23413 25ZM22.182 20.971L20.234 17.723V10C20.231 7.78739 19.414 5.65324 17.9386 4.00432C16.4632 2.35541 14.4327 1.30703 12.234 1.059V1C12.234 0.734784 12.1287 0.48043 11.9411 0.292893C11.7536 0.105357 11.4992 0 11.234 0C10.9688 0 10.7145 0.105357 10.5269 0.292893C10.3394 0.48043 10.234 0.734784 10.234 1V1.059C8.03544 1.30724 6.00503 2.35568 4.5297 4.00455C3.05437 5.65342 2.23724 7.78745 2.23402 10V17.723L0.285019 20.971C0.102923 21.2745 0.00462457 21.6209 0.000159224 21.9748C-0.00430612 22.3287 0.0852218 22.6774 0.259603 22.9854C0.433983 23.2934 0.686971 23.5496 0.992736 23.7278C1.2985 23.9061 1.64609 24 2.00002 24H20.467C20.8209 24 21.1685 23.9061 21.4743 23.7278C21.7801 23.5496 22.0331 23.2934 22.2074 22.9854C22.3818 22.6774 22.4713 22.3287 22.4669 21.9748C22.4624 21.6209 22.3641 21.2745 22.182 20.971Z" fill="white"/>
</svg>
