<svg width="26" height="26" viewBox="0 0 26 26" fill="none" xmlns="http://www.w3.org/2000/svg">
<g clip-path="url(#clip0_211_805)">
<path d="M13 26C5.81994 26 0 20.1801 0 13C0 5.81994 5.81994 0 13 0C20.1801 0 26 5.81994 26 13C26 20.1801 20.1801 26 13 26ZM9.84425 11.7032L13 8.5475L16.1574 11.7049L17.9936 9.86862L13 4.875L8.008 9.867L9.84425 11.7032ZM4.875 13L6.71125 14.8363L8.5475 13L6.71125 11.1637L4.875 13ZM9.84425 14.2968L8.00556 16.1306L8.008 16.133L13 21.125L17.9936 16.1314V16.1306L16.1574 14.2943L13 17.4525L9.84425 14.2968ZM17.4525 13L19.2887 14.8363L21.125 13L19.2887 11.1637L17.4525 13ZM14.8622 12.9984H14.8631L13 11.1361L11.6228 12.5125L11.4644 12.6709L11.1386 12.9976L11.1353 13L11.1386 13.0024L12.9992 14.8639L14.8631 13.0008L14.8639 13L14.8622 12.9992V12.9984Z" fill="black"/>
</g>
<defs>
<clipPath id="clip0_211_805">
<rect width="26" height="26" fill="white"/>
</clipPath>
</defs>
</svg>
