<svg width="26" height="27" viewBox="0 0 26 27" fill="none" xmlns="http://www.w3.org/2000/svg">
<g clip-path="url(#clip0_292_453)">
<path d="M13 26.8945C5.81994 26.8945 0 21.0746 0 13.8945C0 6.71447 5.81994 0.894531 13 0.894531C20.1801 0.894531 26 6.71447 26 13.8945C26 21.0746 20.1801 26.8945 13 26.8945ZM9.84425 12.5978L13 9.44203L16.1574 12.5994L17.9936 10.7632L13 5.76953L8.008 10.7615L9.84425 12.5978ZM4.875 13.8945L6.71125 15.7308L8.5475 13.8945L6.71125 12.0583L4.875 13.8945ZM9.84425 15.1913L8.00556 17.0251L8.008 17.0275L13 22.0195L17.9936 17.0259V17.0251L16.1574 15.1888L13 18.347L9.84425 15.1913ZM17.4525 13.8945L19.2887 15.7308L21.125 13.8945L19.2887 12.0583L17.4525 13.8945ZM14.8622 13.8929H14.8631L13 12.0307L11.6228 13.407L11.4644 13.5655L11.1386 13.8921L11.1353 13.8945L11.1386 13.897L12.9992 15.7584L14.8631 13.8953L14.8639 13.8945L14.8622 13.8937V13.8929Z" fill="white"/>
</g>
<defs>
<clipPath id="clip0_292_453">
<rect width="26" height="26" fill="white" transform="translate(0 0.894531)"/>
</clipPath>
</defs>
</svg>
