<svg width="21" height="21" viewBox="0 0 21 21" fill="none" xmlns="http://www.w3.org/2000/svg">
<path d="M10.5 21C4.70072 21 0 16.2993 0 10.5C0 4.70072 4.70072 0 10.5 0C16.2993 0 21 4.70072 21 10.5C21 16.2993 16.2993 21 10.5 21ZM7.95113 9.45263L10.5 6.90375L13.0502 9.45394L14.5333 7.97081L10.5 3.9375L6.468 7.9695L7.95113 9.45263ZM3.9375 10.5L5.42063 11.9831L6.90375 10.5L5.42063 9.01688L3.9375 10.5ZM7.95113 11.5474L6.46603 13.0285L6.468 13.0305L10.5 17.0625L14.5333 13.0292V13.0285L13.0502 11.5454L10.5 14.0962L7.95113 11.5474ZM14.0962 10.5L15.5794 11.9831L17.0625 10.5L15.5794 9.01688L14.0962 10.5ZM12.0041 10.4987H12.0048L10.5 8.99456L9.38766 10.1062L9.25969 10.2342L8.99653 10.498L8.99391 10.5L8.99653 10.502L10.4993 12.0054L12.0048 10.5007L12.0054 10.5L12.0041 10.4993V10.4987Z" fill="white"/>
</svg>
