<svg width="66" height="64" viewBox="0 0 66 64" fill="none" xmlns="http://www.w3.org/2000/svg">
<path d="M49.5141 12.1352V0.820068C49.5523 0.845568 49.6038 0.871524 49.642 0.909774C49.6935 0.948025 49.7317 0.98673 49.7827 1.02498L63.9777 15.2327C64.0159 15.271 64.0546 15.3097 64.0929 15.3607C64.1184 15.399 64.1571 15.4377 64.1826 15.4887H52.8674C51.0237 15.4882 49.5137 13.9782 49.5137 12.1349L49.5141 12.1352Z" fill="#99CD41"/>
<path d="M13.5957 50.4584L9.93513 57.9591C9.45746 58.9144 8.11323 58.9108 7.6438 57.9718L6.04362 54.772L2.53644 55.476C1.46088 55.6741 0.671295 54.5731 1.12849 53.6582L4.59743 46.5674C6.11928 47.6548 7.38699 47.5273 8.71882 47.5273C10.4861 47.5273 11.0835 48.6211 12.2642 49.7544H12.3284C12.7128 50.0363 13.1353 50.2794 13.5957 50.4584L13.5957 50.4584Z" fill="#99CD41"/>
<path d="M30.2619 54.2206C30.2619 54.9364 29.664 55.6125 28.7004 55.4751L25.1932 54.7711L23.593 57.9709C23.3754 58.4062 22.94 58.6749 22.4537 58.6749C21.9547 58.6749 21.5193 58.3935 21.3017 57.9582L17.6406 50.4575C19.1164 49.8846 19.8232 48.8346 19.9575 48.7039C22.0157 46.3165 23.6627 48.6993 26.6389 46.5537C30.6529 54.7214 30.2617 53.9388 30.2617 54.2206L30.2619 54.2206Z" fill="#99CD41"/>
<path d="M28.585 31.9227C27.0235 30.6941 26.1783 28.7229 26.4088 26.7389C26.5632 25.0144 25.3155 23.2968 23.0296 23.4493C18.8599 24.0914 18.221 20.1726 15.6569 20.1726H15.5035C14.6588 20.1981 13.8651 20.5952 13.3273 21.2605C10.4973 24.8651 7.43321 22.3356 5.59628 24.4347C3.92965 26.2903 6.10673 29.2101 2.65237 31.9354C1.16748 33.0961 1.19977 35.3829 2.65237 36.4922C6.71327 39.7335 3.03624 44.0065 7.06846 44.9145C8.07981 45.2141 10.965 44.3234 13.2253 47.0647C13.2508 47.1157 13.2895 47.1544 13.3278 47.1926C13.3278 47.1926 13.3405 47.1926 13.3405 47.2054C14.3036 48.4034 15.5286 48.2504 15.6574 48.2805C18.3048 48.2805 18.3531 44.6536 23.0688 44.9909C24.9157 45.2291 26.6183 43.7014 26.3838 41.6755C26.2345 39.4411 27.1356 37.6483 28.5982 36.4917C30.0618 35.3269 30.039 33.086 28.585 31.9227L28.585 31.9227ZM15.6187 38.7835C13.1097 38.7835 11.0619 36.7481 11.0619 34.2267C11.0619 31.7049 13.1101 29.6699 15.6187 29.6699C18.1405 29.6699 20.1755 31.7049 20.1755 34.2267C20.1755 36.7485 18.14 38.7835 15.6187 38.7835Z" fill="#99CD41"/>
<path d="M52.8661 18.0476C49.6021 18.0476 46.9524 15.398 46.9524 12.134L46.9529 0H18.4219C16.1306 0 14.2617 1.86876 14.2617 4.16021V17.7793C14.6328 17.6768 15.0299 17.6258 15.4265 17.6131H15.6569C19.7283 17.6131 19.5065 20.9285 22.4924 20.9285C22.5179 20.9285 23.1699 20.8784 23.0042 20.8902C24.8588 20.7473 26.6785 21.4786 27.942 23.2326H58.1399C58.8476 23.2326 59.4199 23.8059 59.4199 24.5126C59.4199 25.2193 58.8475 25.7926 58.1399 25.7926H28.9434C29.0741 26.9819 28.509 28.6125 30.1719 29.9144C30.5581 30.2254 30.8791 30.5893 31.1637 30.9763H58.1407C58.8484 30.9763 59.4207 31.5496 59.4207 32.2563C59.4207 32.9629 58.8483 33.5362 58.1407 33.5362L32.1686 33.5358C32.4691 35.9209 31.5456 37.1982 29.9656 38.7201H58.141C58.8486 38.7201 59.4209 39.2934 59.4209 40C59.4209 40.7067 58.8485 41.28 58.141 41.28H28.9246C28.9797 42.3464 29.002 43.1884 28.4442 44.3906L29.4519 46.4638H58.1414C58.849 46.4638 59.4213 47.0371 59.4213 47.7438C59.4213 48.4504 58.8489 49.0237 58.1414 49.0237H30.6969L32.2209 52.1597C32.6176 52.774 32.8225 53.478 32.8225 54.2207C32.8225 56.3637 31.0092 58.3431 28.3426 58.0093L26.6146 57.6637L25.8851 59.1099C25.2326 60.4282 23.9139 61.2346 22.4548 61.2346C20.9827 61.2346 19.6644 60.4155 19.0114 59.0972L15.6194 52.1466L14.2624 54.9243V59.8399C14.2624 60.2237 14.3134 60.5693 14.3904 60.8385C14.8385 62.694 16.5023 64 18.4226 64H60.8419C63.1332 64 65.0021 62.1312 65.0021 59.8398L65.0016 18.0477L52.8661 18.0476ZM21.1353 7.74374H32.694C33.4017 7.74374 33.974 8.31704 33.974 9.0237C33.974 9.73036 33.4016 10.3037 32.694 10.3037H21.1353C20.4276 10.3037 19.8553 9.73036 19.8553 9.0237C19.8553 8.31653 20.4282 7.74374 21.1353 7.74374ZM41.6542 18.0481H21.1353C20.4276 18.0481 19.8553 17.4748 19.8553 16.7681C19.8553 16.0615 20.4277 15.4882 21.1353 15.4882H41.6542C42.3618 15.4882 42.9342 16.0615 42.9342 16.7681C42.9342 17.4748 42.3618 18.0481 41.6542 18.0481Z" fill="#99CD41"/>
</svg>
