<svg width="430" height="379" viewBox="0 0 430 379" fill="none" xmlns="http://www.w3.org/2000/svg">
<g clip-path="url(#clip0_206_559)">
<path opacity="0.694313" fill-rule="evenodd" clip-rule="evenodd" d="M430 171.768C430 180.865 425.144 189.272 417.26 193.821L332.74 242.589C324.856 247.137 315.144 247.137 307.26 242.589L222.74 193.821C214.856 189.272 210 180.865 210 171.768V74.2323C210 65.1346 214.856 56.7283 222.74 52.1792L307.26 3.41149C315.144 -1.13716 324.856 -1.13716 332.74 3.41149L417.26 52.1792C425.144 56.7283 430 65.1346 430 74.2323V171.768Z" fill="#625E5E" fill-opacity="0.12"/>
</g>
<g clip-path="url(#clip1_206_559)">
<path opacity="0.694313" fill-rule="evenodd" clip-rule="evenodd" d="M195 172.908C195 179.047 191.711 184.72 186.372 187.79L129.128 220.698C123.789 223.767 117.211 223.767 111.872 220.698L54.6285 187.79C49.2888 184.72 46 179.047 46 172.908V107.092C46 100.953 49.2888 95.2801 54.6285 92.2104L111.872 59.3021C117.211 56.2326 123.789 56.2326 129.128 59.3021L186.372 92.2104C191.711 95.2801 195 100.953 195 107.092V172.908Z" fill="#625E5E" fill-opacity="0.12"/>
</g>
<g clip-path="url(#clip2_206_559)">
<path opacity="0.694313" fill-rule="evenodd" clip-rule="evenodd" d="M282 325.287C282 331.87 278.49 337.953 272.792 341.244L211.708 376.531C206.01 379.823 198.99 379.823 193.292 376.531L132.207 341.244C126.51 337.953 123 331.87 123 325.287V254.713C123 248.13 126.51 242.047 132.207 238.756L193.292 203.468C198.99 200.177 206.01 200.177 211.708 203.468L272.792 238.756C278.49 242.047 282 248.13 282 254.713V325.287Z" fill="#625E5E" fill-opacity="0.12"/>
</g>
<g clip-path="url(#clip3_206_559)">
<path opacity="0.694313" fill-rule="evenodd" clip-rule="evenodd" d="M109 297.186C109 301.697 106.594 305.867 102.688 308.122L60.8121 332.308C56.9061 334.564 52.0939 334.564 48.1879 332.308L6.312 308.122C2.406 305.867 0 301.697 0 297.186V248.814C0 244.302 2.406 240.134 6.312 237.878L48.1879 213.692C52.0939 211.436 56.9061 211.436 60.8121 213.692L102.688 237.878C106.594 240.134 109 244.302 109 248.814V297.186Z" fill="#625E5E" fill-opacity="0.12"/>
</g>
<defs>
<clipPath id="clip0_206_559">
<rect width="220" height="246" fill="white" transform="matrix(-1 0 0 1 430 0)"/>
</clipPath>
<clipPath id="clip1_206_559">
<rect width="149" height="166" fill="white" transform="matrix(-1 0 0 1 195 57)"/>
</clipPath>
<clipPath id="clip2_206_559">
<rect width="159" height="178" fill="white" transform="matrix(-1 0 0 1 282 201)"/>
</clipPath>
<clipPath id="clip3_206_559">
<rect width="109" height="122" fill="white" transform="matrix(-1 0 0 1 109 212)"/>
</clipPath>
</defs>
</svg>
