<svg width="430" height="379" viewBox="0 0 430 379" fill="none" xmlns="http://www.w3.org/2000/svg">
<g clip-path="url(#clip0_206_560)">
<path opacity="0.694313" fill-rule="evenodd" clip-rule="evenodd" d="M0 171.768C0 180.865 4.85633 189.272 12.74 193.821L97.26 242.589C105.144 247.137 114.856 247.137 122.74 242.589L207.26 193.821C215.144 189.272 220 180.865 220 171.768V74.2323C220 65.1346 215.144 56.7283 207.26 52.1792L122.74 3.41149C114.856 -1.13716 105.144 -1.13716 97.26 3.41149L12.74 52.1792C4.85633 56.7283 0 65.1346 0 74.2323V171.768Z" fill="#625E5E" fill-opacity="0.12"/>
</g>
<g clip-path="url(#clip1_206_560)">
<path opacity="0.694313" fill-rule="evenodd" clip-rule="evenodd" d="M235 172.908C235 179.047 238.289 184.72 243.628 187.79L300.872 220.698C306.211 223.767 312.789 223.767 318.128 220.698L375.372 187.79C380.711 184.72 384 179.047 384 172.908V107.092C384 100.953 380.711 95.2801 375.372 92.2104L318.128 59.3021C312.789 56.2326 306.211 56.2326 300.872 59.3021L243.628 92.2104C238.289 95.2801 235 100.953 235 107.092V172.908Z" fill="#625E5E" fill-opacity="0.12"/>
</g>
<g clip-path="url(#clip2_206_560)">
<path opacity="0.694313" fill-rule="evenodd" clip-rule="evenodd" d="M148 325.287C148 331.87 151.51 337.953 157.208 341.244L218.292 376.531C223.99 379.823 231.01 379.823 236.708 376.531L297.793 341.244C303.49 337.953 307 331.87 307 325.287V254.713C307 248.13 303.49 242.047 297.793 238.756L236.708 203.468C231.01 200.177 223.99 200.177 218.292 203.468L157.208 238.756C151.51 242.047 148 248.13 148 254.713V325.287Z" fill="#625E5E" fill-opacity="0.12"/>
</g>
<g clip-path="url(#clip3_206_560)">
<path opacity="0.694313" fill-rule="evenodd" clip-rule="evenodd" d="M321 297.186C321 301.697 323.406 305.867 327.312 308.122L369.188 332.308C373.094 334.564 377.906 334.564 381.812 332.308L423.688 308.122C427.594 305.867 430 301.697 430 297.186V248.814C430 244.302 427.594 240.134 423.688 237.878L381.812 213.692C377.906 211.436 373.094 211.436 369.188 213.692L327.312 237.878C323.406 240.134 321 244.302 321 248.814V297.186Z" fill="#625E5E" fill-opacity="0.12"/>
</g>
<defs>
<clipPath id="clip0_206_560">
<rect width="220" height="246" fill="white"/>
</clipPath>
<clipPath id="clip1_206_560">
<rect width="149" height="166" fill="white" transform="translate(235 57)"/>
</clipPath>
<clipPath id="clip2_206_560">
<rect width="159" height="178" fill="white" transform="translate(148 201)"/>
</clipPath>
<clipPath id="clip3_206_560">
<rect width="109" height="122" fill="white" transform="translate(321 212)"/>
</clipPath>
</defs>
</svg>
