<!-- icon666.com - MILLIONS vector ICONS FREE --><svg viewBox="0 0 48 48" xmlns="http://www.w3.org/2000/svg"><g id="_21_-_30" data-name="21 - 30"><g id="Innovative"><path d="m19.184 45a2.99 2.99 0 0 0 2.816 2h4a2.99 2.99 0 0 0 2.816-2z" fill="#000000" style="fill: rgb(255, 255, 255);"></path><path d="m31 40h-14v1a2 2 0 0 0 2 2h10a2 2 0 0 0 2-2z" fill="#000000" style="fill: rgb(255, 255, 255);"></path><path d="m23 30h2v8h-2z" fill="#000000" style="fill: rgb(255, 255, 255);"></path><path d="m20 26a1 1 0 0 0 0 2h1v-1a1 1 0 0 0 -1-1z" fill="#000000" style="fill: rgb(255, 255, 255);"></path><path d="m29 27a1 1 0 0 0 -2 0v1h1a1 1 0 0 0 1-1z" fill="#000000" style="fill: rgb(255, 255, 255);"></path><path d="m24 7a14.015 14.015 0 0 0 -14 14 14.24 14.24 0 0 0 4.239 10.537 8.79 8.79 0 0 1 2.761 6.313v.15h4v-8h-1a3 3 0 1 1 3-3v1h2v-1a3 3 0 1 1 3 3h-1v8h4v-.15a8.79 8.79 0 0 1 2.761-6.313 14.24 14.24 0 0 0 4.239-10.537 14.015 14.015 0 0 0 -14-14z" fill="#000000" style="fill: rgb(255, 255, 255);"></path><path d="m24 5a1 1 0 0 1 -1-1v-2a1 1 0 0 1 2 0v2a1 1 0 0 1 -1 1z" fill="#000000" style="fill: rgb(255, 255, 255);"></path><path d="m24 5a1 1 0 0 1 -1-1v-2a1 1 0 0 1 2 0v2a1 1 0 0 1 -1 1z" fill="#000000" style="fill: rgb(255, 255, 255);"></path><path d="m43 22h-2a1 1 0 0 1 0-2h2a1 1 0 0 1 0 2z" fill="#000000" style="fill: rgb(255, 255, 255);"></path><path d="m7 22h-2a1 1 0 0 1 0-2h2a1 1 0 0 1 0 2z" fill="#000000" style="fill: rgb(255, 255, 255);"></path><path d="m11.979 9.979a1 1 0 0 1 -.707-.293l-1.414-1.414a1 1 0 0 1 1.414-1.414l1.414 1.414a1 1 0 0 1 -.707 1.707z" fill="#000000" style="fill: rgb(255, 255, 255);"></path><path d="m11.979 9.979a1 1 0 0 1 -.707-.293l-1.414-1.414a1 1 0 0 1 1.414-1.414l1.414 1.414a1 1 0 0 1 -.707 1.707z" fill="#000000" style="fill: rgb(255, 255, 255);"></path><path d="m37.435 35.435a1 1 0 0 1 -.707-.293l-1.414-1.414a1 1 0 1 1 1.414-1.415l1.414 1.415a1 1 0 0 1 -.707 1.707z" fill="#000000" style="fill: rgb(255, 255, 255);"></path><path d="m36.021 9.979a1 1 0 0 1 -.707-1.707l1.414-1.414a1 1 0 1 1 1.414 1.414l-1.414 1.414a1 1 0 0 1 -.707.293z" fill="#000000" style="fill: rgb(255, 255, 255);"></path><path d="m10.565 35.435a1 1 0 0 1 -.707-1.707l1.414-1.415a1 1 0 1 1 1.414 1.415l-1.414 1.414a1 1 0 0 1 -.707.293z" fill="#000000" style="fill: rgb(255, 255, 255);"></path></g></g></svg>