<svg width="56" height="56" viewBox="0 0 56 56" fill="none" xmlns="http://www.w3.org/2000/svg">
<path d="M6 16.481C6 18.681 6 19.791 6.775 21.34C6.90942 21.6225 7.10462 21.8719 7.34665 22.0702C7.58868 22.2684 7.87154 22.4108 8.175 22.487C8.55284 22.5959 8.88776 22.819 9.13391 23.1256C9.38005 23.4323 9.52539 23.8075 9.55 24.2C9.71725 26.8571 10.8904 29.3507 12.8307 31.1736C14.7711 32.9965 17.333 34.0119 19.9953 34.0132C22.6577 34.0145 25.2205 33.0015 27.1626 31.1805C29.1047 29.3594 30.2802 26.8669 30.45 24.21C30.4737 23.8181 30.6177 23.4431 30.8624 23.136C31.107 22.8289 31.4403 22.6047 31.817 22.494C32.1231 22.4179 32.4085 22.2748 32.6527 22.0751C32.8969 21.8753 33.0937 21.6239 33.229 21.339C34 19.791 34 18.685 34 16.481V16C34 15.7348 33.8946 15.4804 33.7071 15.2929C33.5196 15.1053 33.2652 15 33 15C32.7348 15 32.4804 15.1053 32.2929 15.2929C32.1054 15.4804 32 15.7348 32 16V17C32 17.2652 31.8946 17.5196 31.7071 17.7071C31.5196 17.8946 31.2652 18 31 18C30.7348 18 30.4804 17.8946 30.2929 17.7071C30.1054 17.5196 30 17.2652 30 17V14.963C29.9937 14.7517 29.9077 14.5506 29.7593 14.4C29.611 14.2494 29.4112 14.1605 29.2 14.151C25.33 13.841 22.525 12.88 20.628 11.215C20.4696 11.0765 20.266 11.0006 20.0556 11.0015C19.8451 11.0024 19.6422 11.0801 19.485 11.22C16.985 13.52 13.449 13.857 11.11 14.084L10.757 14.118C10.5531 14.1347 10.3627 14.2271 10.2234 14.3769C10.0841 14.5268 10.0058 14.7234 10.004 14.928V17C10.004 17.2652 9.89864 17.5196 9.71111 17.7071C9.52357 17.8946 9.26922 18 9.004 18C8.73878 18 8.48443 17.8946 8.29689 17.7071C8.10936 17.5196 8.004 17.2652 8.004 17V16C8.004 15.7348 7.89864 15.4804 7.71111 15.2929C7.52357 15.1053 7.26922 15 7.004 15C6.73878 15 6.48443 15.1053 6.29689 15.2929C6.10936 15.4804 6.004 15.7348 6.004 16L6 16.481Z" fill="white"/>
<path d="M27.9001 43.2C26.9679 43.9419 25.9019 44.498 24.7601 44.838C24.675 44.8611 24.5872 44.8728 24.4991 44.873C24.3469 44.8737 24.1967 44.839 24.0603 44.7717C23.9239 44.7043 23.805 44.6062 23.7131 44.485L23.0601 45.285L24.7041 55.153C26.8001 52.747 27.6321 47.389 27.9001 43.2Z" fill="white"/>
<path d="M25 2.99999H26.475L28.333 0.309986C28.333 0.309986 28.395 0.283986 28.31 0.135986C28.2857 0.0926847 28.2498 0.0570178 28.2063 0.0329932C28.1629 0.00896865 28.1136 -0.00246169 28.064 -1.36684e-05H18.125C14.9559 -0.0414404 11.8998 1.17565 9.62677 3.38434C7.35378 5.59303 6.04951 8.61302 6 11.782V13.182C6.39978 13.0312 6.82824 12.9719 7.25393 13.0085C7.67962 13.045 8.09173 13.1764 8.46 13.393C8.69253 13.0378 9.00203 12.7394 9.36556 12.5201C9.72909 12.3008 10.1373 12.1661 10.56 12.126L10.917 12.091C12.99 11.891 16.124 11.591 18.133 9.74399C18.6522 9.26805 19.3292 9.00121 20.0335 8.99493C20.7378 8.98865 21.4194 9.24338 21.947 9.70999C23.487 11.061 25.982 11.885 29.36 12.155C29.7914 12.187 30.21 12.316 30.5847 12.5322C30.9594 12.7485 31.2805 13.0465 31.524 13.404C31.8936 13.1835 32.3082 13.0492 32.7369 13.0111C33.1656 12.9731 33.5973 13.0321 34 13.184V10.869C34 7.24399 30.366 4.99999 27 4.99999H25C24.7348 4.99999 24.4804 4.89463 24.2929 4.70709C24.1054 4.51956 24 4.2652 24 3.99999C24 3.73477 24.1054 3.48042 24.2929 3.29288C24.4804 3.10534 24.7348 2.99999 25 2.99999Z" fill="white"/>
<path d="M0 56H13.229C10.265 51.909 9.987 43.169 9.989 40H9.96C7.31934 40.0029 4.78766 41.0532 2.92043 42.9204C1.0532 44.7877 0.00291157 47.3193 0 49.96V56Z" fill="white"/>
<path d="M14.888 42.571C15.3056 41.6147 15.989 40.7983 16.857 40.219C15.8521 39.7545 14.9992 39.015 14.397 38.086C13.4906 38.1888 12.6474 38.6014 12.01 39.254C12.155 41.053 13.825 42.089 14.888 42.571Z" fill="white"/>
<path d="M16.939 45.282L16.286 44.482C16.1663 44.6382 16.0028 44.7553 15.8163 44.8182C15.6298 44.881 15.4288 44.8869 15.239 44.835C14.0889 44.493 13.0158 43.9317 12.079 43.182C12.354 47.973 13.292 53.334 15.263 55.34L16.939 45.282Z" fill="white"/>
<path d="M23.1429 40.219C24.0109 40.7983 24.6943 41.6147 25.1119 42.571C26.1739 42.09 27.8449 41.053 27.9899 39.254C27.3513 38.6014 26.5072 38.1889 25.5999 38.086C24.9986 39.0146 24.1468 39.754 23.1429 40.219Z" fill="white"/>
<path d="M30.0401 40H30.0111C30.0111 43.135 29.7111 51.76 26.5811 56H39.3491C37.7025 54.9269 36.3505 53.459 35.4163 51.7298C34.482 50.0007 33.9952 48.0654 34.0001 46.1C34.0357 44.4499 34.3112 42.8138 34.8181 41.243C33.3555 40.433 31.712 40.0054 30.0401 40Z" fill="white"/>
<path d="M24 36.835V35.327C21.4088 36.222 18.5927 36.2244 16 35.334V36.843C16.123 37.124 16.873 38.505 20 39.191C23.071 38.517 23.853 37.169 24 36.835Z" fill="white"/>
<path d="M22.741 42.509C22.3958 42.119 21.9747 41.8033 21.5034 41.5814C21.0322 41.3594 20.5206 41.2358 20 41.218C19.4799 41.2428 18.9699 41.3705 18.4994 41.5936C18.0289 41.8168 17.6073 42.131 17.259 42.518L18.475 44H21.525L22.741 42.509Z" fill="white"/>
<path d="M22.8201 56L21.1531 46H18.8471L17.1801 56H22.8201Z" fill="white"/>
<path d="M47.56 32H52.01C52.2752 32 52.5296 31.8946 52.7171 31.7071C52.9046 31.5196 53.01 31.2652 53.01 31C53.01 30.7348 52.9046 30.4804 52.7171 30.2929C52.5296 30.1054 52.2752 30 52.01 30H47.87L49.41 26.39C49.476 26.2381 49.503 26.0721 49.4885 25.9072C49.474 25.7422 49.4186 25.5834 49.3272 25.4453C49.2358 25.3073 49.1113 25.1942 48.9651 25.1164C48.8189 25.0386 48.6556 24.9986 48.49 25H46.06L46.29 25.69C46.372 25.942 46.3507 26.2162 46.2307 26.4524C46.1107 26.6887 45.9018 26.8676 45.65 26.95C45.5495 26.9812 45.4452 26.998 45.34 27C45.1293 26.9989 44.9243 26.9318 44.7539 26.808C44.5835 26.6842 44.4562 26.51 44.39 26.31L43.73 24.31L43.29 23H42.55C42.3832 23.0003 42.2192 23.0424 42.0728 23.1224C41.9264 23.2023 41.8023 23.3176 41.7119 23.4577C41.6214 23.5979 41.5675 23.7584 41.5549 23.9247C41.5424 24.0911 41.5716 24.2579 41.64 24.41L44.12 30H40.01C39.7448 30 39.4904 30.1054 39.3029 30.2929C39.1154 30.4804 39.01 30.7348 39.01 31C39.01 31.2652 39.1154 31.5196 39.3029 31.7071C39.4904 31.8946 39.7448 32 40.01 32H44.48L44.46 32.01C39.92 33.41 36.02 40.88 36 46.11C36.0132 48.741 37.0691 51.2595 38.9361 53.1134C40.8031 54.9673 43.3289 56.0053 45.96 56H46.02C48.6439 56.0111 51.1664 54.987 53.04 53.15C53.9723 52.252 54.7148 51.1758 55.2232 49.9854C55.7317 48.7949 55.9958 47.5145 56 46.22C56.02 40.93 52.15 33.39 47.56 32ZM47.01 48.82V49C47.01 49.2652 46.9046 49.5196 46.7171 49.7071C46.5296 49.8946 46.2752 50 46.01 50C45.7448 50 45.4904 49.8946 45.3029 49.7071C45.1154 49.5196 45.01 49.2652 45.01 49V48.8C44.3386 48.5714 43.7711 48.1104 43.41 47.5C43.2791 47.2689 43.2446 46.9955 43.3139 46.7391C43.3831 46.4827 43.5506 46.2638 43.78 46.13C44.0096 45.9996 44.2815 45.9654 44.5363 46.0347C44.791 46.104 45.0081 46.2713 45.14 46.5C45.2277 46.6519 45.3538 46.778 45.5056 46.8658C45.6574 46.9535 45.8297 46.9998 46.005 47C46.1804 47.0002 46.3527 46.9542 46.5047 46.8668C46.6567 46.7793 46.7831 46.6534 46.8711 46.5017C46.959 46.35 47.0056 46.1778 47.006 46.0025C47.0065 45.8271 46.9608 45.6547 46.8735 45.5026C46.7863 45.3504 46.6606 45.2239 46.509 45.1357C46.3575 45.0475 46.1854 45.0007 46.01 45C45.3065 44.9945 44.6272 44.742 44.091 44.2865C43.5548 43.831 43.1957 43.2015 43.0766 42.5081C42.9575 41.8147 43.0858 41.1015 43.4392 40.4931C43.7926 39.8848 44.3486 39.42 45.01 39.18V39C45.01 38.7348 45.1154 38.4804 45.3029 38.2929C45.4904 38.1054 45.7448 38 46.01 38C46.2752 38 46.5296 38.1054 46.7171 38.2929C46.9046 38.4804 47.01 38.7348 47.01 39V39.2C47.6814 39.4286 48.2489 39.8896 48.61 40.5C48.7409 40.7311 48.7754 41.0045 48.7061 41.2609C48.6369 41.5173 48.4694 41.7362 48.24 41.87C48.0104 42.0004 47.7385 42.0346 47.4837 41.9653C47.2289 41.896 47.0119 41.7287 46.88 41.5C46.7923 41.3481 46.6662 41.222 46.5144 41.1342C46.3626 41.0465 46.1903 41.0002 46.015 41C45.8396 40.9998 45.6673 41.0458 45.5153 41.1332C45.3633 41.2207 45.2369 41.3466 45.1489 41.4983C45.061 41.65 45.0144 41.8222 45.014 41.9975C45.0135 42.1729 45.0592 42.3453 45.1465 42.4974C45.2337 42.6496 45.3594 42.7761 45.511 42.8643C45.6625 42.9525 45.8346 42.9993 46.01 43C46.7135 43.0055 47.3928 43.258 47.929 43.7135C48.4652 44.169 48.8243 44.7985 48.9434 45.4919C49.0625 46.1853 48.9342 46.8985 48.5808 47.5069C48.2274 48.1152 47.6714 48.58 47.01 48.82Z" fill="white"/>
</svg>
