<svg width="802" height="568" viewBox="0 0 802 568" fill="none" xmlns="http://www.w3.org/2000/svg">
<g opacity="0.05" clip-path="url(#clip0_101_2267)">
<path d="M794.532 538.342C790.913 543.946 787.198 549.492 783.598 554.601C779.997 559.709 776.778 564.131 773.787 567.943H774.016C775.425 566.037 776.911 564.131 778.512 561.977C780.112 559.823 781.96 557.212 783.807 554.677L789.313 546.767C791.218 544.079 792.989 541.258 794.837 538.495C797.314 534.682 799.714 530.87 802 527.058V526.162L799.809 529.879C798.19 532.738 796.285 535.597 794.532 538.342Z" fill="#191E21"/>
<path d="M778.34 6.09944C780.054 8.38669 781.769 10.8836 783.579 13.4186C787.198 18.5268 790.894 24.0734 794.513 29.6581C797.104 33.7179 799.619 37.7969 802 41.7805V40.7322C799.714 36.9201 797.314 33.2033 794.856 29.4294C792.951 26.6656 791.218 23.8637 789.332 21.1571L783.826 13.2471C780.302 8.36763 776.987 3.85029 774.016 8.83703e-05H773.787C775.33 1.90613 776.74 3.94562 778.34 6.09944Z" fill="#191E21"/>
<path d="M18.1736 13.2471L12.6682 21.1571C10.7632 23.8637 8.99154 26.6656 7.14371 29.4294C4.68627 33.2414 2.28599 37.0535 0 40.7322L0 41.7805C2.38124 37.7969 4.89582 33.7179 7.4866 29.6581C11.1061 24.0734 14.8018 18.5268 18.4212 13.4186C20.231 10.8836 21.9455 8.38669 23.66 6.09944C25.3744 3.81219 26.7651 1.88707 28.2129 8.83703e-05H27.9843C25.0125 3.81217 21.6978 8.36763 18.1736 13.2471Z" fill="#191E21"/>
<path d="M791.903 497.629C789.427 502.337 786.684 507.007 783.998 511.696C781.312 516.385 778.454 520.978 775.54 525.438C772.625 529.898 769.825 534.244 766.91 538.456C765.481 540.553 764.014 542.554 762.605 544.537C761.195 546.519 759.804 548.482 758.395 550.255C755.613 553.972 752.985 557.498 750.432 560.643C748.393 563.33 746.412 565.732 744.583 567.924H744.85L747.003 565.332C748.165 563.883 749.384 562.377 750.641 560.776C753.194 557.631 755.861 554.124 758.661 550.426C761.462 546.729 764.376 542.707 767.253 538.59C770.129 534.473 773.12 530.089 775.997 525.61C778.873 521.131 781.712 516.556 784.588 511.943C787.465 507.331 790.113 502.623 792.665 497.953C795.218 493.283 797.618 488.709 800.095 484.134L802 480.208V477.673C801.047 479.579 800.095 481.695 799.085 483.772C796.78 488.27 794.475 492.978 791.903 497.629Z" fill="#191E21"/>
<path d="M750.432 7.28104C752.965 10.4451 755.613 13.9522 758.376 17.688C761.138 21.4238 763.976 25.4075 766.891 29.5627C769.806 33.7178 772.606 38.0827 775.501 42.6C778.397 47.1173 781.216 51.7108 783.96 56.3234C786.703 60.936 789.313 65.7202 791.846 70.39C794.38 75.0598 796.685 79.7868 799.009 84.266L802 90.5369V87.5825L800.095 83.7704C797.733 79.2722 795.332 74.6214 792.684 69.9898C790.036 65.3581 787.331 60.6692 784.607 55.9994C781.883 51.3296 778.892 46.7551 776.016 42.3141C773.139 37.873 770.129 33.5272 767.253 29.353C764.376 25.1787 761.538 21.2142 758.661 17.5355C755.785 13.8569 753.213 10.3117 750.622 7.16669L747.003 2.6303L744.85 -4.3869e-05H744.622C746.412 2.1919 748.355 4.63165 750.432 7.28104Z" fill="#191E21"/>
<path d="M796.38 431.242C795.675 433.148 795.028 435.244 794.247 437.246L791.866 443.193C790.227 447.176 788.779 451.274 786.951 455.239L781.579 467.171C779.674 471.154 777.769 475.023 775.749 478.912L772.797 484.744L769.634 490.462C767.501 494.274 765.539 498.086 763.329 501.594L756.776 512.248C754.623 515.736 752.318 519.034 750.108 522.331C747.898 525.629 745.803 528.831 743.517 531.862C739.078 537.942 734.887 543.698 730.696 548.749C728.639 551.29 726.67 553.743 724.791 556.106L719.209 562.53C717.495 564.436 715.857 566.342 714.333 568.095H714.599L719.362 562.644L724.981 556.259L730.925 548.94C732.944 546.347 735.211 543.774 737.307 540.915L743.86 532.128C746.165 529.136 748.317 525.915 750.546 522.598L753.937 517.662C755.099 516.003 756.261 514.326 757.309 512.572L763.977 501.956C765.139 500.202 766.186 498.334 767.234 496.485L770.453 490.901L773.692 485.183C774.74 483.277 775.73 481.371 776.74 479.464C778.645 475.652 780.836 471.745 782.76 467.78L788.36 455.906C789.332 454 790.265 451.922 791.027 449.921L793.58 443.936L796.095 437.989C796.876 436.083 797.619 434.005 798.362 432.023L802 422.321V414.354L800.476 419.462L796.38 431.242Z" fill="#191E21"/>
<path d="M719.209 5.5847L724.791 11.989L730.677 19.3463L733.821 23.2728C734.887 24.607 735.992 25.9603 737.021 27.4089L743.498 36.2339C745.765 39.2454 747.879 42.4857 750.089 45.7641C752.299 49.0425 754.623 52.3208 756.738 55.847L763.272 66.5018C765.481 70.1042 767.463 73.8782 769.577 77.6331L772.72 83.3512L775.673 89.0693C777.578 92.9767 779.655 96.8459 781.388 100.83L786.76 112.838C788.665 116.783 789.999 120.9 791.656 124.865L794.037 130.831C794.78 132.737 795.447 134.833 796.133 136.835L800.247 148.671L802 154.389V144.859L798.552 135.748C797.79 133.842 797.066 131.765 796.247 129.801L793.713 123.855L791.18 117.85C790.322 115.849 789.484 113.848 788.513 111.885L782.798 100.01C780.893 96.0645 778.74 92.2142 776.74 88.3259C775.711 86.4199 774.835 84.5138 773.692 82.6078L770.434 76.8897C768.225 73.1729 766.243 69.3608 763.957 65.8156C761.671 62.2704 759.481 58.687 757.271 55.218C755.061 51.749 752.718 48.4706 750.508 45.1922C748.298 41.9138 746.127 38.7117 743.803 35.662C739.307 29.6389 735.097 23.9018 730.868 18.8508L724.905 11.5315L719.305 5.14635C717.615 3.20219 716.015 1.39144 714.504 -0.285877H714.371L719.209 5.5847Z" fill="#191E21"/>
<path d="M689.186 6.70923C690.749 8.38654 692.406 10.1401 694.159 11.9699C695.892 13.876 697.74 15.782 699.492 17.8405L711.094 31.4497C714.98 36.5324 719.101 41.9138 723.457 47.5938C727.477 53.5025 731.858 59.64 736.125 66.2158L742.393 76.4703L745.612 81.7501C746.641 83.6561 747.612 85.4096 748.622 87.2776L754.756 98.7138C756.795 102.526 758.566 106.643 760.471 110.703C764.548 118.708 767.767 127.381 771.387 136.091C772.32 138.245 773.006 140.513 773.806 142.762L776.13 149.548L778.492 156.41C779.331 158.678 779.883 161.06 780.588 163.405L784.607 177.624C785.75 182.465 786.779 187.364 787.865 192.262C788.379 194.721 789.008 197.18 789.446 199.658L790.665 207.168L791.903 214.792C792.323 217.308 792.799 219.824 793.008 222.416L794.628 237.664C794.951 240.218 795.085 242.791 795.199 245.288L795.58 253.027L795.904 260.784C796.037 263.358 795.904 265.969 795.904 268.542C795.904 273.726 796.209 278.892 796.609 284.076V287.888V299.687C796.609 302.298 796.704 304.947 796.609 307.501L796.209 315.221L795.79 322.845C795.675 325.418 795.523 327.991 795.199 330.469L793.504 345.718C793.294 348.272 792.799 350.788 792.38 353.342L791.103 360.966L789.846 368.476C789.408 370.973 788.76 373.412 788.246 375.871L784.893 390.49L780.816 404.71C780.093 407.054 779.54 409.437 778.702 411.724L776.34 418.566L773.978 425.352C773.177 427.601 772.473 429.869 771.539 432.023C767.862 440.715 764.643 449.387 760.566 457.412C758.661 461.452 756.756 465.512 754.851 469.381L748.698 480.818L745.688 486.326L742.45 491.606L736.163 501.841C731.896 508.436 727.515 514.555 723.495 520.482L711.113 536.608L699.512 550.179C697.778 552.313 695.892 554.181 694.159 556.03L689.186 561.291C686.9 563.788 684.729 566.018 682.71 568H682.957C684.862 566.094 687.091 563.883 689.339 561.443L694.33 556.202C696.102 554.296 697.949 552.39 699.721 550.35C703.341 546.176 707.227 541.639 711.418 536.817L723.895 520.749C727.972 514.86 732.43 508.779 736.773 502.223L743.193 492.044L746.508 486.803C747.555 485.011 748.565 483.162 749.613 481.313L755.956 470.03C758.033 466.217 759.919 462.139 761.957 458.117C766.148 450.111 769.691 441.553 773.482 432.862C774.492 430.708 775.254 428.44 776.13 426.21L778.683 419.462L781.274 412.639C782.169 410.351 782.798 407.988 783.598 405.643L788.151 391.443L792.075 376.824C792.723 374.365 793.466 371.926 793.98 369.429L795.58 361.9L797.199 354.276C797.733 351.76 798.304 349.225 798.666 346.652L801.162 331.213C801.505 329.307 801.714 327.534 801.924 325.685V237.645L801.771 236.616L799.2 221.158C798.857 218.566 798.247 216.05 797.695 213.534L796.056 205.91L794.418 198.285C793.846 195.788 793.104 193.349 792.513 190.89L788.494 176.271L783.883 162.071C783.083 159.745 782.455 157.363 781.54 155.094L778.93 148.271L776.359 141.523C775.482 139.274 774.701 137.025 773.692 134.871C769.882 126.199 766.319 117.622 762.128 109.616C760.071 105.595 758.166 101.573 756.052 97.7227L749.708 86.458L746.603 80.9686L743.269 75.727L736.849 65.5487C732.506 58.992 728.01 52.9308 723.933 47.022L711.399 30.9922L699.721 17.4402C697.949 15.3055 696.064 13.4376 694.33 11.6078L689.32 6.36616C687.091 3.92642 684.938 1.75353 682.957 -0.190628H682.671C684.71 1.90602 686.881 4.21232 689.186 6.70923Z" fill="#191E21"/>
<path d="M146.436 5.54657L140.969 10.5595C139.064 12.313 137.026 14.1047 135.121 16.1823L122.376 29.2958L108.699 44.9635L101.783 53.8456C100.583 55.3514 99.3831 56.8953 98.183 58.4392C96.9828 59.9831 95.7065 61.527 94.6016 63.2043L87.6293 73.2873L84.0099 78.4907C82.8478 80.2633 81.7429 82.1122 80.5809 83.942L73.6086 95.1876C72.3704 97.0937 71.3989 99.095 70.294 101.077L66.9793 107.1C62.3121 115.068 58.5021 123.759 54.254 132.47C53.1491 134.643 52.349 136.911 51.3393 139.179L48.5009 146.003L45.6434 152.883C44.6338 155.171 43.9289 157.591 43.0526 159.955L37.9854 174.345L33.6039 189.194C32.899 191.69 32.0799 194.187 31.4703 196.818L29.6987 204.442L27.908 212.161C27.2984 214.734 26.6316 217.308 26.2125 219.919L23.3931 235.682C22.8598 238.312 22.5359 241 22.2311 243.687L21.2786 251.75C19.818 262.409 19.2255 273.169 19.507 283.924L20.4595 300.278C20.669 302.965 20.7071 305.672 21.05 308.34L22.0025 316.384L22.936 324.389C23.2217 327.057 23.5074 329.707 24.0218 332.337L26.6697 348.043C27.0507 350.673 27.7175 353.246 28.289 355.82L30.0606 363.444L31.8132 371.068C32.4228 373.603 33.2419 376.081 33.9468 378.578L38.233 393.445L43.2622 407.893C44.1385 410.256 44.8433 412.677 45.8339 414.964L48.6723 421.864L51.4346 428.745C52.3871 431.013 53.2253 433.281 54.3302 435.454L60.5023 448.415C62.4073 452.742 64.8266 456.763 66.9983 460.842C69.17 464.921 71.3417 468.886 73.6658 472.698L80.5999 483.944C81.7429 485.85 82.8478 487.622 84.0099 489.414L87.6293 494.675L94.6587 504.777C99.4403 511.219 104.279 517.223 108.756 523.017L122.414 538.685L135.254 551.799C137.159 553.876 139.197 555.611 141.102 557.517C143.007 559.423 144.912 560.929 146.532 562.53C148.589 564.512 150.608 566.323 152.532 568H152.818C150.913 566.285 148.76 564.398 146.589 562.282C144.874 560.7 143.064 559.023 141.179 557.25C139.293 555.477 137.254 553.705 135.33 551.532L122.681 538.342L109.156 522.579L102.317 513.659C100.012 510.59 97.4972 507.559 95.2493 504.243L88.3532 494.084L84.7909 488.861L81.4762 483.353L74.7135 472.05C72.4466 468.238 70.4845 464.102 68.3318 460.061C63.8741 452.017 60.2166 443.307 56.2351 434.539C55.1874 432.366 54.3302 430.079 53.511 427.811L50.8821 420.949L48.2532 414.03C47.3388 411.743 46.7102 409.303 45.9292 406.94L41.3953 392.644C40.1189 387.746 38.8807 382.771 37.5853 377.796C36.9948 375.28 36.2899 372.802 35.7946 370.172L34.3849 362.548L32.9562 354.924C32.4799 352.351 31.9465 349.797 31.6989 347.185L29.7939 331.537C29.4129 328.944 29.2415 326.295 29.0891 323.665L28.6319 315.755L28.1747 307.825C28.0032 305.195 28.1747 302.527 28.1747 299.896L28.1747 284.133L28.6509 276.109C28.8952 273.442 28.9779 270.762 28.8986 268.085C28.8986 265.416 28.7843 262.71 28.8986 260.098L29.3558 252.245L29.7939 244.392C29.9273 241.762 30.0606 239.151 30.4226 236.54L32.2132 220.91C32.4609 218.299 32.9562 215.745 33.4134 213.172L34.804 205.547L36.2137 197.923C36.709 195.388 37.4139 192.91 38.0044 190.413L41.662 175.546L46.1387 161.118C46.9197 158.754 47.5293 156.314 48.4437 154.027L51.0536 147.089L53.6444 140.227C54.5207 137.959 55.3017 135.672 56.3494 133.499C60.3118 124.712 63.9694 116.021 68.389 107.958C70.5226 103.898 72.5037 99.8193 74.7516 95.9691L81.5143 84.6472C82.6192 82.7412 83.686 80.9495 84.81 79.1388L88.3532 73.9162L95.2493 63.6999C99.9356 57.1812 104.774 51.1772 109.156 45.3447L122.662 29.5627L135.311 16.3919C139.121 12.3321 143.179 8.95838 146.551 5.71811C148.741 3.6024 150.818 1.71542 152.78 -1.26362e-05H152.494C150.608 1.6773 148.589 3.48805 146.436 5.54657Z" fill="#191E21"/>
<path d="M655.411 5.71811L660.821 10.7501C662.726 12.5227 664.726 14.3334 666.65 16.4682L679.299 29.6389L692.825 45.4209L699.645 54.3412C701.931 57.429 704.464 60.4405 706.693 63.7761L713.589 73.9353L717.113 79.1769C718.256 80.9686 719.342 82.8174 720.447 84.6663L727.191 95.9882C728.391 97.8942 729.324 99.9337 730.391 101.916L733.573 107.977C737.992 116.04 741.65 124.731 745.593 133.518C746.622 135.691 747.403 137.997 748.279 140.246L750.889 147.108L753.499 154.046C754.413 156.333 755.023 158.773 755.804 161.137L760.3 175.546C761.595 180.464 762.738 185.439 763.957 190.432C764.529 192.929 765.234 195.407 765.71 197.942L767.1 205.566L768.491 213.191C768.948 215.764 769.463 218.318 769.691 220.929L771.501 236.559C771.863 239.17 771.996 241.8 772.13 244.431L772.587 252.322L773.025 260.232C773.234 262.862 772.93 265.53 773.025 268.161C773.253 273.441 773.596 278.72 773.882 284.019V299.954C773.882 302.622 773.977 305.329 773.882 307.959L773.406 315.831L772.911 323.703C772.777 326.333 772.625 328.944 772.244 331.556L770.339 347.204C770.072 349.816 769.539 352.37 769.062 354.828L767.634 362.453L766.224 370.077C765.71 372.612 765.005 375.09 764.414 377.587L760.604 392.454C759.061 397.295 757.633 402.136 756.051 406.882C755.27 409.246 754.661 411.667 753.727 413.973L751.098 420.892C749.308 425.466 747.727 430.079 745.745 434.482C741.783 443.25 738.126 451.979 733.687 460.004L730.506 466.065C729.42 467.971 728.486 470.106 727.286 471.993L720.523 483.296C719.399 485.202 718.333 487.108 717.19 488.804L713.646 494.027L706.75 504.338C705.664 506.035 704.407 507.559 703.226 509.141L699.683 513.754L692.844 522.693L679.319 538.437L666.746 551.627C662.821 555.687 658.878 559.061 655.487 562.282C653.296 564.398 651.22 566.285 649.258 568H649.544C651.449 566.323 653.506 564.512 655.64 562.453L661.031 557.421C662.936 555.668 664.974 553.895 666.879 551.703L679.623 538.59L693.282 522.922C697.74 517.204 702.616 511.143 707.379 504.662L714.37 494.675L717.99 489.471L721.4 484.001C723.667 480.303 725.991 476.567 728.353 472.755C730.715 468.943 732.696 464.864 734.944 460.842C739.554 452.837 743.402 444.184 747.65 435.454C748.755 433.3 749.555 431.013 750.527 428.745L753.327 421.921L756.185 415.021C757.175 412.734 757.88 410.332 758.737 407.95C760.338 403.185 762.071 398.42 763.748 393.559L768.072 378.711C768.758 376.195 769.558 373.717 770.167 371.087L771.92 363.463L773.692 355.839C774.263 353.266 774.93 350.692 775.292 348.062L777.997 332.299C778.53 329.669 778.816 327 779.102 324.332L780.016 316.269L780.95 308.207C781.312 305.5 781.331 302.851 781.54 300.182L782.493 284.019C782.493 278.606 782.493 273.193 782.493 267.78C782.493 262.366 781.521 256.991 780.873 251.635L779.921 243.611C779.616 240.943 779.292 238.274 778.759 235.644L775.94 219.881C775.52 217.25 774.854 214.696 774.263 212.104L772.453 204.48L770.663 196.856C770.053 194.321 769.234 191.824 768.51 189.232L764.129 174.384L759.08 159.993C758.204 157.63 757.499 155.209 756.49 152.922L753.632 146.041L750.794 139.198C749.86 136.949 749.003 134.662 747.898 132.508C743.612 123.797 739.802 115.125 735.135 107.139C732.906 103.117 730.848 99.0379 728.505 95.2258L721.552 83.9992L718.142 78.5289L714.504 73.3444L707.474 63.2424C702.674 56.7809 697.835 50.7959 693.358 45.0016L679.68 29.334L666.936 16.2204C665.031 14.1428 662.974 12.4083 661.088 10.5976L655.64 5.58467C653.506 3.52615 651.468 1.77258 649.544 0.0380872H649.277C651.144 1.73446 653.182 3.65958 655.411 5.71811Z" fill="#191E21"/>
<path d="M183.545 4.13616L177.545 8.84408C175.468 10.5023 173.22 12.1606 171.087 14.1429L157.009 26.6846L141.769 41.8376L134.149 50.5292L130.168 55.0083C128.834 56.5331 127.386 58.0199 126.167 59.6781L118.338 69.6467L114.299 74.7358C112.985 76.5085 111.746 78.3383 110.489 80.1681L102.736 91.3756C101.364 93.2816 100.24 95.1877 99.0211 97.2462L95.3254 103.288C90.1248 111.256 85.8005 120.042 81.0951 128.829C79.8569 131.002 78.9044 133.328 77.8376 135.615L74.6753 142.534L71.494 149.529C70.351 151.835 69.589 154.313 68.5794 156.715L62.8644 171.372L57.9686 186.62C57.1875 189.175 56.2731 191.71 55.5683 194.245L53.6443 202.04L51.625 209.95C50.9582 212.581 50.1962 215.23 49.72 217.918L46.6148 234.138C46.3862 235.491 46.0624 236.845 45.8719 238.217L45.3385 242.353L44.2527 250.663L43.1668 258.993C42.7668 261.795 42.7477 264.501 42.5001 267.265C42.2524 270.029 42.3286 272.773 42.3096 275.537V284C43.2353 306.145 45.8978 328.183 50.2724 349.911C50.6915 352.617 51.4154 355.248 52.1774 357.897L54.0824 365.788L55.9874 373.66C56.6732 376.252 57.5685 378.787 58.3496 381.284C59.9879 386.392 61.55 391.463 63.2073 396.533L68.808 411.19C69.7795 413.592 70.5415 416.07 71.6845 418.395L74.8658 425.39L78.1043 432.309C79.152 434.596 80.1426 436.922 81.3618 439.095C86.0481 447.9 90.3915 456.649 95.5349 464.635C97.9733 468.676 100.221 472.698 102.869 476.51L110.603 487.718C111.899 489.624 113.099 491.396 114.413 493.169L118.433 498.296L126.262 508.265C128.796 511.524 131.634 514.44 134.225 517.433L141.845 526.105L156.952 541.354L171.087 553.838C173.201 555.744 175.468 557.498 177.564 559.137L183.545 563.845C185.45 565.312 187.146 566.704 188.822 568H189.127C187.374 566.685 185.546 565.255 183.66 563.692C179.85 560.643 175.602 557.517 171.258 553.648L157.276 541.068L142.245 525.819C137.311 520.101 132.015 514.231 126.758 507.864L119.138 497.82L115.175 492.673C113.88 490.901 112.699 489.033 111.365 487.203L103.745 475.938C102.412 474.032 101.345 472.012 100.145 470.01L96.5827 463.93C91.5726 455.887 87.4768 447.062 82.962 438.218C81.8 436.026 80.8856 433.7 79.914 431.394L76.9423 424.437L74.0276 417.423C72.9799 415.097 72.2941 412.62 71.3987 410.199L66.2362 395.503C64.7884 390.49 63.4359 385.401 62.0262 380.255C61.3404 377.701 60.5403 375.166 59.9688 372.631L58.3496 364.797L56.7113 356.925C56.1779 354.295 55.5683 351.664 55.2825 348.996L53.0347 332.928C52.8632 331.575 52.6156 330.241 52.5394 328.887L52.2536 324.827L51.6821 316.67L51.1297 308.531C50.9011 305.824 51.0344 303.079 50.9773 300.354L50.9773 284L51.4916 275.88C51.644 273.136 51.9298 270.372 51.8155 267.627C51.7012 264.882 51.7012 262.081 51.9107 259.393L52.406 251.311L52.9013 243.23L53.149 239.189C53.149 237.855 53.4728 236.501 53.6443 235.167L55.7969 219.195C56.0826 216.507 56.6732 213.877 57.1875 211.246L58.7687 203.375L60.3498 195.541C60.9213 192.948 61.7024 190.413 62.3691 187.917C63.7597 182.808 65.0742 177.719 66.541 172.668L71.6273 157.973C72.5227 155.552 73.2085 153.074 74.2562 150.749L77.228 143.715L80.1426 136.758C81.1142 134.452 82.0476 132.127 83.1906 129.935L89.7628 116.764C91.8202 112.361 94.43 108.339 96.7351 104.203L100.278 98.123C101.479 96.1216 102.564 94.0631 103.898 92.1952L111.518 80.9305C112.794 79.0245 113.956 77.1184 115.328 75.4411L119.271 70.2757L126.891 60.2499C132.13 53.8456 137.464 47.9941 142.379 42.276L157.371 27.0277L171.373 14.4478C173.468 12.4464 175.735 10.7882 177.792 9.11089C179.85 7.43358 181.888 5.88966 183.774 4.38389C185.66 2.87812 187.584 1.41051 189.222 0.0762808H188.898C187.127 1.25803 185.355 2.63038 183.545 4.13616Z" fill="#191E21"/>
<path d="M618.321 4.30762L624.284 9.05364C626.379 10.7119 628.608 12.3702 630.723 14.3715L644.724 26.9323L659.736 42.1806L667.356 50.9103C669.908 53.9409 672.69 56.8762 675.223 60.1355L682.843 70.1804L686.787 75.3457C688.082 77.1183 689.263 78.9863 690.597 80.8352L698.216 92.0999C699.55 94.0059 700.636 96.0263 701.836 98.0276L705.379 104.127C710.389 112.151 714.447 120.995 718.924 129.839C720.086 132.031 720.981 134.357 721.972 136.663L724.905 143.62L727.706 150.577C728.734 152.903 729.42 155.38 730.316 157.801L735.402 172.497C736.888 177.51 738.183 182.618 739.593 187.745C740.241 190.299 741.022 192.834 741.593 195.369L743.193 203.203L744.793 211.075C745.308 213.705 745.917 216.316 746.203 219.004L748.318 235.072C748.47 236.406 748.718 237.74 748.794 239.094L749.061 243.154L749.575 251.292L750.07 259.431C750.204 260.784 750.166 262.138 750.166 263.51V267.589C750.051 270.315 750.375 273.021 750.489 275.747L750.985 283.905V300.316C750.985 303.06 750.985 305.843 750.851 308.531L750.299 316.631L749.746 324.732C749.636 327.438 749.382 330.135 748.984 332.814L746.756 348.977C746.451 351.664 745.841 354.295 745.308 356.925L743.708 364.797L742.088 372.631C741.536 375.242 740.717 377.777 740.05 380.255C738.602 385.344 737.25 390.433 735.783 395.503L730.658 410.199C729.763 412.62 729.058 415.097 727.991 417.423L725.039 424.437L721.991 431.432C721.019 433.738 720.086 436.045 718.905 438.237C714.447 447.1 710.313 455.906 705.303 463.949L701.76 470.03C700.56 471.936 699.474 474.089 698.14 475.957L690.52 487.222C689.282 489.128 688.082 490.92 686.806 492.692C685.529 494.465 684.139 496.142 682.843 497.858L675.223 507.883C672.671 511.143 669.908 514.097 667.356 517.109L659.736 525.838L644.705 541.087L630.723 553.667C628.589 555.573 626.36 557.326 624.284 558.984L618.321 563.711C616.416 565.293 614.607 566.704 612.854 568.019H613.159C614.835 566.723 616.588 565.332 618.436 563.864L624.417 559.156C626.513 557.498 628.78 555.859 630.894 553.857L644.991 541.315L660.098 526.067L667.718 517.395L671.718 512.896C673.033 511.372 674.461 509.885 675.681 508.227L683.51 498.258L687.53 493.112C688.844 491.358 690.044 489.509 691.34 487.679L699.131 476.51C700.483 474.604 701.607 472.698 702.941 470.62L706.598 464.578C711.761 456.573 716.123 447.805 720.791 439.018C722.01 436.845 722.962 434.52 724.01 432.233L727.153 425.295L730.335 418.319C731.459 415.993 732.24 413.515 733.211 411.114L738.774 396.456C740.412 391.443 741.955 386.373 743.574 381.208C744.355 378.654 745.251 376.119 745.936 373.584L747.841 365.731L749.842 357.84C750.489 355.21 751.232 352.56 751.651 349.873L754.642 333.671C754.871 332.299 755.195 330.965 755.366 329.592L755.881 325.456L756.928 317.184L757.976 308.855C758.338 306.072 758.357 303.346 758.567 300.602L759.576 283.943V275.575C759.576 272.773 759.671 269.991 759.386 267.208C759.1 264.425 759.1 261.623 758.7 258.859L757.633 250.587L756.547 242.334L756.014 238.217C755.842 236.845 755.519 235.491 755.271 234.138L752.147 217.937C751.728 215.23 750.985 212.6 750.242 209.95L748.241 202.04L746.337 194.187C745.632 191.576 744.717 189.06 743.917 186.563C742.279 181.474 740.66 176.404 739.021 171.315C737.383 166.226 735.211 161.499 733.306 156.657C732.335 154.256 731.554 151.778 730.411 149.453L727.21 142.476L724.048 135.558C723 133.27 722.029 130.945 720.791 128.772C716.066 119.966 711.704 111.236 706.56 103.231L702.941 97.208C701.703 95.302 700.579 93.1863 699.131 91.3374L691.359 80.1299C690.082 78.3192 688.863 76.4703 687.549 74.6977L683.529 69.5704L675.7 59.6209C673.128 56.3616 670.308 53.4453 667.718 50.4528L660.098 41.7804L644.953 26.6273L630.875 14.1046C626.532 10.2926 622.169 7.14759 618.417 4.09793C616.607 2.59215 614.835 1.21984 613.159 -0.0381486H612.835C614.607 1.3342 616.416 2.78279 618.321 4.30762Z" fill="#191E21"/>
<path d="M226.579 1.90603C216.268 8.30892 206.292 15.237 196.69 22.6628C184.265 32.3102 172.539 42.826 161.6 54.1315C148.649 67.5223 136.787 81.927 126.129 97.208C114.249 114.354 103.957 132.55 95.3826 151.568C93.0395 156.486 91.0392 161.575 88.9056 166.664C87.896 169.237 87.0007 171.849 85.972 174.441L84.5051 178.367L83.1716 182.332C79.476 192.91 76.447 203.851 73.6467 214.982C70.8464 226.114 68.9223 237.512 67.265 249.024L66.1601 257.697C65.76 260.575 65.5695 263.529 65.2838 266.445C64.8497 272.236 64.786 278.049 65.0933 283.848C65.6267 295.684 66.4077 307.216 67.9698 318.747C69.5319 330.279 71.4559 341.62 74.142 352.77C76.828 363.92 79.8569 374.823 83.4383 385.401L84.7528 389.385L86.2006 393.197C87.1912 395.808 88.1055 398.401 89.1152 400.974C91.2107 406.082 93.2109 411.171 95.5159 416.089C104.067 435.172 114.346 453.431 126.224 470.639C136.865 485.959 148.707 500.408 161.638 513.849C172.583 525.166 184.301 535.706 196.709 545.394C206.293 552.817 216.264 559.727 226.579 566.094L229.627 568H229.989L226.693 565.999C216.404 559.577 206.465 552.61 196.918 545.128C184.561 535.41 172.923 524.81 162.095 513.411C149.291 499.915 137.636 485.372 127.253 469.934C115.741 452.691 105.928 434.371 97.9543 415.231C95.8017 410.294 93.9729 405.186 92.0489 400.078C91.1154 397.505 90.2772 394.893 89.4009 392.282L88.0865 388.47L86.9054 384.486C83.6641 373.792 81.031 362.923 79.0188 351.931L77.5519 343.583L76.3899 335.177C75.9708 332.375 75.685 329.459 75.3993 326.733C75.1135 324.008 74.7706 321.015 74.6182 318.252L74.1039 309.712C73.9134 306.872 73.9324 303.994 73.8372 301.173C73.7419 298.352 73.6848 295.455 73.8372 292.634C73.9896 289.813 73.8372 286.916 73.9705 284.172C74.1039 281.427 74.3515 278.453 74.4658 275.537L74.7706 266.998C74.7706 264.177 74.7706 261.375 74.9421 258.535L75.3802 250.015C75.5326 247.175 75.8946 244.297 76.1232 241.552C76.3518 238.808 76.6375 235.834 77.0376 233.109L78.1425 224.703L79.5712 216.374C81.53 205.376 84.1187 194.5 87.3245 183.799L88.4865 179.835L89.7819 175.908C90.6582 173.316 91.4774 170.705 92.3918 168.132C94.2968 163.024 96.2017 157.896 98.2401 152.883C106.187 133.74 115.961 115.408 127.425 98.142C137.757 82.6964 149.361 68.1408 162.114 54.6271C172.941 43.2158 184.58 32.6032 196.938 22.8725C206.466 15.3803 216.4 8.41901 226.693 2.02039C227.817 1.31515 228.922 0.648041 229.989 -1.26362e-05H229.589L226.579 1.90603Z" fill="#191E21"/>
<path d="M575.306 2.02041C585.599 8.42958 595.539 15.3904 605.081 22.8725C617.438 32.5981 629.07 43.211 639.885 54.6271C652.664 68.1274 664.287 82.6771 674.633 98.123C686.118 115.376 695.892 133.711 703.817 152.864C705.97 157.801 707.779 162.909 709.684 168.113C710.599 170.686 711.418 173.297 712.294 175.889L713.589 179.816L714.752 183.78C717.931 194.487 720.513 205.362 722.486 216.355L723.915 224.684L725.019 233.09C725.439 235.892 725.686 238.713 725.953 241.533C726.22 244.354 726.543 247.156 726.696 249.996L727.096 258.516C727.267 261.356 727.096 264.234 727.324 267.036L727.686 275.556L728.144 284C728.372 295.627 728.258 306.873 727.401 318.309C727.229 321.149 726.867 324.027 726.601 326.791C726.334 329.554 726.048 332.509 725.629 335.234L724.467 343.659L722.981 351.989C718.919 373.733 712.579 394.988 704.065 415.403C696.06 434.477 686.242 452.738 674.747 469.934C664.358 485.363 652.71 499.905 639.924 513.411C629.082 524.796 617.445 535.395 605.1 545.128C595.54 552.6 585.595 559.566 575.306 565.999L572.011 567.905H572.373L575.421 565.999C585.73 559.602 595.7 552.674 605.291 545.242C617.712 535.563 629.431 525.015 640.362 513.678C653.312 500.261 665.155 485.817 675.775 470.487C687.619 453.335 697.866 435.132 706.389 416.108C708.713 411.19 710.694 406.082 712.808 400.993C713.818 398.42 714.713 395.827 715.723 393.216L717.171 389.404L718.504 385.42C722.144 374.733 725.216 363.859 727.705 352.846C730.353 341.715 732.296 330.317 733.878 318.823C735.459 307.33 736.335 295.436 736.792 284C737.06 278.137 737.002 272.264 736.621 266.407C736.278 260.575 735.402 254.8 734.716 249.024C733.058 237.588 731.077 226.152 728.334 214.982C725.591 203.813 722.619 192.91 718.809 182.332L717.476 178.367L716.009 174.441C715.018 171.849 714.104 169.237 713.056 166.664C710.922 161.575 708.941 156.486 706.617 151.568C698.026 132.562 687.742 114.369 675.89 97.2081C665.217 81.9091 653.35 67.4796 640.4 54.0553C629.448 42.7329 617.716 32.1921 605.291 22.5103C595.7 15.1254 585.73 8.24785 575.421 1.90606L572.373 1.57501e-05H572.011C573.078 0.64807 574.182 1.31518 575.306 2.02041Z" fill="#191E21"/>
<path d="M249.763 14.6193C234.848 22.9865 220.635 32.548 207.263 43.2099C191.517 55.964 176.977 70.1412 163.829 85.5621C149.203 102.875 136.433 121.677 125.729 141.657C122.853 146.803 120.319 152.197 117.709 157.591C116.414 160.298 115.271 163.081 114.052 165.845L112.147 170L110.489 174.231C105.892 185.663 101.967 197.354 98.7356 209.245C95.4079 221.357 92.7873 233.653 90.887 246.07C88.6965 258.556 87.7774 271.233 88.1438 283.905L88.6391 293.435C88.7534 296.618 89.0773 299.763 89.3821 302.965C89.6869 306.167 89.8964 309.274 90.3345 312.495L91.5728 321.873C91.9728 325.018 92.6205 328.106 93.1158 331.194L93.935 335.844C94.2207 337.388 94.5827 338.913 94.9065 340.457L96.8115 349.625L99.0594 358.641C102.244 370.526 106.131 382.211 110.699 393.635C115.037 404.804 120.056 415.695 125.729 426.248C128.396 431.508 131.444 436.483 134.359 441.496C137.273 446.509 140.379 451.312 143.674 455.925L148.589 462.882L153.599 469.572L156.095 472.87L158.686 476.053L163.829 482.381C176.982 497.799 191.535 511.964 207.301 524.695C220.669 535.363 234.882 544.925 249.801 553.285C259.464 558.742 269.423 563.655 279.633 568H280.033C269.702 563.632 259.634 558.668 249.877 553.133C235.022 544.712 220.895 535.066 207.644 524.294C191.972 511.509 177.567 497.243 164.629 481.694C150.282 464.303 137.937 445.353 127.825 425.199C111.456 392.656 101.3 357.343 97.8783 321.072C96.7569 308.781 96.3752 296.433 96.7353 284.095C97.6307 271.439 97.4592 259.317 98.545 247.004C98.7355 243.935 99.2118 240.885 99.5356 237.817C99.8595 234.748 100.26 231.717 100.793 228.687L102.279 219.595L104.184 210.598C109.291 187.145 117.303 164.421 128.034 142.953C130.53 137.654 133.444 132.622 136.188 127.571C137.635 125.093 139.115 122.647 140.626 120.233L142.874 116.535L145.217 113.009L149.884 106.014L154.761 99.2856L157.181 95.95L159.714 92.7288L164.743 86.3627C177.639 70.8022 192.006 56.5233 207.644 43.7246C220.916 32.9541 235.062 23.308 249.934 14.8862C259.674 9.35156 269.724 4.38132 280.033 -1.26362e-05H279.557C269.36 4.31069 259.413 9.19152 249.763 14.6193Z" fill="#191E21"/>
<path d="M552.085 14.8862C566.946 23.3156 581.085 32.9613 594.356 43.7246C609.997 56.527 624.369 70.8055 637.276 86.3627C644.261 94.9027 650.786 103.81 656.821 113.047L659.126 116.535L661.317 120.195C662.784 122.635 664.308 125.055 665.736 127.552C668.479 132.603 671.451 137.616 673.909 142.896C684.675 164.379 692.719 187.122 697.854 210.598L699.759 219.595L701.245 228.687C701.474 230.192 701.76 231.698 701.95 233.223L702.483 237.817C702.788 240.885 703.245 243.935 703.455 247.004C704.693 259.26 704.236 271.782 705.36 283.905C705.656 296.306 705.262 308.715 704.179 321.072C703.969 324.16 703.512 327.21 703.169 330.279C702.826 333.347 702.426 336.397 701.874 339.428L700.331 348.519L698.426 357.516C693.169 380.988 685.036 403.721 674.213 425.199C664.115 445.356 651.775 464.308 637.428 481.694C624.472 497.246 610.048 511.512 594.356 524.294C581.085 535.057 566.946 544.703 552.085 553.133C542.341 558.666 532.285 563.63 521.967 568L522.443 568C532.65 563.676 542.609 558.789 552.275 553.362C567.192 544.999 581.406 535.437 594.775 524.771C610.514 512.007 625.041 497.817 638.171 482.381L643.315 476.053L645.905 472.87L648.401 469.572L653.411 462.882L658.212 455.925L660.631 452.437L662.936 448.815L667.546 441.496C670.442 436.502 673.451 431.489 676.157 426.248C678.862 421.006 681.51 415.688 684.138 410.294C685.434 407.588 686.577 404.805 687.796 402.041L689.568 397.886L691.244 393.635C695.852 382.213 699.758 370.52 702.941 358.621C706.192 346.524 708.736 334.247 710.561 321.854C712.386 309.308 713.511 296.671 713.932 284C713.932 277.462 714.504 271.21 713.513 264.844C713.151 261.699 712.98 258.535 712.523 255.314L711.208 245.898C710.789 242.772 710.122 239.685 709.589 236.578C709.056 233.471 708.484 230.364 707.684 227.314L705.646 218.127L703.265 209.074C700.035 197.245 696.11 185.617 691.511 174.25L689.853 170L687.948 165.845C686.71 163.081 685.586 160.298 684.272 157.591C681.605 152.216 679.147 146.803 676.271 141.657C665.567 121.677 652.797 102.875 638.171 85.5621C624.994 70.1587 610.422 56.0066 594.642 43.2861C581.273 32.6199 567.059 23.0582 552.142 14.6955C542.506 9.24305 532.572 4.33681 522.386 -1.26362e-05H521.967C532.283 4.38065 542.339 9.3509 552.085 14.8862V14.8862Z" fill="#191E21"/>
<path d="M368.653 568C362.672 567.238 356.709 566.57 350.88 565.389C347.965 564.836 345.031 564.417 342.155 563.769C339.278 563.121 336.44 562.434 333.582 561.863L329.315 560.852L325.105 559.671C322.324 558.87 319.543 558.089 316.761 557.288C313.98 556.488 311.313 555.382 308.608 554.543C305.903 553.705 303.16 552.809 300.55 551.703C280.096 543.91 260.587 533.833 242.391 521.664C210.589 500.167 183.501 472.409 162.781 440.086C154.137 426.731 146.722 412.619 140.626 397.924C139.083 394.588 137.864 391.196 136.626 387.879C135.387 384.563 134.149 381.361 133.197 378.12L130.225 368.723L127.825 359.651C123.134 341.411 120.419 322.72 119.728 303.899C119.328 297.419 119.614 292.463 119.557 289.07V284.095L119.919 278.968C120.033 277.272 120.148 275.156 120.243 272.659C120.338 270.162 120.243 267.284 120.452 264.082C121.606 231.807 128.556 200.003 140.969 170.19C142.436 166.836 143.846 163.348 145.446 159.879L150.589 149.357C152.494 145.85 154.399 142.343 156.457 138.722C157.409 136.911 158.495 135.138 159.619 133.366L162.972 127.991C183.672 95.7208 210.719 68.0036 242.467 46.5264C260.655 34.3396 280.166 24.2558 300.626 16.4682C322.539 8.20232 345.387 2.67118 368.653 -1.26362e-05H369.206H367.663C364.996 0.343075 362.329 0.68616 359.681 1.01019C358.195 1.18173 356.709 1.41049 355.261 1.69639L350.861 2.4588C347.927 3.01155 344.993 3.43089 342.117 4.07894L333.525 6.08026L329.258 7.07138L325.048 8.25312C322.248 9.03459 319.466 9.83517 316.685 10.6166C311.218 12.5227 305.751 14.1428 300.455 16.1823C258.25 32.2872 220.3 57.8658 189.527 90.9497C158.753 124.033 135.976 163.741 122.948 207.015L121.576 211.399C121.157 212.848 120.814 214.296 120.452 215.707L118.3 223.998C117.004 229.373 116.071 234.481 115.042 239.246L112.928 252.474C112.28 256.534 111.994 260.308 111.575 263.643C110.87 268.655 110.615 273.72 110.813 278.777L110.813 283.924V284L111.099 289.223C111.366 292.672 111.404 297.781 112.261 304.471C114.02 323.616 117.722 342.533 123.31 360.928C136.032 404.303 158.657 444.126 189.4 477.251C220.144 510.377 258.162 535.897 300.455 551.799C322.121 559.895 344.688 565.335 367.663 568H369.168H368.653Z" fill="#191E21"/>
<path d="M442.586 1.2389C455.247 3.10321 467.767 5.82881 480.057 9.39675C486.306 11.0169 492.382 13.3232 498.574 15.3627C501.622 16.4872 504.632 17.7643 507.68 18.946L512.251 20.7568L516.709 22.8725C541.12 33.7419 563.859 48.0346 584.241 65.32L591.861 72.0102C594.376 74.2784 596.757 76.6991 599.233 79.0435C600.452 80.2252 601.672 81.3879 602.872 82.6078L606.377 86.3245C608.663 88.8405 611.12 91.2231 613.311 93.8343C622.335 104.145 630.611 115.088 638.076 126.58L643.543 135.348C645.315 138.302 646.915 141.352 648.611 144.363C649.449 145.869 650.325 147.356 651.125 148.9L653.411 153.551C654.878 156.657 656.535 159.707 657.869 162.89C663.547 175.525 668.253 188.575 671.947 201.926C675.632 215.284 678.276 228.909 679.852 242.677L680.824 253.008C681.186 256.458 681.167 259.927 681.357 263.377L681.605 268.542C681.605 270.277 681.605 271.992 681.738 273.726L682.31 283.962C682.7 297.856 682.101 311.761 680.519 325.571C680.157 329.021 679.509 332.432 679.014 335.863L678.233 341.01L677.185 346.099C676.461 349.492 675.871 352.922 675.033 356.296L672.461 366.284C664.922 392.958 653.401 418.341 638.285 441.572C630.777 453.062 622.463 464.005 613.406 474.318C604.364 484.476 594.632 493.997 584.279 502.813C563.872 520.039 541.129 534.285 516.728 545.128L512.251 547.167L507.68 549.073C504.632 550.274 501.622 551.532 498.555 552.656C492.363 554.658 486.306 557.002 480.057 558.622C467.768 562.193 455.248 564.912 442.586 566.761C439.309 567.161 436.052 567.619 432.794 568H434.337C437.081 567.657 439.843 567.295 442.624 566.952C455.271 565.096 467.778 562.383 480.057 558.832C486.325 557.212 492.421 555.02 498.612 552.904C501.66 551.761 504.689 550.522 507.756 549.359L512.328 547.453L516.823 545.432C541.325 534.627 564.212 520.477 584.832 503.385L592.451 496.752C595.004 494.503 597.424 492.101 599.919 489.776L603.634 486.25L607.196 482.571C609.539 480.074 612.016 477.692 614.245 475.1L621.026 467.361C623.274 464.75 625.351 462.005 627.522 459.318L630.742 455.277L633.79 451.083L636.819 446.871C637.847 445.48 638.876 444.088 639.79 442.621L645.505 433.91C647.41 430.994 649.049 427.925 650.858 424.952C651.735 423.446 652.649 421.978 653.506 420.453L655.945 415.822C657.526 412.734 659.317 409.703 660.764 406.52L665.222 396.99C666.613 393.788 667.908 390.51 669.28 387.288C669.946 385.668 670.651 384.048 671.185 382.409L672.956 377.453C674.099 374.137 675.433 370.858 676.423 367.485C680.736 354.019 684.135 340.277 686.596 326.352C688.921 312.363 690.384 298.245 690.977 284.076V273.269C690.93 269.704 690.662 266.146 690.177 262.614C689.739 259.069 689.53 255.524 688.901 251.998L687.225 241.476C686.634 237.969 685.796 234.5 685.091 231.031L683.986 225.828L682.634 220.7C681.738 217.27 680.957 213.82 679.948 210.427L676.823 200.306C675.814 196.932 674.461 193.673 673.299 190.337L671.489 185.381C670.861 183.742 670.137 182.141 669.47 180.521C668.06 177.281 666.803 174.002 665.355 170.819L660.86 161.289C654.756 148.83 647.812 136.8 640.076 125.284C638.171 122.387 636.057 119.661 634.037 116.84L631.008 112.647C629.961 111.275 628.856 109.94 627.77 108.587C625.598 105.919 623.541 103.155 621.274 100.563L614.454 92.8241C605.221 82.757 595.325 73.3201 584.832 64.5766C564.233 47.4644 541.366 33.2886 516.881 22.4531L512.385 20.4327L507.813 18.6411C504.765 17.4403 501.717 16.2204 498.669 15.0768C492.478 13.0564 486.382 10.7882 480.133 9.14896C467.834 5.60427 455.309 2.89784 442.643 1.04829C439.862 0.705199 437.1 0.343075 434.357 -1.26362e-05H432.813C436.052 0.381195 439.309 0.838633 442.586 1.2389Z" fill="#191E21"/>
<path d="M133.768 283.886L133.768 279.14C133.55 274.486 133.761 269.822 134.397 265.206C137.499 234.948 145.584 205.412 158.324 177.795C164.454 164.325 171.706 151.395 180.002 139.141C211.161 92.6593 256.078 57.1013 308.456 37.4537C328.685 29.9239 349.758 24.8929 371.206 22.4723C373.949 22.053 376.731 21.9005 379.512 21.6908C382.293 21.4812 385.093 21.2715 387.894 21.0809C390.694 20.8903 393.609 20.9475 396.352 20.8712L400.6 20.7759C402.029 20.7759 403.439 20.7759 404.867 20.7759L413.44 20.9856C416.297 21.0809 419.155 21.3859 422.031 21.5765C427.746 21.8814 433.461 22.7582 439.309 23.4825C450.961 25.1918 462.487 27.6752 473.809 30.916C479.524 32.4218 485.239 34.4994 490.954 36.3673C493.773 37.3966 496.554 38.5593 499.374 39.6267L503.584 41.304L507.718 43.21C530.235 53.1858 551.268 66.2255 570.22 81.9598L577.345 88.0591C579.688 90.1367 581.936 92.3286 584.241 94.4634L587.651 97.7227L590.946 101.02C593.118 103.307 595.404 105.48 597.462 107.882L603.729 114.991C605.824 117.374 607.729 119.928 609.73 122.387L612.721 126.199L615.54 130.011C617.445 132.603 619.35 135.119 621.102 137.788L626.398 145.793C628.113 148.5 629.675 151.302 631.351 154.027C632.171 155.419 633.009 156.772 633.809 158.182L636.076 162.433C637.543 165.273 639.2 168.056 640.533 170.991C646.287 182.616 651.227 194.628 655.316 206.939C659.329 219.35 662.511 232.015 664.841 244.85L666.403 254.552C666.975 257.792 667.127 261.07 667.622 264.33C667.851 265.95 668.022 267.589 668.137 269.228C668.251 270.867 668.137 272.507 668.137 274.146V284L667.622 293.778C667.527 296.98 667.146 300.278 666.784 303.556C666.422 306.834 666.194 310.151 665.641 313.372L664.117 323.055C661.873 335.881 658.742 348.536 654.745 360.928C653.83 364.054 652.592 367.046 651.544 370.115L649.887 374.67C649.315 376.195 648.649 377.663 647.982 379.169C646.686 382.123 645.62 385.173 644.172 388.108L640.057 396.857C638.724 399.773 637.085 402.575 635.599 405.415L633.352 409.665C632.571 411.057 631.713 412.429 630.894 413.801C629.237 416.546 627.694 419.348 625.96 422.035L621.026 430.06C613.83 440.544 605.925 450.524 597.366 459.928C588.902 469.21 579.813 477.903 570.163 485.945C551.21 501.697 530.162 514.738 507.622 524.695L503.488 526.601L499.278 528.24C496.459 529.326 493.678 530.489 490.877 531.518C485.162 533.424 479.562 535.483 473.733 536.97C462.422 540.235 450.902 542.725 439.252 544.422C433.537 545.147 427.727 545.985 421.974 546.328C419.098 546.519 416.259 546.824 413.383 546.919C410.506 547.015 407.668 547.072 404.81 547.148C403.381 547.148 401.972 547.243 400.543 547.148L396.295 547.053L387.856 546.824C385.036 546.633 382.255 546.424 379.455 546.214C376.654 546.004 373.892 545.852 371.149 545.433C349.702 543.042 328.632 538.01 308.418 530.451C256.082 510.799 211.228 475.213 180.174 428.707C171.88 416.475 164.646 403.556 158.552 390.09C157.028 387.002 155.847 383.857 154.571 380.827C153.295 377.796 152.037 374.842 151.028 371.849L147.884 363.196L145.294 354.809C140.171 337.86 136.75 320.441 135.083 302.813C134.302 296.694 134.264 291.986 134.035 288.822L133.768 284V283.886ZM142.455 284V288.67C142.455 291.739 142.227 296.294 142.608 302.279C143.196 319.576 145.674 336.756 149.999 353.513L152.19 361.843L154.914 370.496C155.771 373.489 156.933 376.424 158.076 379.455C159.219 382.485 160.324 385.63 161.734 388.699C167.336 402.207 174.132 415.187 182.041 427.487C201.073 457.166 225.951 482.653 255.154 502.394C289.849 525.781 329.674 540.441 371.244 545.128C373.987 545.528 376.769 545.68 379.55 545.909C382.331 546.138 385.113 546.309 387.913 546.519C390.713 546.729 393.628 546.652 396.371 546.729L400.619 546.843C402.029 546.843 403.439 546.843 404.867 546.748C407.706 546.748 410.582 546.595 413.421 546.538C416.259 546.481 419.136 546.119 422.012 545.928C427.727 545.642 433.442 544.708 439.252 544.022C450.89 542.313 462.398 539.811 473.694 536.531C479.409 535.026 485.124 532.929 490.725 531.023C493.525 529.975 496.307 528.85 499.107 527.744L503.298 526.067L507.432 524.161C553.056 503.817 591.839 470.724 619.121 428.859C632.972 407.475 643.524 384.124 650.42 359.594L652.84 350.349C653.602 347.262 654.154 344.117 654.745 340.991L655.716 336.302L656.44 331.575C656.897 328.43 657.488 325.285 657.831 322.045L658.726 312.514C659.088 309.35 659.069 306.186 659.259 302.984C659.45 299.782 659.583 296.713 659.507 293.454V283.924L659.012 274.394C658.917 271.211 658.478 268.066 658.497 264.863C658.497 263.281 658.497 261.699 658.345 260.117C658.193 258.535 658.212 256.934 658.04 255.352L657.145 245.822C655.689 233.174 653.282 220.654 649.944 208.368C649.582 206.824 649.087 205.3 648.591 203.794L647.182 199.238L645.753 194.683C645.258 193.177 644.667 191.69 644.134 190.204C643.029 187.211 642 184.2 640.819 181.264L637.009 172.497C611.088 115.128 564.951 69.3252 507.413 43.839L503.298 41.933L499.088 40.2556C496.288 39.1501 493.506 38.0256 490.706 36.9582C484.991 35.0522 479.429 32.9555 473.694 31.4688C462.403 28.1651 450.894 25.6558 439.252 23.959C416.722 20.6904 393.867 20.3253 371.244 22.8726C365.739 23.5778 360.271 24.1877 354.918 25.2742C352.232 25.7698 349.527 26.17 346.879 26.7609C344.231 27.3518 341.622 27.9998 338.993 28.6669L335.068 29.5818L331.259 30.6873C328.706 31.4116 326.134 32.155 323.639 32.8793C321.143 33.6036 318.628 34.5756 316.133 35.4143C313.637 36.2529 311.142 37.0344 308.742 38.0446C289.923 45.1809 271.982 54.4473 255.269 65.6631C226.095 85.4198 201.261 110.929 182.288 140.628C174.348 152.924 167.532 165.913 161.924 179.435C160.533 182.503 159.486 185.648 158.343 188.679C157.2 191.71 156.076 194.664 155.219 197.637L152.513 206.291L150.494 214.62C146.264 231.336 143.881 248.466 143.389 265.702L143.141 273.574C143.141 275.88 142.912 277.805 142.817 279.292L142.493 284.038L142.455 284Z" fill="#191E21"/>
<path d="M156.628 283.886V279.559C156.628 278.129 156.628 276.357 156.628 274.241C156.613 271.759 156.792 269.28 157.162 266.827C157.543 264.006 157.752 260.823 158.305 257.411L160.21 246.241C161.048 242.258 161.829 237.95 162.934 233.433L164.744 226.438C165.067 225.256 165.353 224.036 165.696 222.816L166.858 219.118C177.789 182.652 196.997 149.206 222.98 121.393C248.964 93.5802 281.02 72.1523 316.647 58.7823C335.125 51.9023 354.375 47.3127 373.968 45.116C376.483 44.7348 379.017 44.6013 381.588 44.4107C384.16 44.2201 386.675 44.0296 389.208 43.8389L396.924 43.6674L400.733 43.5721C402.048 43.5721 403.324 43.5721 404.639 43.5721L412.449 43.7437C415.059 43.839 417.669 44.1248 420.298 44.2964C425.575 44.5823 430.794 45.4019 436.09 46.0119C446.739 47.5759 457.271 49.849 467.618 52.8164C472.875 54.1697 478 56.0948 483.219 57.7912C485.791 58.7251 488.325 59.7925 490.839 60.7837L494.649 62.2894L498.459 63.9667C519.041 73.0638 538.272 84.955 555.609 99.3047L562.181 104.832C564.334 106.738 566.353 108.759 568.468 110.684C569.534 111.675 570.582 112.59 571.611 113.638L574.621 116.745C576.526 118.823 578.678 120.824 580.583 122.997C588.405 131.589 595.635 140.701 602.224 150.272L607.082 157.572C608.663 160.031 610.092 162.604 611.616 165.101C612.378 166.359 613.159 167.598 613.883 168.913L615.959 172.725C617.331 175.337 618.817 177.891 620.017 180.559C625.271 191.177 629.79 202.144 633.542 213.381L636.266 222.035C637.123 224.894 637.79 227.753 638.571 230.669L639.695 235.015L640.629 239.399C641.238 242.315 641.962 245.231 642.534 248.186L643.962 257.068C644.496 260.022 644.686 263.015 645.048 266.007C645.201 267.494 645.353 268.999 645.467 270.486C645.582 271.973 645.467 273.498 645.467 275.004L645.467 284C643.967 331.711 628.878 378.001 601.976 417.423C595.403 426.997 588.199 436.122 580.412 444.736C578.507 446.909 576.45 448.911 574.468 450.988L571.497 454.152L568.372 457.126C566.277 459.032 564.239 461.09 562.105 462.977C559.971 464.864 557.743 466.789 555.59 468.543C538.256 482.902 519.025 494.8 498.44 503.9L494.63 505.596L490.82 507.102C488.249 508.112 485.696 509.103 483.2 510.095C477.981 511.772 472.875 513.716 467.599 515.069C457.26 518.038 446.733 520.305 436.09 521.855C430.794 522.503 425.555 523.303 420.298 523.589C417.688 523.761 415.059 524.047 412.449 524.142C409.839 524.237 407.229 524.275 404.639 524.333C403.324 524.333 402.048 524.333 400.733 524.333L396.924 524.237C394.352 524.237 391.78 524.104 389.208 524.047L381.588 523.475C379.036 523.284 376.502 523.151 373.968 522.77C368.939 522.141 363.948 521.55 359.033 520.597C356.576 520.139 354.118 519.777 351.699 519.224L344.46 517.566L340.879 516.747L337.335 515.736C334.992 515.069 332.649 514.421 330.306 513.83C325.715 512.286 321.105 510.876 316.666 509.161C281.103 495.741 249.115 474.289 223.194 446.476C197.273 418.662 178.118 385.238 167.22 348.805C162.471 333.284 159.324 317.317 157.828 301.154C157.124 295.57 157.085 291.262 156.857 288.365L156.628 283.962V283.886ZM165.315 284V288.25C165.315 291.052 165.125 295.227 165.467 300.659C166.002 316.427 168.244 332.091 172.154 347.376L174.059 355L176.554 362.891C177.355 365.598 178.459 368.285 179.45 371.049C180.441 373.813 181.469 376.767 182.765 379.493C187.838 391.821 194.023 403.662 201.243 414.869C218.591 441.968 241.277 465.245 267.918 483.277C283.17 493.512 299.53 501.99 316.685 508.551C335.092 515.496 354.288 520.132 373.835 522.35C376.35 522.713 378.883 522.846 381.455 523.056C384.027 523.265 386.541 523.437 389.075 523.608C391.609 523.78 394.218 523.742 396.79 523.818L400.6 523.913C401.876 523.913 403.172 523.913 404.41 523.913C407.001 523.913 409.611 523.78 412.221 523.704C414.83 523.627 417.44 523.341 420.05 523.17C425.308 522.884 430.528 522.084 435.804 521.435C446.42 519.871 456.916 517.578 467.218 514.574C472.456 513.182 477.581 511.295 482.762 509.561C485.315 508.608 487.849 507.54 490.382 506.549L494.192 505.024L498.002 503.309C508.158 498.781 517.98 493.539 527.396 487.622C529.739 486.097 532.082 484.554 534.445 483.029L541.303 478.13C543.646 476.529 545.836 474.757 548.046 473.003C550.256 471.249 552.523 469.534 554.618 467.628C563.351 460.208 571.538 452.169 579.117 443.574L584.698 437.036C586.603 434.844 588.203 432.481 589.994 430.231C590.896 429.101 591.772 427.957 592.623 426.801L595.099 423.255C596.7 420.873 598.433 418.566 599.938 416.108C612.593 396.615 622.227 375.319 628.513 352.942C631.569 341.719 633.816 330.292 635.237 318.747L636.114 310.075C636.457 307.197 636.457 304.357 636.647 301.44C637.104 295.722 636.8 289.642 636.8 284L635.809 266.674C635.638 263.796 635.676 260.956 635.352 258.002L634.552 249.348C633.238 237.822 631.06 226.411 628.037 215.211C627.351 212.39 626.379 209.664 625.56 206.863L624.265 202.707C623.808 201.335 623.274 200.001 622.798 198.628C621.769 195.922 620.893 193.177 619.731 190.49L616.34 182.484C611.571 171.937 606.051 161.745 599.824 151.988C575.066 113.685 539.727 83.3988 498.097 64.8054L494.287 63.09L490.477 61.5461C487.906 60.5549 485.372 59.5066 482.858 58.5536C477.676 56.8191 472.571 54.894 467.332 53.5216C457.024 50.5217 446.522 48.2354 435.9 46.6789C415.347 43.6735 394.493 43.3339 373.854 45.6687C368.825 46.3168 363.834 46.9077 358.938 47.8797C356.5 48.3372 354.042 48.6993 351.623 49.233C349.204 49.7667 346.803 50.3576 344.422 50.9294L340.841 51.7681L337.316 52.7592L330.325 54.7606C325.734 56.3235 321.162 57.7721 316.723 59.4875C299.566 66.023 283.215 74.5097 267.994 84.7807C241.39 102.817 218.763 126.118 201.51 153.246C188.284 174.02 178.541 196.818 172.668 220.739L171.754 224.379C171.468 225.599 171.259 226.8 171.011 227.982L169.62 234.843C168.82 239.303 168.287 243.516 167.715 247.404C167.144 251.292 166.991 255.028 166.668 258.288C166.344 261.547 166.363 264.597 166.248 267.284C166.058 272.583 165.867 276.929 165.658 279.75L165.353 284.076L165.315 284Z" fill="#191E21"/>
<path d="M179.488 283.886V279.978V275.156C179.468 272.906 179.608 270.658 179.907 268.428C180.25 265.874 180.479 262.976 180.955 259.889C181.431 256.801 181.984 253.408 182.631 249.767C183.279 246.127 184.117 242.258 185.108 238.141L186.765 231.813C187.051 230.745 187.318 229.621 187.642 228.515L188.689 225.18C198.613 192.164 216.026 161.888 239.57 136.714C263.114 111.54 292.152 92.1493 324.42 80.0537C341.166 73.8458 358.604 69.6921 376.35 67.6835C378.617 67.3594 380.922 67.226 383.227 67.0544L390.161 66.5398C392.485 66.5398 394.828 66.4254 397.152 66.3873L400.676 66.292C401.876 66.292 403.019 66.292 404.201 66.292C406.563 66.292 408.906 66.3873 411.268 66.4445C413.63 66.5017 416.011 66.7876 418.393 66.9401C423.155 67.2069 427.918 67.9312 432.68 68.5031C442.328 69.9257 451.873 71.9759 461.255 74.6405C466.036 75.8604 470.666 77.6139 475.39 79.1387C477.733 79.9774 480.019 80.9495 482.362 81.8453L485.848 83.1986L489.277 84.7234C507.941 92.9481 525.389 103.697 541.131 116.669C549.132 123.325 556.691 130.494 563.762 138.131C570.853 145.91 577.415 154.156 583.403 162.814C589.394 171.608 594.797 180.79 599.576 190.299L603.043 197.523C604.167 199.963 605.139 202.46 606.205 204.918L607.749 208.73L609.158 212.543C610.054 215.078 611.063 217.555 611.882 220.167C615.292 230.445 617.96 240.955 619.864 251.616C622.07 262.268 622.966 273.15 622.531 284.019C622.169 289.585 622.093 294.674 621.388 300.22C621.064 302.946 620.912 305.691 620.455 308.359L619.121 316.403C617.232 327.035 614.61 337.525 611.273 347.795C607.949 357.932 603.92 367.823 599.214 377.396C598.109 379.836 596.738 382.123 595.518 384.486L593.613 388.013C592.966 389.175 592.261 390.3 591.594 391.443C590.185 393.693 588.965 396.056 587.518 398.267L583.136 404.9C559.704 439.19 527.172 466.254 489.201 483.048L485.772 484.573L482.305 486.04C479.981 486.955 477.676 487.946 475.333 488.728C470.627 490.291 465.979 492.025 461.217 493.245C451.843 495.944 442.296 498.001 432.642 499.402C413.978 502.078 395.05 502.373 376.312 500.278C371.759 499.726 367.244 499.192 362.786 498.372C360.576 497.953 358.328 497.648 356.138 497.152C353.947 496.657 351.775 496.142 349.604 495.628C345.222 494.713 341.031 493.302 336.783 492.197C334.688 491.549 332.63 490.805 330.554 490.119C328.477 489.433 326.42 488.804 324.42 487.965C281.069 471.736 243.894 442.32 218.121 403.852C211.229 393.732 205.218 383.038 200.157 371.888C198.881 369.333 197.871 366.741 196.805 364.263C195.738 361.786 194.69 359.289 193.852 356.83L191.242 349.644L189.089 342.687C184.834 328.645 181.981 314.216 180.574 299.61C179.926 294.54 179.907 290.633 179.698 288.003L179.488 284.019V283.886ZM188.175 284V287.812C188.175 290.347 187.984 294.121 188.289 299.039C188.763 313.263 190.782 327.394 194.309 341.181C199.704 362.802 208.577 383.402 220.579 402.175C236.215 426.679 256.686 447.732 280.738 464.045C309.319 483.386 342.158 495.511 376.445 499.383C378.712 499.726 380.998 499.84 383.284 500.012L390.199 500.526L397.171 500.698H400.695C401.838 500.698 403.019 500.698 404.182 500.698L411.249 500.526C413.611 500.526 415.954 500.183 418.336 500.031C423.079 499.783 427.861 499.039 432.566 498.449C442.172 497.063 451.674 495.032 461.007 492.368C465.751 491.129 470.361 489.376 475.047 487.832C477.371 486.955 479.657 485.926 481.962 485.087L485.429 483.715L488.82 482.171C507.305 473.86 524.52 462.97 539.95 449.826C547.786 443.137 555.144 435.908 561.972 428.192C568.807 420.389 575.078 412.109 580.736 403.413C586.393 394.621 591.404 385.429 595.728 375.909C604.356 356.733 610.009 336.351 612.492 315.469L613.254 307.635C613.54 305.024 613.521 302.431 613.692 299.839C614.054 294.769 613.825 289.165 613.845 284.076L613.292 276.242L612.892 268.428C612.721 265.835 612.759 263.205 612.492 260.613L611.806 252.798C610.538 242.369 608.526 232.043 605.786 221.901C600.291 201.685 591.727 182.432 580.393 164.815C558.108 130.177 526.24 102.768 488.668 85.9243L485.277 84.3613L481.829 82.9889L474.914 80.2633C470.227 78.6813 465.617 76.9659 460.874 75.7079C451.564 72.9724 442.072 70.896 432.471 69.4942C413.885 66.7927 395.03 66.4916 376.369 68.5983C371.835 69.1701 367.339 69.6848 362.9 70.5044C360.691 70.9046 358.481 71.2668 356.29 71.7433C354.099 72.2199 351.947 72.7726 349.775 73.2682L346.537 74.0306L343.355 74.9455C341.241 75.5554 339.126 76.1653 337.031 76.7562C332.897 78.1667 328.763 79.4628 324.763 81.0257C309.26 86.9364 294.488 94.611 280.738 103.898C256.709 120.206 236.29 141.285 220.75 165.825C214.283 175.971 208.748 186.682 204.215 197.828C203.072 200.363 202.31 202.955 201.262 205.452C200.214 207.949 199.357 210.389 198.71 212.828L196.538 219.957L194.785 226.819L193.947 230.116C193.699 231.203 193.509 232.289 193.28 233.356L192.042 239.551C191.299 243.573 190.823 247.385 190.289 250.987L189.375 260.823C189.108 263.815 189.108 266.541 189.013 268.942C188.746 273.707 188.575 277.653 188.365 280.207L188.099 284.114L188.175 284Z" fill="#191E21"/>
<path d="M202.348 283.886V280.379C202.196 276.934 202.272 273.483 202.577 270.048C202.843 267.742 203.091 265.149 203.51 262.424C203.929 259.698 204.386 256.61 204.958 253.332C205.529 250.053 206.31 246.604 207.206 242.906C208.101 239.208 209.111 235.282 210.425 231.279C224.303 186.311 253.306 147.534 292.511 121.529C295.578 119.623 298.569 117.546 301.807 115.811C305.046 114.077 308.17 112.094 311.542 110.493L316.59 107.958L321.772 105.633C325.22 104.013 328.858 102.736 332.44 101.287C347.449 95.7379 363.076 92.0321 378.979 90.2511C381.017 89.9461 383.074 89.8317 385.132 89.6793L391.342 89.2218C393.437 89.2218 395.514 89.1265 397.609 89.0693H400.772C401.857 89.0693 402.867 89.0693 403.934 89.0693C406.029 89.0693 408.144 89.1837 410.258 89.2218C412.373 89.2599 414.507 89.5268 416.64 89.6602C420.907 89.8889 425.155 90.556 429.442 91.0516C438.083 92.3131 446.63 94.1534 455.026 96.5601C459.293 97.6656 463.465 99.1904 467.694 100.563C469.789 101.325 471.847 102.164 473.942 102.964L477.066 104.184L480.133 105.576C514.204 120.535 543.434 144.699 564.543 175.356C569.977 183.216 574.847 191.452 579.117 200.001C583.381 208.639 587.059 217.554 590.127 226.685C593.215 235.899 595.646 245.319 597.404 254.876L598.566 262.1C598.986 264.52 599.119 266.96 599.443 269.381C599.675 271.813 599.764 274.257 599.709 276.7V284.019C599.367 289.032 599.271 293.549 598.624 298.543C598.338 300.983 598.204 303.461 597.785 305.843L596.681 313.048C594.966 322.576 592.605 331.975 589.613 341.181C586.596 350.315 582.955 359.231 578.716 367.866C577.707 370.039 576.488 372.097 575.402 374.213L573.706 377.377C573.116 378.406 572.487 379.416 571.801 380.446C570.544 382.466 569.439 384.582 568.144 386.564L564.181 392.492C543.199 423.18 514.061 447.389 480.057 462.386L476.971 463.759L473.847 464.979C471.77 465.779 469.694 466.618 467.618 467.38C463.389 468.791 459.236 470.315 454.968 471.421C446.579 473.819 438.038 475.653 429.404 476.91C412.684 479.317 395.726 479.58 378.94 477.692C363.048 475.929 347.431 472.223 332.44 466.656C293.586 452.147 260.242 425.842 237.076 391.424C225.662 374.577 216.869 356.094 210.997 336.607C207.157 324.019 204.604 311.075 203.377 297.971C202.805 293.435 202.786 289.928 202.615 287.583L202.424 284L202.348 283.886ZM211.035 284V287.431C211.035 289.68 210.863 293.054 211.149 297.438C211.562 310.148 213.35 322.776 216.483 335.101C221.295 354.402 229.195 372.798 239.876 389.576C253.823 411.459 272.083 430.267 293.54 444.851C305.838 453.144 319.043 460.006 332.897 465.303C347.77 470.945 363.288 474.71 379.093 476.51C381.112 476.815 383.169 476.91 385.208 477.082L391.38 477.539C393.456 477.539 395.533 477.635 397.628 477.692H400.772C401.781 477.692 402.848 477.692 403.896 477.692L410.201 477.52C412.297 477.52 414.411 477.234 416.526 477.082C420.774 476.853 424.984 476.224 429.251 475.671C437.829 474.41 446.307 472.551 454.626 470.106C458.874 469.019 462.988 467.437 467.179 466.046C469.256 465.284 471.294 464.426 473.352 463.606L476.457 462.367L479.486 460.976C513.072 445.888 541.575 421.394 561.553 390.452C576.822 366.755 586.484 339.884 589.803 311.885L590.546 304.967C590.813 302.641 590.794 300.335 590.946 298.009C591.251 293.511 590.946 288.479 590.946 283.943C590.946 279.407 590.47 274.622 590.013 269.991C590.013 265.321 589.442 260.689 589.022 256.038C587.947 246.758 586.209 237.567 583.822 228.534C583.288 226.247 582.526 224.036 581.917 221.806L580.869 218.451C580.507 217.346 580.088 216.259 579.688 215.154C578.869 212.962 578.126 210.751 577.25 208.597L574.487 202.155C570.683 193.64 566.271 185.41 561.286 177.529C541.391 146.573 512.932 122.071 479.371 107.005L476.342 105.614L473.256 104.375C471.18 103.574 469.142 102.717 467.084 101.954C462.893 100.525 458.778 98.9617 454.549 97.8562C446.228 95.4222 437.75 93.5627 429.175 92.2905C412.585 89.871 395.752 89.6019 379.093 91.49C363.312 93.2845 347.818 97.0496 332.973 102.698C329.411 104.127 325.829 105.442 322.419 107.081C320.705 107.882 319.009 108.663 317.295 109.445L312.342 112.018C309.027 113.657 305.884 115.544 302.817 117.374C299.75 119.204 296.74 121.281 293.73 123.187C272.34 137.795 254.141 156.601 240.238 178.463C234.466 187.516 229.548 197.087 225.551 207.053C224.484 209.302 223.646 211.609 222.903 213.858C222.16 216.107 221.284 218.261 220.674 220.453L218.769 226.819L217.226 232.937C214.151 245.204 212.42 257.769 212.063 270.41L211.168 283.981L211.035 284Z" fill="#191E21"/>
<path d="M225.208 283.886V280.798C225.091 277.748 225.136 274.694 225.341 271.649C226.479 260.005 228.808 248.508 232.294 237.34C240.252 211.154 254.147 187.161 272.896 167.232C291.645 147.302 314.741 131.975 340.383 122.444C353.656 117.548 367.472 114.277 381.531 112.704C385.131 112.247 388.808 112.094 392.466 111.808C394.371 111.808 396.161 111.808 398.009 111.675H400.809H403.61C405.515 111.675 407.324 111.675 409.191 111.808C411.058 111.942 413.001 112.075 414.906 112.19C418.716 112.399 422.526 112.971 426.336 113.428C433.893 114.521 441.37 116.106 448.72 118.175C452.53 119.147 456.187 120.5 459.921 121.72L465.446 123.835L468.208 124.922L470.932 126.123C501.106 139.357 527.002 160.733 545.722 187.859C555.418 201.823 563.077 217.098 568.467 233.223C571.204 241.381 573.35 249.726 574.887 258.192C575.573 262.443 576.316 266.712 576.678 271.02C577.04 275.328 576.678 279.673 576.678 283.981C576.392 288.422 576.316 292.387 575.763 296.828C575.497 298.981 575.363 301.173 575.001 303.289L574.011 309.655C572.533 318.096 570.458 326.421 567.801 334.567C562.467 350.652 554.907 365.908 545.341 379.893C526.705 407.027 500.878 428.426 470.761 441.687C456.478 447.956 441.412 452.258 425.974 454.476C411.205 456.602 396.226 456.839 381.398 455.182C377.797 454.724 374.197 454.324 370.691 453.638C368.92 453.295 367.148 453.047 365.415 452.666L360.233 451.465C356.785 450.779 353.451 449.673 350.08 448.777C346.708 447.881 343.488 446.642 340.288 445.423C305.932 432.62 276.429 409.405 255.897 379.016C245.76 364.131 237.967 347.778 232.789 330.526C229.373 319.393 227.088 307.944 225.97 296.351C225.474 292.329 225.436 289.242 225.284 287.145L225.112 283.981L225.208 283.886ZM233.894 284V287.012C233.894 288.918 233.742 291.967 233.894 295.817C234.261 307.001 235.826 318.114 238.562 328.964L239.952 334.358L241.724 339.961C242.276 341.867 243.019 343.773 243.743 345.679C244.467 347.586 245.172 349.682 246.086 351.664C249.66 360.434 254.022 368.861 259.116 376.843C271.38 396.132 287.434 412.727 306.303 425.619C317.13 432.982 328.77 439.071 340.993 443.764C354.085 448.739 367.749 452.056 381.664 453.638C385.246 454.095 388.846 454.248 392.485 454.533C394.39 454.533 396.142 454.629 397.99 454.686H400.771H403.514C405.419 454.686 407.21 454.686 409.058 454.553C410.906 454.419 412.868 454.286 414.64 454.171C418.45 453.962 422.107 453.409 425.841 452.932C433.403 451.783 440.876 450.108 448.205 447.919C452.015 446.928 455.559 445.556 459.254 444.317C461.159 443.65 462.874 442.907 464.703 442.182L467.408 441.077L470.075 439.857C499.648 426.577 524.725 404.982 542.255 377.701C560.165 349.81 569.187 317.135 568.124 284C567.839 279.902 567.782 275.785 567.21 271.725C567.077 269.686 567.096 267.627 566.867 265.588L566.296 259.469C565.351 251.309 563.83 243.226 561.743 235.282C557.444 219.406 550.771 204.273 541.95 190.394C537.551 183.525 532.661 176.983 527.32 170.819C522.002 164.717 516.274 158.985 510.175 153.665C498.096 143.275 484.584 134.679 470.056 128.143L467.389 126.923L464.665 125.837C462.76 125.113 461.064 124.35 459.235 123.683C455.559 122.444 451.939 121.053 448.205 120.081C440.88 117.926 433.413 116.283 425.86 115.163C422.05 114.706 418.392 114.134 414.678 113.924C412.773 113.791 410.982 113.6 409.115 113.524C407.248 113.448 405.305 113.428 403.534 113.39H400.79H398.028C396.123 113.39 394.371 113.39 392.542 113.543C388.922 113.829 385.284 114 381.721 114.458C378.159 114.915 374.597 115.315 371.13 116.021C369.377 116.345 367.624 116.612 365.91 116.993L360.805 118.213C359.09 118.575 357.414 119.032 355.756 119.528L350.765 120.957C347.508 122.044 344.269 123.13 341.126 124.331C328.947 129.024 317.346 135.099 306.551 142.438C287.705 155.311 271.703 171.919 259.535 191.233C250.226 206 243.399 222.194 239.324 239.17C236.646 249.956 235.126 260.997 234.79 272.106C234.409 275.804 234.313 278.968 234.142 280.969L233.932 284.057L233.894 284Z" fill="#191E21"/>
<path d="M248.068 283.886V281.217C247.963 278.568 247.995 275.915 248.163 273.269C248.254 271.278 248.451 269.292 248.754 267.322L249.916 260.327C250.468 257.83 250.963 255.123 251.649 252.283C252.335 249.443 253.078 246.432 254.145 243.325C256.261 236.419 258.885 229.679 261.993 223.159C265.559 215.471 269.771 208.1 274.585 201.125C280.034 193.222 286.187 185.828 292.968 179.034C300.438 171.497 308.681 164.77 317.562 158.964C327.208 152.685 337.52 147.494 348.308 143.487C359.848 139.234 371.861 136.398 384.084 135.043C387.227 134.643 390.408 134.49 393.609 134.261C396.809 134.033 400.029 133.995 403.286 134.147C409.846 134.218 416.395 134.721 422.888 135.653C429.534 136.621 436.108 138.028 442.567 139.865C449.136 141.704 455.566 144.01 461.807 146.765C474.691 152.394 486.746 159.756 497.64 168.646C503.174 173.219 508.405 178.147 513.299 183.399C528.297 199.635 539.69 218.862 546.732 239.818C551.208 254.018 554.752 268.809 553.933 284.114C553.417 299.022 550.794 313.782 546.141 327.953C543.786 334.963 540.967 341.808 537.702 348.443C534.43 355.001 530.7 361.319 526.539 367.351C510.347 390.938 487.896 409.534 461.712 421.044C437.288 431.66 410.506 435.669 384.046 432.671C380.922 432.271 377.797 431.928 374.749 431.337C373.206 431.051 371.682 430.822 370.177 430.479L365.663 429.45C364.158 429.145 362.691 428.745 361.224 428.325C359.757 427.906 358.29 427.506 356.843 427.105C353.985 426.152 351.128 425.199 348.327 424.227C327.537 416.552 308.68 404.412 293.083 388.661C286.357 381.851 280.256 374.451 274.852 366.551C265.995 353.635 259.19 339.426 254.678 324.427C251.683 314.742 249.71 304.77 248.792 294.674C248.373 291.186 248.315 288.498 248.163 286.687L248.011 283.924L248.068 283.886ZM256.754 284V286.611C256.754 288.327 256.564 290.881 256.754 294.235C257.1 303.882 258.46 313.465 260.812 322.826C269.41 356.905 290.18 386.656 319.2 406.463C338.601 419.69 360.929 427.991 384.255 430.651C387.341 431.051 390.447 431.184 393.59 431.432C395.171 431.432 396.771 431.432 398.371 431.566H400.772H403.134L407.934 431.451C409.535 431.451 411.154 431.223 412.754 431.108C415.992 430.937 419.193 430.441 422.45 430.041C428.983 429.088 435.438 427.668 441.767 425.79C444.986 424.933 448.13 423.751 451.292 422.703C452.873 422.112 454.435 421.445 455.997 420.796L458.34 419.843L460.664 418.776C486.189 407.257 507.827 388.58 522.958 365.007C526.752 359.012 530.119 352.757 533.035 346.289C538.842 333.261 542.632 319.423 544.274 305.252C545.029 298.15 545.322 291.007 545.151 283.867C544.922 280.55 544.846 276.852 544.408 273.383C544.217 271.63 544.236 269.857 544.046 268.104L543.55 262.805C542.767 255.765 541.456 248.795 539.626 241.953C537.766 235.107 535.41 228.405 532.578 221.901C529.691 215.443 526.355 209.195 522.596 203.203C504.651 175.21 477.626 154.247 446.059 143.835C414.493 133.423 380.307 134.195 349.242 146.022C338.724 150.083 328.708 155.34 319.39 161.689C303.121 172.829 289.332 187.216 278.89 203.946C270.874 216.697 264.999 230.675 261.498 245.326C260.679 248.338 260.26 251.254 259.593 253.961C258.926 256.667 258.812 259.26 258.431 261.585C258.05 263.91 257.993 266.217 257.821 268.237C257.65 270.257 257.65 272.049 257.459 273.688C257.116 276.871 257.002 279.635 256.869 281.312L256.678 284H256.754Z" fill="#191E21"/>
<path d="M270.927 283.886V281.617C270.927 280.093 270.756 277.996 270.927 274.87C271.023 273.364 271.061 271.63 271.327 269.8L272.337 263.853C272.813 261.718 273.232 259.431 273.823 257.01C274.413 254.59 275.042 252.017 275.956 249.386C277.76 243.514 279.989 237.781 282.624 232.232C285.648 225.676 289.243 219.4 293.368 213.477C298.016 206.756 303.256 200.467 309.027 194.683C315.424 188.327 322.445 182.631 329.982 177.681C346.986 166.558 366.368 159.597 386.56 157.363C389.227 157.039 391.932 156.924 394.637 156.715C397.342 156.505 400.085 156.505 402.867 156.619C404.238 156.619 405.591 156.619 406.962 156.715C408.334 156.81 409.744 156.905 411.134 157.001C413.954 157.134 416.735 157.553 419.535 157.896C425.174 158.72 430.755 159.904 436.242 161.442C439.042 162.147 441.748 163.138 444.529 164.053C447.31 164.968 449.996 166.054 452.663 167.312C475.013 177.055 494.227 192.804 508.175 212.809C515.353 223.152 521.047 234.45 525.091 246.375C527.07 252.438 528.667 258.619 529.872 264.882C530.473 268.026 530.817 271.213 530.901 274.413C531.13 277.615 531.015 280.817 531.053 283.943C531.091 287.069 530.787 290.099 530.387 293.473C529.987 296.847 529.587 299.858 529.091 303.003C527.965 309.244 526.399 315.397 524.405 321.416C522.424 327.385 520.038 333.212 517.261 338.856C514.46 344.425 511.277 349.794 507.736 354.924C493.892 374.92 474.766 390.672 452.492 400.421C449.844 401.66 447.082 402.613 444.376 403.68C441.671 404.748 438.909 405.586 436.109 406.253C430.658 407.81 425.108 408.994 419.497 409.799C416.716 410.142 413.935 410.58 411.153 410.714C409.763 410.809 408.391 410.961 407.001 411.019C405.61 411.076 404.238 411.019 402.867 411.019C400.047 411.133 397.418 411.019 394.694 410.904C391.97 410.79 389.265 410.58 386.598 410.237C376.235 409.099 366.042 406.738 356.233 403.204C347.091 399.779 338.352 395.363 330.172 390.033C315.832 380.591 303.472 368.438 293.787 354.257C286.278 343.264 280.496 331.186 276.642 318.442C274.099 310.205 272.401 301.73 271.575 293.149C271.213 290.176 271.194 287.888 271.061 286.344L270.946 284L270.927 283.886ZM279.614 284V286.192C279.614 287.641 279.5 289.794 279.614 292.577C279.864 300.706 280.995 308.784 282.986 316.67C286.012 329.027 291.017 340.812 297.807 351.569C307.512 366.984 320.553 380.021 335.967 389.72C351.381 399.419 368.775 405.532 386.865 407.607C389.456 407.931 392.065 408.045 394.713 408.255C397.361 408.464 400.162 408.484 402.771 408.369C404.124 408.369 405.477 408.369 406.829 408.369C408.182 408.369 409.534 408.179 410.887 408.083C413.611 407.931 416.316 407.511 419.059 407.187C430.184 405.509 441.024 402.302 451.272 397.657C472.782 387.96 490.986 372.178 503.641 352.255C510.08 342.13 514.973 331.1 518.157 319.529C519.705 313.74 520.838 307.848 521.547 301.898C521.833 298.924 522.157 295.932 522.214 293.016C522.271 290.099 522.214 286.84 522.214 284C522.214 281.16 522.005 278.034 521.624 275.08C521.243 272.125 520.805 269.19 520.671 266.217C520.054 260.288 518.964 254.418 517.414 248.662C515.866 242.907 513.892 237.275 511.508 231.813C509.101 226.371 506.306 221.11 503.145 216.069C490.568 196.185 472.459 180.412 451.044 170.686C448.491 169.428 445.786 168.494 443.176 167.427C440.566 166.359 437.861 165.521 435.156 164.796C429.835 163.198 424.404 161.994 418.907 161.194C416.183 160.851 413.478 160.431 410.791 160.279C409.439 160.184 408.105 160.05 406.753 159.993L402.657 159.879C400.009 159.745 397.304 159.974 394.675 160.012C392.046 160.05 389.379 160.336 386.789 160.679C376.682 161.846 366.761 164.279 357.261 167.922C348.475 171.353 340.103 175.765 332.306 181.074C307.958 197.77 290.647 222.891 283.71 251.597C283.024 254.113 282.662 256.572 282.186 258.84C281.71 261.108 281.519 263.3 281.214 265.302L280.3 275.461C279.957 278.11 279.9 280.455 279.766 281.922L279.614 284.191V284Z" fill="#191E21"/>
<path d="M293.787 283.771V276.509C293.775 275.173 293.832 273.837 293.959 272.507C294.168 270.982 294.454 269.285 294.816 267.494C295.178 265.702 295.483 263.682 295.978 261.776L297.883 255.505C301.119 244.951 305.964 234.96 312.247 225.885C320.337 214.189 330.593 204.154 342.46 196.322C356.528 187.266 372.491 181.572 389.113 179.682C391.304 179.339 393.551 179.397 395.78 179.244L399.152 179.073H400.848C401.609 179.073 402.01 179.073 402.619 179.073C407.166 179.147 411.703 179.516 416.202 180.178C425.639 181.451 434.857 184.017 443.595 187.802C445.786 188.831 447.977 189.88 450.187 190.909C452.396 191.938 454.435 193.349 456.568 194.569L459.75 196.475C460.778 197.161 461.655 197.923 462.76 198.648C464.665 200.134 466.836 201.507 468.76 203.108C476.63 209.55 483.629 216.989 489.582 225.237C495.469 233.794 500.155 243.119 503.507 252.951L505.774 260.575C506.505 263.111 507.047 265.697 507.393 268.313L507.965 272.221C508.101 273.532 508.171 274.848 508.175 276.166L508.27 284.286L507.641 291.91C507.508 293.187 507.527 294.388 507.26 295.722L506.536 299.668L505.85 303.594L505.489 305.5L504.974 307.406L502.841 315.03C499.518 324.809 494.878 334.088 489.048 342.611C483.223 350.855 476.337 358.295 468.57 364.74C466.665 366.322 464.588 367.694 462.607 369.181C461.617 369.905 460.702 370.668 459.616 371.354L456.454 373.26C454.321 374.48 452.301 375.852 450.11 376.92C447.92 377.987 445.71 378.978 443.538 380.007C430.595 385.542 416.711 388.538 402.638 388.832C402.029 388.832 401.59 388.832 400.848 388.832L399.19 388.737L395.895 388.565L392.599 388.413C391.502 388.383 390.408 388.288 389.322 388.127C372.75 386.156 356.838 380.454 342.783 371.449C330.968 363.68 320.782 353.677 312.799 342.001C306.58 332.96 301.805 323.005 298.645 312.495L296.854 306.263C296.359 304.357 296.111 302.451 295.749 300.544L294.873 295.665C294.606 294.178 294.606 292.806 294.473 291.586L293.882 283.962L293.787 283.771ZM302.474 284L302.626 290.957C302.626 292.101 302.626 293.378 302.76 294.769L303.312 299.306C303.522 300.945 303.655 302.736 303.998 304.604L305.331 310.494C307.727 320.547 311.762 330.136 317.276 338.875C325.114 351.412 335.675 362.019 348.175 369.909C360.675 377.799 374.791 382.769 389.475 384.448C390.541 384.612 391.616 384.708 392.694 384.734L395.971 384.887L399.285 385.02H400.943H402.486C406.913 384.937 411.329 384.562 415.706 383.896C424.753 382.604 433.572 380.037 441.9 376.271L448.167 373.184C450.244 372.116 452.168 370.744 454.187 369.543L457.197 367.637C458.15 366.951 459.102 366.208 460.035 365.502C461.94 364.016 463.845 362.681 465.636 361.099C472.837 354.705 479.154 347.378 484.419 339.313C489.515 331.038 493.456 322.105 496.135 312.762C498.627 303.287 499.781 293.51 499.564 283.714C499.564 284.057 499.564 283.714 499.564 283.714V283.485V283.028V282.132L499.393 280.226L499.069 276.624C498.954 275.423 498.954 274.203 498.726 273.021L498.173 269.457L497.697 265.874L497.507 264.063L497.126 262.29L495.64 255.219C492.919 245.972 488.958 237.137 483.867 228.954C482.591 226.914 481.124 225.008 479.771 223.026C479.066 222.073 478.419 221.12 477.657 220.129L475.313 217.403L472.97 214.677L471.808 213.324C471.389 212.886 470.951 212.485 470.532 212.066L465.331 207.168C463.56 205.586 461.617 204.251 459.769 202.765C458.816 202.059 457.864 201.316 456.949 200.63L453.959 198.724C451.958 197.523 450.034 196.151 447.958 195.083C445.881 194.016 443.786 193.025 441.709 192.015C433.438 188.258 424.677 185.692 415.687 184.39C411.274 183.702 406.819 183.313 402.352 183.228C401.838 183.228 401.133 183.228 400.79 183.228H399.171L395.933 183.399C393.78 183.571 391.627 183.514 389.532 183.857C373.653 185.836 358.465 191.537 345.203 200.496C334.142 208.144 324.772 217.986 317.676 229.411C312.234 238.12 308.275 247.672 305.96 257.678L304.646 263.529C304.303 265.435 304.227 267.094 304.017 268.676C303.807 270.258 303.674 271.725 303.445 273.059C303.217 274.394 303.217 275.804 303.084 276.871L302.417 284.114L302.474 284Z" fill="#191E21"/>
<path d="M316.647 283.771V278.053C316.647 277.119 316.647 276.147 316.742 274.927C316.837 273.707 317.085 272.373 317.333 270.944C317.58 269.514 317.79 267.932 318.171 266.35L319.6 261.394C325.543 242.236 338.032 225.779 354.88 214.906C365.979 207.798 378.542 203.295 391.627 201.735C393.342 201.468 395.113 201.526 396.866 201.392L399.533 201.278H400.866H401.648H402.295C405.854 201.328 409.405 201.614 412.925 202.136C420.37 203.174 427.638 205.226 434.528 208.235L439.728 210.675C441.443 211.513 443.062 212.581 444.738 213.553L447.253 215.02C448.053 215.573 448.834 216.145 449.634 216.717C451.215 217.879 452.854 218.947 454.378 220.205C460.562 225.274 466.057 231.131 470.722 237.626L473.999 242.753C474.574 243.593 475.077 244.479 475.504 245.403L476.914 248.128L478.323 250.854C478.781 251.788 479.104 252.76 479.504 253.694C480.266 255.6 481.105 257.506 481.771 259.412L483.505 265.378L483.924 266.884L484.191 268.409L484.724 271.477C484.896 272.507 485.048 273.536 485.162 274.565C485.258 275.604 485.296 276.648 485.277 277.691V283.905L484.8 290.004C484.745 291 484.637 291.993 484.476 292.977L483.924 296.103L483.372 299.21L483.086 300.773L482.648 302.26L480.952 308.169C478.316 315.851 474.664 323.146 470.094 329.859C468.951 331.518 467.655 333.042 466.455 334.624C465.827 335.406 465.255 336.225 464.55 336.95L462.626 339.275L460.588 341.448C459.942 342.186 459.242 342.874 458.492 343.507L454.073 347.319C448.044 352.152 441.409 356.176 434.337 359.289C427.515 362.267 420.317 364.293 412.944 365.312C409.38 365.852 405.785 366.158 402.181 366.227C401.705 366.227 401.419 366.227 400.752 366.227H399.457L396.885 366.093C395.171 365.96 393.513 366.093 391.78 365.75C379.722 364.411 368.096 360.482 357.697 354.231C347.297 347.981 338.37 339.557 331.525 329.535C326.609 322.441 322.847 314.612 320.381 306.339L318.971 301.421C318.59 299.858 318.381 298.372 318.114 296.999L317.409 293.187C317.199 292.024 317.199 290.938 317.085 289.966L316.628 284.038L316.647 283.771ZM325.334 284L325.429 289.356C325.429 290.214 325.429 291.262 325.543 292.272L325.962 295.76C326.134 297.018 326.21 298.391 326.477 299.82L327.505 304.356C329.374 312.066 332.46 319.427 336.649 326.162C342.175 334.953 349.412 342.544 357.928 348.481C362.861 351.804 368.152 354.56 373.701 356.696C375.149 357.23 376.597 357.802 378.083 358.316C379.569 358.831 381.131 359.117 382.655 359.536L384.979 360.146C385.76 360.356 386.541 360.413 387.322 360.547L392.085 361.29C393.685 361.538 395.437 361.5 397.133 361.633L399.704 361.766H401H402.143C405.549 361.716 408.948 361.429 412.315 360.909C419.264 359.902 426.037 357.919 432.432 355.019C434.032 354.219 435.652 353.437 437.271 352.637C438.89 351.836 440.338 350.73 441.881 349.816L444.186 348.367L446.358 346.709C447.786 345.565 449.291 344.536 450.663 343.316C456.221 338.426 461.074 332.787 465.084 326.562C469.01 320.206 472.036 313.336 474.075 306.148L475.294 300.678L475.58 299.325L475.752 297.971L476.075 295.265L476.399 292.558C476.487 291.601 476.525 290.641 476.514 289.68L476.628 283.962C476.304 280.245 476.018 276.547 475.352 272.926C474.896 269.255 474.222 265.614 473.332 262.023C471.388 254.881 468.423 248.057 464.531 241.762C460.587 235.567 455.812 229.942 450.339 225.046C444.893 220.319 438.807 216.386 432.261 213.362C425.909 210.5 419.19 208.537 412.296 207.53C408.897 207.005 405.467 206.705 402.029 206.634H401.381H400.886H399.628L397.152 206.767C395.513 206.901 393.856 206.863 392.237 207.11C390.618 207.358 389.037 207.625 387.436 207.873C386.655 208.006 385.855 208.082 385.074 208.273L382.769 208.883C381.245 209.264 379.721 209.664 378.216 210.065C376.711 210.465 375.302 211.132 373.854 211.647C368.343 213.781 363.09 216.53 358.195 219.843C349.783 225.791 342.656 233.376 337.24 242.143C336.135 244.145 334.992 245.955 333.982 247.861L331.468 253.503C330.687 255.295 330.249 257.144 329.563 258.84L328.744 261.337L328.21 263.777L327.22 268.275C326.934 269.667 326.839 270.963 326.648 272.087C326.458 273.212 326.286 274.394 326.115 275.423C325.943 276.452 325.905 277.539 325.81 278.434L325.258 284.152L325.334 284Z" fill="#191E21"/>
<path d="M339.507 283.771V279.75C339.507 279.063 339.507 278.396 339.507 277.5C339.507 276.605 339.697 275.594 339.85 274.546C340.002 273.498 340.136 272.316 340.402 271.153L341.412 267.513C343.239 261.407 346.058 255.643 349.756 250.454C354.398 243.699 360.328 237.927 367.205 233.471C375.346 228.321 384.538 225.064 394.104 223.941C395.361 223.769 396.657 223.788 397.914 223.712L399.819 223.617L400.79 223.617H401.952C404.503 223.654 407.048 223.858 409.572 224.227C415.03 224.98 420.362 226.467 425.422 228.649C436.075 233.212 445.249 240.649 451.92 250.13C455.28 255.095 458.006 260.461 460.036 266.102C461.831 271.898 462.643 277.955 462.436 284.019L462.036 288.441C461.915 289.933 461.705 291.416 461.407 292.882C460.901 295.871 460.182 298.821 459.254 301.707C457.342 307.313 454.669 312.63 451.311 317.508C447.939 322.204 443.99 326.456 439.557 330.164C435.157 333.669 430.322 336.59 425.174 338.856C420.198 341.001 414.957 342.469 409.591 343.221C407 343.622 404.384 343.845 401.762 343.888H400.657H399.743L397.838 343.793C396.599 343.793 395.437 343.793 394.161 343.545C391.646 343.257 389.152 342.812 386.693 342.211C385.493 341.925 384.312 341.62 383.131 341.334C381.95 341.048 380.864 340.533 379.74 340.152C375.428 338.56 371.297 336.515 367.415 334.053C360.631 329.617 354.77 323.908 350.156 317.241C346.581 312.058 343.855 306.338 342.079 300.297L341.05 296.713C340.764 295.589 340.612 294.502 340.402 293.492L339.888 290.709C339.736 289.852 339.736 289.07 339.659 288.365L339.316 284.038L339.507 283.771ZM348.194 284V287.812C348.157 288.491 348.157 289.172 348.194 289.852L348.479 292.291C348.594 293.168 348.651 294.197 348.841 295.131L349.527 298.295C350.831 303.691 352.999 308.841 355.947 313.544C361.947 323.352 371.033 330.888 381.779 334.968L384.827 336.111L388.027 336.969C390.185 337.508 392.373 337.915 394.58 338.189C395.685 338.36 396.961 338.341 398.161 338.437H400.066H401H401.743C404.129 338.393 406.509 338.189 408.868 337.827C413.737 337.144 418.48 335.751 422.945 333.691C427.546 331.562 431.829 328.803 435.671 325.495C439.564 322.061 442.962 318.103 445.767 313.734C448.486 309.283 450.582 304.479 451.996 299.458L452.854 295.646C453.113 294.387 453.298 293.114 453.406 291.834C453.61 290.574 453.706 289.298 453.692 288.022V284.038C453.329 278.888 452.488 273.783 451.177 268.79C449.883 263.809 447.841 259.053 445.119 254.685C442.353 250.388 439.036 246.473 435.252 243.039C434.318 242.201 433.347 241.457 432.318 240.676L430.813 239.513L429.232 238.522C428.146 237.874 427.136 237.131 426.031 236.616L422.698 234.939C421.595 234.397 420.455 233.932 419.288 233.547C418.163 233.068 417.004 232.673 415.821 232.365L412.316 231.45C411.154 231.146 410.011 231.05 408.868 230.841C406.466 230.462 404.041 230.245 401.61 230.193H400.867L399.99 230.193H398.257C397.114 230.288 395.952 230.193 394.847 230.459C386.351 231.496 378.233 234.576 371.187 239.437C360.696 246.648 353.281 257.528 350.403 269.933L349.68 273.04C349.489 273.993 349.375 274.946 349.222 275.709C349.07 276.471 348.918 277.291 348.784 277.977C348.651 278.663 348.613 279.483 348.537 280.131L348.137 284.153L348.194 284Z" fill="#191E21"/>
<path d="M362.367 283.771V281.351C362.367 280.95 362.367 280.569 362.367 279.997L362.595 278.091C362.691 277.424 362.748 276.662 362.9 275.918L363.434 273.612C364.367 269.683 366.055 265.974 368.406 262.69C371.419 258.461 375.191 254.829 379.531 251.979C384.686 248.704 390.514 246.638 396.58 245.936C397.38 245.822 398.181 245.936 399 245.784H400.238H400.848H401.61C403.197 245.811 404.781 245.939 406.353 246.165C409.828 246.636 413.224 247.572 416.449 248.948C419.753 250.376 422.853 252.234 425.67 254.475C428.549 256.813 431.111 259.517 433.289 262.519L434.813 264.901C435.3 265.714 435.739 266.554 436.128 267.417C436.985 269.121 437.68 270.902 438.204 272.735C438.727 274.568 439.09 276.443 439.29 278.339C439.426 279.286 439.496 280.241 439.5 281.198V284.267C439.387 286.042 439.184 287.811 438.89 289.566C438.572 291.459 438.114 293.326 437.519 295.15C436.312 298.671 434.633 302.012 432.527 305.081C428.4 310.962 422.722 315.581 416.126 318.423C413.001 319.785 409.707 320.721 406.334 321.206C404.707 321.458 403.065 321.598 401.419 321.625H400.638H400.086H399C398.238 321.625 397.59 321.625 396.752 321.492C395.15 321.301 393.56 321.021 391.989 320.653C391.246 320.463 390.503 320.272 389.761 320.1C389.018 319.929 388.332 319.586 387.627 319.338C384.913 318.364 382.318 317.085 379.893 315.526C375.644 312.73 371.971 309.146 369.072 304.966C366.816 301.71 365.08 298.122 363.929 294.331L363.281 292.082C363.11 291.376 363.014 290.69 362.9 290.061C362.66 288.995 362.507 287.912 362.443 286.821L362.233 284.114L362.367 283.771ZM371.054 284V286.116C371.059 286.965 371.129 287.812 371.263 288.651C371.263 289.165 371.358 289.699 371.454 290.271L371.854 292.063C372.567 295.126 373.77 298.055 375.416 300.735C377.575 304.255 380.442 307.286 383.836 309.636C385.798 310.958 387.899 312.057 390.103 312.915C390.675 313.124 391.265 313.334 391.837 313.563C392.408 313.791 393.056 313.887 393.742 314.039C394.94 314.346 396.155 314.581 397.38 314.744C397.99 314.84 398.79 314.84 399.495 314.897H400.6H401.495C402.854 314.867 404.209 314.752 405.553 314.554C408.321 314.172 411.017 313.382 413.554 312.209C416.192 311.022 418.638 309.448 420.812 307.54C425.274 303.621 428.476 298.468 430.013 292.73C430.367 291.333 430.622 289.912 430.775 288.479C430.959 286.898 431.029 285.305 430.984 283.714C430.984 284.133 430.984 283.714 430.984 283.867V283.676V283.39V282.837L430.889 281.751C430.826 281.018 430.705 280.292 430.527 279.578C430.318 278.129 429.822 276.757 429.479 275.366C428.56 272.637 427.36 270.012 425.898 267.532C424.39 265.09 422.55 262.871 420.431 260.937C418.313 259.085 415.947 257.539 413.401 256.343C412.787 256.03 412.15 255.763 411.496 255.543C410.88 255.265 410.243 255.036 409.591 254.857L407.686 254.342C407.039 254.17 406.429 254.132 405.781 254.018C404.391 253.774 402.983 253.64 401.571 253.618H400.733H399.762C399.125 253.624 398.488 253.669 397.857 253.751C393.069 254.345 388.495 256.084 384.522 258.821C381.211 261.123 378.436 264.114 376.387 267.589C374.835 270.225 373.595 273.033 372.692 275.957L372.177 277.691C372.044 278.225 371.987 278.701 371.892 279.159L371.625 280.398C371.625 280.798 371.625 281.293 371.492 281.675L371.301 284.095L371.054 284Z" fill="#191E21"/>
<path d="M385.227 283.771V282.494V281.656C385.293 281.011 385.414 280.374 385.589 279.75C385.98 278.152 386.623 276.627 387.494 275.232C388.64 273.406 390.143 271.831 391.913 270.601C394.03 269.147 396.469 268.231 399.019 267.932C399.362 267.932 399.704 267.932 400.047 267.837H401.248C401.853 267.847 402.458 267.898 403.057 267.989C404.554 268.188 406.012 268.612 407.382 269.247C410.155 270.53 412.497 272.589 414.125 275.175C415.784 277.815 416.638 280.882 416.583 284V285.048C416.564 285.426 416.52 285.802 416.449 286.173C416.33 286.974 416.145 287.765 415.897 288.536C415.41 289.981 414.731 291.353 413.878 292.615C412.639 294.393 411.05 295.898 409.209 297.038C407.368 298.179 405.314 298.931 403.172 299.248C402.503 299.352 401.829 299.409 401.152 299.42H400.162C399.895 299.436 399.628 299.436 399.362 299.42C398.058 299.299 396.777 299.005 395.552 298.543C394.434 298.14 393.367 297.609 392.37 296.961C390.625 295.826 389.123 294.355 387.951 292.634C387.026 291.302 386.325 289.828 385.874 288.27C385.562 287.272 385.363 286.243 385.284 285.201V284.095L385.227 283.771ZM393.913 284V284.496C393.909 284.971 393.966 285.445 394.085 285.906C394.459 287.616 395.458 289.125 396.885 290.137C397.348 290.46 397.847 290.729 398.371 290.938C398.882 291.141 399.412 291.294 399.952 291.395C400.066 291.395 400.39 291.395 400.619 291.395H400.981H401.076C401.399 291.424 401.724 291.424 402.048 291.395C402.706 291.294 403.347 291.102 403.953 290.824C405.212 290.215 406.275 289.264 407.02 288.079C407.378 287.484 407.654 286.843 407.839 286.173C407.919 285.873 407.977 285.567 408.01 285.258C408.029 285.074 408.029 284.889 408.01 284.705V284C407.941 282.663 407.489 281.374 406.709 280.286C405.929 279.198 404.853 278.357 403.61 277.863C403.325 277.741 403.032 277.639 402.733 277.558C402.489 277.494 402.241 277.443 401.99 277.405C401.597 277.377 401.203 277.377 400.809 277.405H400.124C399.061 277.527 398.035 277.871 397.114 278.415C395.702 279.288 394.653 280.642 394.161 282.227L393.97 282.895V283.123C393.957 283.25 393.957 283.378 393.97 283.504V284.324L393.913 284Z" fill="#191E21"/>
</g>
<defs>
<clipPath id="clip0_101_2267">
<rect width="568" height="802" fill="white" transform="matrix(0 -1 1 0 0 568)"/>
</clipPath>
</defs>
</svg>
