<!-- icon666.com - MILLIONS vector ICONS FREE --><svg id="Layer_1" enable-background="new 0 0 512 512" viewBox="0 0 512 512" xmlns="http://www.w3.org/2000/svg"><path clip-rule="evenodd" d="m435.409 482.892v-453.79c0-16.043-13.048-29.102-29.097-29.102h-215.281v62.334c0 25.457-20.699 46.171-46.146 46.171h-68.294v374.387c0 16.053 13.099 29.108 29.097 29.108h300.624c16.049 0 29.097-13.054 29.097-29.108zm-290.524-391.455h-53.345l82.443-79.513v50.41c-.001 16.049-13.05 29.103-29.098 29.103zm260.877 78.927h-133.388c-4.7 0-8.499-3.819-8.499-8.534s3.8-8.535 8.499-8.535h133.388c4.7 0 8.499 3.82 8.499 8.535s-3.799 8.534-8.499 8.534zm0-105.385h-172.085c-4.699 0-8.499-3.82-8.499-8.535 0-4.709 3.799-8.534 8.499-8.534h172.085c4.7 0 8.499 3.824 8.499 8.534 0 4.715-3.799 8.535-8.499 8.535zm0 148.397h-133.388c-4.7 0-8.499-3.82-8.499-8.534 0-4.71 3.8-8.529 8.499-8.529h133.388c4.7 0 8.499 3.819 8.499 8.529 0 4.714-3.799 8.534-8.499 8.534zm-133.388 60.355h133.388c4.7 0 8.499 3.815 8.499 8.529 0 4.72-3.8 8.534-8.499 8.534h-133.388c-4.7 0-8.499-3.815-8.499-8.534-.001-4.715 3.799-8.529 8.499-8.529zm0 43.016h133.388c4.7 0 8.499 3.82 8.499 8.534 0 4.715-3.8 8.535-8.499 8.535h-133.388c-4.7 0-8.499-3.82-8.499-8.535-.001-4.714 3.799-8.534 8.499-8.534zm-53.446-48.981c3.3-3.33 8.699-3.33 12.049 0 3.35 3.335 3.35 8.734 0 12.064l-59.945 59.945c-3.491 3.497-9.301 3.314-12.549-.51l-32.847-38.667c-3.049-3.595-2.65-8.984.95-12.034 3.599-3.05 8.999-2.61 12.049.985l26.848 31.617zm53.446 126.399h133.388c4.7 0 8.499 3.82 8.499 8.534s-3.8 8.534-8.499 8.534h-133.388c-4.7 0-8.499-3.82-8.499-8.534-.001-4.714 3.799-8.534 8.499-8.534zm0 43.016h133.388c4.7 0 8.499 3.82 8.499 8.535s-3.8 8.534-8.499 8.534h-133.388c-4.7 0-8.499-3.819-8.499-8.534-.001-4.715 3.799-8.535 8.499-8.535zm-41.397-48.975c3.35 3.335 3.35 8.734 0 12.059l-59.945 59.95c-3.495 3.495-9.295 3.316-12.549-.515l-32.847-38.667c-3.049-3.59-2.65-8.979.95-12.029 3.599-3.05 8.999-2.615 12.049.98l26.848 31.618 53.445-53.396c3.3-3.33 8.7-3.33 12.049 0zm0-240.874c3.35 3.33 3.35 8.734 0 12.069l-59.945 59.94c-3.512 3.512-9.307 3.296-12.549-.51l-32.847-38.671c-3.049-3.59-2.65-8.975.95-12.024 3.599-3.055 8.999-2.615 12.049.975l26.848 31.622 53.445-53.4c3.3-3.336 8.7-3.331 12.049-.001z" fill-rule="evenodd" fill="#000000" style="fill: rgb(255, 255, 255);"></path></svg>