<!-- icon666.com - MILLIONS vector ICONS FREE --><svg id="Layer_1" enable-background="new 0 0 468 468" viewBox="0 0 468 468" xmlns="http://www.w3.org/2000/svg"><g><path d="m126.087 17.029c-33.387 0-61 27.292-61 60.838v.323c0 33.547 27.613 60.839 61 60.839s61-27.292 61-60.839v-.323c0-33.546-27.613-60.838-61-60.838z" fill="#000000" style="fill: rgb(255, 255, 255);"></path><g><path d="m0 349.856h232.864v-102.252c0-8.157 6.545-14.77 14.7-14.77h10.29v-26.378l-70.787-22.802-44.691 99.294c-5.096 11.325-21.686 11.403-26.886.124l-45.837-99.409-69.653 22.748z" fill="#000000" style="fill: rgb(255, 255, 255);"></path><g><path d="m374.664 293.023 18.366 15.671v-46.32h-55.66v46.321l18.301-15.672c5.512-4.687 13.477-4.688 18.993 0z" fill="#000000" style="fill: rgb(255, 255, 255);"></path><path d="m422.563 262.374v78.259c0 12.273-14.775 19.278-24.215 11.254l-33.191-28.226-33.197 28.226c-9.433 8.023-24.125 1.009-24.125-11.254v-78.259h-45.437v188.597h205.602v-188.597z" fill="#000000" style="fill: rgb(255, 255, 255);"></path></g></g></g></svg>