<!-- icon666.com - MILLIONS vector ICONS FREE --><svg viewBox="0 0 512 512.00736" xmlns="http://www.w3.org/2000/svg"><path d="m112.003906 336.007812c-30.910156-.039062-55.960937-25.089843-56-56v-52.6875l-13.65625-13.65625c-1.5-1.5-2.34375-3.535156-2.34375-5.65625v-16c0-2.121093.84375-4.15625 2.34375-5.65625l24-24c1.5-1.5 3.535156-2.34375 5.65625-2.34375h104c2.773438 0 5.347656 1.433594 6.808594 3.792969 1.457031 2.355469 1.589844 5.300781.351562 7.78125l-12.425781 24.847657 8.839844 4.417968c2.054687 1.027344 3.570313 2.882813 4.160156 5.105469.589844 2.21875.195313 4.585937-1.078125 6.496094l-14.65625 21.957031v45.601562c-.039062 30.910157-25.089844 55.960938-56 56zm-40-108.6875v52.6875c0 22.089844 17.910156 40 40 40s40-17.910156 40-40v-40h-32c-2.121094 0-4.15625-.84375-5.65625-2.34375l-26.34375-26.34375zm51.3125-3.3125h32.40625l8.601563-12.894531-7.898438-3.945312c-3.953125-1.972657-5.558593-6.78125-3.582031-10.738281l10.214844-20.421876h-87.742188l-19.3125 19.3125v9.375l8 8 18.34375-18.34375c3.125-3.125 8.1875-3.125 11.3125 0zm0 0" fill="#000000" style="fill: rgb(255, 255, 255);"></path><path d="m160.003906 296.007812v-16c8.835938 0 16-7.164062 16-16 0-8.835937-7.164062-16-16-16v-16c17.671875 0 32 14.328126 32 32 0 17.671876-14.328125 32-32 32zm0 0" fill="#000000" style="fill: rgb(255, 255, 255);"></path><path d="m64.003906 296.007812c-17.671875 0-32-14.328124-32-32 0-17.671874 14.328125-32 32-32v16c-8.835937 0-16 7.164063-16 16 0 8.835938 7.164063 16 16 16zm0 0" fill="#000000" style="fill: rgb(255, 255, 255);"></path><path d="m48.003906 512.007812h-8c-22.082031-.027343-39.972656-17.921874-39.99999975-40v-96c0-2.121093.84374975-4.15625 2.34374975-5.65625l32-32c1.5-1.5 3.535156-2.34375 5.65625-2.34375h48v16h-44.6875l-27.3125 27.3125v92.6875c0 13.253907 10.746094 24 24 24h8zm0 0" fill="#000000" style="fill: rgb(255, 255, 255);"></path><path d="m176.003906 512.007812h-128c-8.835937 0-16-7.164062-16-16v-112h16v112h128v-112h16v112c0 8.835938-7.164062 16-16 16zm0 0" fill="#000000" style="fill: rgb(255, 255, 255);"></path><path d="m112.003906 376.007812c-2.121094 0-4.15625-.84375-5.65625-2.34375l-24-24c-1.5-1.5-2.34375-3.535156-2.34375-5.65625v-24h16v20.6875l16 16 16-16v-20.6875h16v24c0 2.121094-.84375 4.15625-2.34375 5.65625l-24 24c-1.5 1.5-3.535156 2.34375-5.65625 2.34375zm0 0" fill="#000000" style="fill: rgb(255, 255, 255);"></path><path d="m144.003906 384.007812c-.65625 0-1.308594-.082031-1.945312-.242187l-32-8 3.875-15.519531 24.238281 6.058594 6.0625-24.234376 15.519531 3.875-8 32c-.886718 3.558594-4.082031 6.058594-7.75 6.0625zm0 0" fill="#000000" style="fill: rgb(255, 255, 255);"></path><path d="m80.003906 384.007812c-3.667968-.003906-6.863281-2.503906-7.753906-6.0625l-8-32 15.523438-3.875 6.0625 24.234376 24.238281-6.058594 3.875 15.519531-32 8c-.636719.160156-1.289063.242187-1.945313.242187zm0 0" fill="#000000" style="fill: rgb(255, 255, 255);"></path><path d="m112.003906 480.007812c-2.121094 0-4.15625-.84375-5.65625-2.34375l-16-16c-1.683594-1.683593-2.53125-4.03125-2.3125-6.402343l8-88 15.96875 1.472656-7.664062 84.265625 7.695312 7.695312 7.695313-7.695312-7.726563-84.265625 16-1.453125 8 88c.21875 2.371094-.628906 4.714844-2.3125 6.398438l-16 16c-1.511718 1.503906-3.558594 2.339843-5.6875 2.328124zm0 0" fill="#000000" style="fill: rgb(255, 255, 255);"></path><path d="m8.003906 456.007812h32v16h-32zm0 0" fill="#000000" style="fill: rgb(255, 255, 255);"></path><path d="m189.660156 421.664062-11.3125-11.3125 54.3125-54.34375 37.511719-180h-24l-38.398437 146.039063c-.363282 1.367187-1.082032 2.617187-2.082032 3.617187l-24 24c-1.507812 1.507813-3.554687 2.351563-5.6875 2.34375h-40v-16h36.6875l20.113282-20.128906 39.445312-149.910156c.929688-3.519531 4.113281-5.96875 7.753906-5.960938h40c2.402344 0 4.675782 1.082032 6.191406 2.941407 1.519532 1.863281 2.121094 4.304687 1.640626 6.65625l-40 192c-.324219 1.519531-1.078126 2.90625-2.175782 4zm0 0" fill="#000000" style="fill: rgb(255, 255, 255);"></path><path d="m400.003906 336.007812c-30.910156-.039062-55.960937-25.089843-56-56v-45.601562l-14.65625-21.984375c-1.273437-1.910156-1.667968-4.273437-1.078125-6.492187.589844-2.222657 2.101563-4.082032 4.15625-5.105469l8.84375-4.417969-12.425781-24.847656c-1.226562-2.476563-1.089844-5.414063.367188-7.765625 1.457031-2.351563 4.027343-3.78125 6.792968-3.785157h104c2.121094 0 4.15625.84375 5.65625 2.34375l24 24c1.5 1.5 2.34375 3.535157 2.34375 5.65625v16c0 2.121094-.84375 4.15625-2.34375 5.65625l-13.65625 13.65625v52.6875c-.039062 30.910157-25.089844 55.960938-56 56zm-40-96v40c0 22.089844 17.910156 40 40 40s40-17.910156 40-40v-52.6875l-16-16-26.34375 26.34375c-1.5 1.5-3.535156 2.34375-5.65625 2.34375zm-3.71875-16h32.40625l29.65625-29.65625c3.125-3.125 8.1875-3.125 11.3125 0l18.34375 18.34375 8-8v-9.375l-19.3125-19.3125h-87.742187l10.253906 20.421876c1.976563 3.957031.371094 8.765624-3.582031 10.738281l-7.898438 3.945312zm0 0" fill="#000000" style="fill: rgb(255, 255, 255);"></path><path d="m352.003906 296.007812c-17.671875 0-32-14.328124-32-32 0-17.671874 14.328125-32 32-32v16c-8.835937 0-16 7.164063-16 16 0 8.835938 7.164063 16 16 16zm0 0" fill="#000000" style="fill: rgb(255, 255, 255);"></path><path d="m448.003906 296.007812v-16c8.835938 0 16-7.164062 16-16 0-8.835937-7.164062-16-16-16v-16c17.671875 0 32 14.328126 32 32 0 17.671876-14.328125 32-32 32zm0 0" fill="#000000" style="fill: rgb(255, 255, 255);"></path><path d="m472.003906 512.007812h-8v-16h8c13.253906 0 24-10.746093 24-24v-92.6875l-27.3125-27.3125h-44.6875v-16h48c2.121094 0 4.15625.84375 5.65625 2.34375l32 32c1.5 1.5 2.34375 3.535157 2.34375 5.65625v96c-.027344 22.078126-17.917968 39.972657-40 40zm0 0" fill="#000000" style="fill: rgb(255, 255, 255);"></path><path d="m464.003906 512.007812h-128c-8.835937 0-16-7.164062-16-16v-112h16v112h128v-112h16v112c0 8.835938-7.164062 16-16 16zm0 0" fill="#000000" style="fill: rgb(255, 255, 255);"></path><path d="m400.003906 376.007812c-2.121094 0-4.15625-.84375-5.65625-2.34375l-24-24c-1.5-1.5-2.34375-3.535156-2.34375-5.65625v-24h16v20.6875l16 16 16-16v-20.6875h16v24c0 2.121094-.84375 4.15625-2.34375 5.65625l-24 24c-1.5 1.5-3.535156 2.34375-5.65625 2.34375zm0 0" fill="#000000" style="fill: rgb(255, 255, 255);"></path><path d="m368.003906 384.007812c-3.667968-.003906-6.863281-2.503906-7.753906-6.0625l-8-32 15.523438-3.875 6.0625 24.234376 24.238281-6.058594 3.875 15.519531-32 8c-.636719.160156-1.289063.242187-1.945313.242187zm0 0" fill="#000000" style="fill: rgb(255, 255, 255);"></path><path d="m432.003906 384.007812c-.65625 0-1.308594-.082031-1.945312-.242187l-32-8 3.875-15.519531 24.238281 6.058594 6.0625-24.234376 15.519531 3.875-8 32c-.886718 3.558594-4.082031 6.058594-7.75 6.0625zm0 0" fill="#000000" style="fill: rgb(255, 255, 255);"></path><path d="m376.148438 455.316406 8.039062-88.007812 15.9375 1.457031-8.042969 88.003906zm0 0" fill="#000000" style="fill: rgb(255, 255, 255);"></path><path d="m400.035156 368.730469 15.933594-1.449219 8 88-15.933594 1.449219zm0 0" fill="#000000" style="fill: rgb(255, 255, 255);"></path><path d="m472.003906 456.007812h32v16h-32zm0 0" fill="#000000" style="fill: rgb(255, 255, 255);"></path><path d="m376.003906 352.007812h-40c-2.121094 0-4.15625-.84375-5.65625-2.34375l-24-24c-1.097656-1.09375-1.851562-2.484374-2.175781-4l-21.894531-104 15.65625-3.296874 21.40625 101.640624 20 20h36.664062zm0 0" fill="#000000" style="fill: rgb(255, 255, 255);"></path><path d="m322.347656 421.664062-56-56c-1.179687-1.179687-1.957031-2.699218-2.230468-4.34375l-5.335938-32 15.773438-2.625 4.921874 29.472657 54.183594 54.183593zm0 0" fill="#000000" style="fill: rgb(255, 255, 255);"></path><path d="m224.003906 200.007812h48v16h-48zm0 0" fill="#000000" style="fill: rgb(255, 255, 255);"></path><path d="m400.003906 480.007812c-2.429687 0-4.730468-1.101562-6.25-3l-32-40c-1.132812-1.417968-1.75-3.183593-1.75-5v-56h16v53.191407l24 30 24-30v-53.191407h16v56c0 1.816407-.617187 3.582032-1.753906 5l-32 40c-1.515625 1.898438-3.816406 3-6.246094 3zm0 0" fill="#000000" style="fill: rgb(255, 255, 255);"></path><path d="m392.003906 472.007812h16v32h-16zm0 0" fill="#000000" style="fill: rgb(255, 255, 255);"></path><path d="m304.003906 128.007812c-1.578125-.003906-3.125-.46875-4.441406-1.34375l-43.558594-29.058593-43.558594 29.042969c-3.019531 2.015624-7.019531 1.75-9.738281-.652344-2.722656-2.402344-3.488281-6.335938-1.863281-9.582032l20.6875-41.375-33.648438-20.175781c-3.078124-1.851562-4.546874-5.53125-3.585937-8.992187.960937-3.464844 4.113281-5.863282 7.707031-5.863282h42.582032l13.984374-34.96875c1.214844-3.042968 4.15625-5.039062 7.433594-5.039062 3.273438 0 6.21875 1.996094 7.433594 5.039062l13.980469 34.96875h42.585937c3.59375 0 6.746094 2.398438 7.707032 5.863282.960937 3.460937-.507813 7.140625-3.585938 8.992187l-33.648438 20.191407 20.726563 41.375c1.242187 2.488281 1.105469 5.441406-.363281 7.804687-1.46875 2.359375-4.054688 3.789063-6.835938 3.773437zm-48-48c1.578125 0 3.125.46875 4.441406 1.34375l22.933594 15.289063-10.574218-21.058594c-1.847657-3.726562-.523438-8.25 3.039062-10.398437l15.28125-9.175782h-19.121094c-3.273437 0-6.21875-1.992187-7.433594-5.03125l-8.566406-21.433593-8.566406 21.433593c-1.214844 3.039063-4.160156 5.03125-7.433594 5.03125h-19.121094l15.242188 9.144532c3.5625 2.148437 4.882812 6.667968 3.039062 10.398437l-10.535156 21.054688 22.933594-15.285157c1.320312-.867187 2.863281-1.324218 4.441406-1.3125zm0 0" fill="#000000" style="fill: rgb(255, 255, 255);"></path><path d="m152.003906 136.007812c-1.242187 0-2.464844-.289062-3.578125-.839843l-28.421875-14.214844-28.425781 14.253906c-2.792969 1.394531-6.144531 1.039063-8.578125-.917969-2.4375-1.953124-3.511719-5.148437-2.757812-8.175781l7.144531-28.570312-14.039063-21.09375c-1.636718-2.457031-1.792968-5.613281-.398437-8.214844 1.390625-2.601563 4.101562-4.226563 7.054687-4.226563h19.71875l13.601563-20.441406c1.570312-2.097656 4.035156-3.332031 6.65625-3.332031 2.621093 0 5.085937 1.234375 6.65625 3.332031l13.648437 20.441406h19.71875c2.949219 0 5.664063 1.625 7.054688 4.226563s1.238281 5.757813-.398438 8.214844l-14.039062 21.054687 7.144531 28.566406c.59375 2.390626.054687 4.921876-1.460937 6.859376-1.515626 1.941406-3.839844 3.078124-6.300782 3.078124zm-32-32c1.242188 0 2.464844.285157 3.574219.839844l16.425781 8.222656-3.785156-15.125c-.550781-2.195312-.152344-4.519531 1.105469-6.402343l7.734375-11.535157h-9.054688c-2.675781 0-5.171875-1.335937-6.65625-3.558593l-9.34375-14.042969-9.34375 14.042969c-1.484375 2.222656-3.980468 3.558593-6.65625 3.558593h-9.054687l7.710937 11.558594c1.253906 1.882813 1.65625 4.207032 1.105469 6.402344l-3.761719 15.101562 16.449219-8.222656c1.101563-.550781 2.316406-.835937 3.550781-.839844zm0 0" fill="#000000" style="fill: rgb(255, 255, 255);"></path><path d="m424.003906 136.007812c-1.242187 0-2.464844-.289062-3.578125-.839843l-28.421875-14.214844-28.425781 14.253906c-2.792969 1.394531-6.144531 1.039063-8.578125-.917969-2.4375-1.953124-3.511719-5.148437-2.757812-8.175781l7.144531-28.570312-14.039063-21.09375c-1.636718-2.457031-1.792968-5.613281-.398437-8.214844 1.390625-2.601563 4.101562-4.226563 7.054687-4.226563h19.71875l13.601563-20.441406c1.570312-2.097656 4.035156-3.332031 6.65625-3.332031 2.621093 0 5.085937 1.234375 6.65625 3.332031l13.648437 20.441406h19.71875c2.949219 0 5.664063 1.625 7.054688 4.226563s1.238281 5.757813-.398438 8.214844l-14.039062 21.054687 7.144531 28.566406c.59375 2.390626.054687 4.921876-1.460937 6.859376-1.515626 1.941406-3.839844 3.078124-6.300782 3.078124zm-32-32c1.242188 0 2.464844.285157 3.574219.839844l16.425781 8.222656-3.785156-15.125c-.550781-2.195312-.152344-4.519531 1.105469-6.402343l7.734375-11.535157h-9.054688c-2.675781 0-5.171875-1.335937-6.65625-3.558593l-9.34375-14.042969-9.34375 14.042969c-1.484375 2.222656-3.980468 3.558593-6.65625 3.558593h-9.054687l7.710937 11.558594c1.253906 1.882813 1.65625 4.207032 1.105469 6.402344l-3.761719 15.101562 16.449219-8.222656c1.101563-.550781 2.316406-.835937 3.550781-.839844zm0 0" fill="#000000" style="fill: rgb(255, 255, 255);"></path></svg>