<svg width="1405" height="420" viewBox="0 0 1405 420" fill="none" xmlns="http://www.w3.org/2000/svg">
<path opacity="0.694313" fill-rule="evenodd" clip-rule="evenodd" d="M146 393.747C146 396.965 147.722 399.938 150.517 401.546L180.483 418.793C183.278 420.402 186.722 420.402 189.517 418.793L219.483 401.546C222.278 399.938 224 396.965 224 393.747V359.253C224 356.035 222.278 353.062 219.483 351.454L189.517 334.207C186.722 332.598 183.278 332.598 180.483 334.207L150.517 351.454C147.722 353.062 146 356.035 146 359.253L146 393.747Z" fill="#625E5E" fill-opacity="0.12"/>
<path opacity="0.694313" fill-rule="evenodd" clip-rule="evenodd" d="M1248 122.193C1248 128.664 1251.47 134.645 1257.09 137.881L1317.41 172.573C1323.03 175.809 1329.97 175.809 1335.59 172.573L1395.91 137.881C1401.53 134.645 1405 128.664 1405 122.193V52.8075C1405 46.3356 1401.53 40.3555 1395.91 37.1194L1335.59 2.42687C1329.97 -0.808957 1323.03 -0.808957 1317.41 2.42687L1257.09 37.1194C1251.47 40.3555 1248 46.3356 1248 52.8075V122.193Z" fill="#625E5E" fill-opacity="0.12"/>
<path opacity="0.694313" fill-rule="evenodd" clip-rule="evenodd" d="M1067 85.428C1067 89.0521 1068.94 92.4011 1072.1 94.2132L1105.9 113.641C1109.06 115.453 1112.94 115.453 1116.1 113.641L1149.9 94.2132C1153.06 92.4011 1155 89.0521 1155 85.428V46.5722C1155 42.9479 1153.06 39.5991 1149.9 37.7868L1116.1 18.359C1112.94 16.547 1109.06 16.547 1105.9 18.359L1072.1 37.7868C1068.94 39.5991 1067 42.9479 1067 46.5722V85.428Z" fill="#625E5E" fill-opacity="0.12"/>
<path opacity="0.694313" fill-rule="evenodd" clip-rule="evenodd" d="M0 223.028C0 230.868 4.1941 238.113 11.0027 242.033L83.9973 284.06C90.8059 287.98 99.1941 287.98 106.003 284.06L178.997 242.033C185.806 238.113 190 230.868 190 223.028V138.973C190 131.132 185.806 123.888 178.997 119.967L106.003 77.94C99.1941 74.02 90.8059 74.02 83.9973 77.94L11.0027 119.967C4.1941 123.888 0 131.132 0 138.973L0 223.028Z" fill="#625E5E" fill-opacity="0.12"/>
</svg>
