<svg width="18" height="15" viewBox="0 0 18 15" fill="none" xmlns="http://www.w3.org/2000/svg">
<path d="M11.872 8.45866C11.6005 8.45866 11.3727 8.36666 11.1887 8.18266C11.0054 7.9993 10.9137 7.77185 10.9137 7.50033C10.9137 7.2288 11.0054 7.00103 11.1887 6.81703C11.3727 6.63367 11.6005 6.54199 11.872 6.54199C12.1435 6.54199 12.3713 6.63367 12.5553 6.81703C12.7387 7.00103 12.8303 7.2288 12.8303 7.50033C12.8303 7.77185 12.7387 7.9993 12.5553 8.18266C12.3713 8.36666 12.1435 8.45866 11.872 8.45866ZM8.51784 8.45866C8.24631 8.45866 8.01855 8.36666 7.83455 8.18266C7.65119 7.9993 7.55951 7.77185 7.55951 7.50033C7.55951 7.2288 7.65119 7.00103 7.83455 6.81703C8.01855 6.63367 8.24631 6.54199 8.51784 6.54199C8.78937 6.54199 9.01713 6.63367 9.20113 6.81703C9.38449 7.00103 9.47617 7.2288 9.47617 7.50033C9.47617 7.77185 9.38449 7.9993 9.20113 8.18266C9.01713 8.36666 8.78937 8.45866 8.51784 8.45866ZM5.16367 8.45866C4.89214 8.45866 4.66438 8.36666 4.48038 8.18266C4.29702 7.9993 4.20534 7.77185 4.20534 7.50033C4.20534 7.2288 4.29702 7.00103 4.48038 6.81703C4.66438 6.63367 4.89214 6.54199 5.16367 6.54199C5.4352 6.54199 5.66296 6.63367 5.84696 6.81703C6.03032 7.00103 6.12201 7.2288 6.12201 7.50033C6.12201 7.77185 6.03032 7.9993 5.84696 8.18266C5.66296 8.36666 5.4352 8.45866 5.16367 8.45866ZM12.3512 14.2087C12.6706 14.2087 12.9699 14.1368 13.2491 13.993C13.529 13.8493 13.7567 13.6496 13.9324 13.3941L17.3105 8.60241C17.5501 8.26699 17.6699 7.89963 17.6699 7.50033C17.6699 7.10102 17.5501 6.73366 17.3105 6.39824L13.9324 1.60658C13.7567 1.35102 13.529 1.15137 13.2491 1.00762C12.9699 0.863867 12.6706 0.791992 12.3512 0.791992H2.76784C2.24076 0.791992 1.78938 0.979825 1.41371 1.35549C1.03868 1.73052 0.851171 2.18158 0.851171 2.70866V12.292C0.851171 12.8191 1.03868 13.2705 1.41371 13.6461C1.78938 14.0211 2.24076 14.2087 2.76784 14.2087H12.3512Z" fill="white"/>
</svg>
