<!-- icon666.com - MILLIONS vector ICONS FREE --><svg id="upload" viewBox="0 0 32 32" xmlns="http://www.w3.org/2000/svg"><path d="m16.22 15.22.5.5v6.4c0 .28-.22.5-.5.5s-.5-.22-.5-.5v-6.4zm.35-2.47c-.19-.2-.51-.19-.7 0l-3.31 3.31c-.45.46.23 1.17.7.71l1.46-1.46 1.5-1.5 1.35 1.35s.11.11.15.15l1.45 1.46c.19.19.52.19.71 0s.19-.52 0-.71l-3.32-3.31zm3.65-5.24c0 .28.22.5.5.5h4.37c.12-.17-4.21-4.36-4.35-4.55-.15-.15-.33-.26-.52-.34v4.38zm5 1.5v17.49c0 1.38-1.12 2.5-2.5 2.5h-13c-1.38 0-2.5-1.12-2.5-2.5v-21c0-1.38 1.12-2.5 2.5-2.5h9.5v4.5c0 .83.67 1.5 1.5 1.5h4.5zm-4.62 6.35-3.32-3.31c-.58-.58-1.53-.58-2.12 0l-3.31 3.31c-1.37 1.41.69 3.5 2.12 2.13l.76-.76v5.4c0 .83.67 1.5 1.5 1.5s1.5-.67 1.5-1.5v-5.4l.75.75c1.43 1.35 3.5-.7 2.13-2.13z" fill="#000000" style="fill: rgb(255, 255, 255);"></path></svg>