<!-- icon666.com - MILLIONS vector ICONS FREE --><svg viewBox="0 0 512 512" xmlns="http://www.w3.org/2000/svg"><g id="_x31_9_public"><g><path d="m256 359.444c-78.162 0-151.305-34.83-200.674-95.56-3.734-4.593-3.734-11.176 0-15.77 49.369-60.729 122.512-95.56 200.674-95.56 78.161 0 151.305 34.83 200.674 95.56 3.734 4.593 3.734 11.177 0 15.77-49.369 60.73-122.513 95.56-200.674 95.56zm-174.576-103.444c44.378 49.981 107.43 78.444 174.576 78.444s130.197-28.463 174.575-78.444c-44.378-49.981-107.429-78.444-174.575-78.444s-130.197 28.463-174.576 78.444z" fill="rgb(0,0,0)" style="fill: rgb(255, 255, 255);"></path></g><g><path d="m256 321.088c-35.89 0-65.088-29.198-65.088-65.088s29.198-65.088 65.088-65.088 65.088 29.198 65.088 65.088-29.198 65.088-65.088 65.088zm0-105.176c-22.104 0-40.088 17.983-40.088 40.088s17.983 40.088 40.088 40.088 40.088-17.983 40.088-40.088-17.984-40.088-40.088-40.088z" fill="rgb(0,0,0)" style="fill: rgb(255, 255, 255);"></path></g></g></svg>