<!-- icon666.com - MILLIONS vector ICONS FREE --><svg id="Layer_1" enable-background="new 0 0 480 480" viewBox="0 0 480 480" xmlns="http://www.w3.org/2000/svg"><g><path d="m275.104 305.492c3.008-1.237 6.203 1.524 5.367 4.667-4.6 17.286-22.008 28.87-40.581 28.994-20.762.139-34.014-10.7-40.007-28.077-1.108-3.213 2.085-6.245 5.246-4.996 22.343 8.825 47.567 8.624 69.975-.588z" fill="#000000" style="fill: rgb(255, 255, 255);"></path><path d="m356 365.202v37.28c0 4.418-3.582 8-8 8h-216c-4.418 0-8-3.582-8-8v-37.28c0-19.56 12.41-36.989 30.88-43.39.109 0 5.299-1.835 21.192-7.311 3.075-1.059 6.444.521 7.56 3.576 7.593 20.784 29.074 37.255 56.478 37.075 23.743-.156 46.98-14.655 54.767-37.431 1.07-3.13 4.489-4.785 7.617-3.706 19.101 6.585 22.345 7.687 22.446 7.736 19.779 7.076 31.06 24.796 31.06 43.451z" fill="#000000" style="fill: rgb(255, 255, 255);"></path><path d="m161.273 270.103c.774 1.19.874 2.683.268 3.967-10.761 22.814-33.824 38.733-60.961 38.733-38.065 0-67.58-31.471-67.58-68.25v-32.98c0-3.58 2.37-6.72 5.81-7.7 10.059-2.851 17.509-10.127 21.15-19.77 1.903-5.012 8.086-6.787 12.35-3.521 15.931 12.2 34.622 20.172 54.846 22.956 1.702.234 3.031 1.56 3.347 3.25 1.862 9.954 7.377 18.796 15.282 24.93.818.635 1.377 1.54 1.548 2.562 2.213 13.242 7.12 25.336 13.94 35.823z" fill="#000000" style="fill: rgb(255, 255, 255);"></path><path d="m447 211.572v33.73c0 18.739-7.89 36.8-21.65 49.54-33.554 31.08-87.954 20.635-107.214-21.96-.553-1.222-.403-2.638.317-3.771 6.592-10.38 11.024-21.936 13.122-33.792.185-1.045.782-1.958 1.648-2.572 10.379-7.364 17.285-19.337 17.697-32.916.027-1.116.021.969.026-11.676.001-3.2 3.578-5.121 6.227-3.326 22.836 15.474 51.633 22.669 80.777 18.813 4.745-.646 9.05 3.061 9.05 7.93z" fill="#000000" style="fill: rgb(255, 255, 255);"></path><path d="m334.97 133.093v28.582c-.002 3.598-4.427 5.436-6.899 2.823-5.286-5.586-13.192-9.825-22.231-8.625-32.089 4.249-64.339-4.102-90.35-24.04-12.822-9.822-31.402-4.403-37.05 10.561-1.21 3.2-3.62 7.7-8.25 10.979-3.644 2.574-6.497 3.027-8.36 3.73-3.54 1.28-6.56 3.36-8.98 5.99-2.45 2.649-6.945.819-6.955-2.79v-29.141c.03-12.92 9.185-23.729 21.375-26.239 10.65-21.681 32.51-35.406 56.98-35.406h47.24c35.03.02 63.5 28.546 63.48 63.576z" fill="#000000" style="fill: rgb(255, 255, 255);"></path><path d="m116.521 333.866c-1.771 3.013-3.288 6.181-4.533 9.469-.44 1.164-1.427 2.04-2.621 2.391-14.792 4.354-29.58-2.376-38.647-14.743-2.271-3.098.815-7.303 4.471-6.124 12.19 3.93 24.946 4.869 37.342 3.042 3.287-.484 5.671 3.101 3.988 5.965z" fill="#000000" style="fill: rgb(255, 255, 255);"></path><path d="m104.287 410.483h-96.287c-4.418 0-8-3.582-8-8v-31.95c0-17.26 10.96-32.649 27.29-38.28.096 0-1.795.605 18.543-6.398 2.003-.69 4.177.311 5.007 2.26 9.301 21.843 30.478 36.486 52.899 34.838 2.308-.17 4.263 1.668 4.261 3.982-.03 38.266-.106 36.602.256 39.059.35 2.377-1.566 4.489-3.969 4.489z" fill="#000000" style="fill: rgb(255, 255, 255);"></path><path d="m127.122 116.527c2.562.022 4.434 2.417 3.847 4.91-1.497 6.358-1.123 5.619-1.139 61.644-.001 2.481-2.261 4.38-4.702 3.939-15.746-2.848-30.414-9.434-43.089-19.138-12.733-9.772-31.363-4.481-37.04 10.56-1.937 5.098-5.438 8.491-10.56 10.04-3.428.972-6.504 2.664-9.082 4.881-2.597 2.235-6.607.404-6.604-3.022v-19.869c.009-11.063 7.378-20.149 17.158-23.097 1.021-.308 1.858-1.022 2.367-1.959 9.477-17.436 27.766-28.933 48.791-28.925 25.345.011 35.399-.004 40.053.036z" fill="#000000" style="fill: rgb(255, 255, 255);"></path><path d="m409.854 330.777c-9.125 12.429-24.053 19.356-39.212 14.962-1.198-.347-2.19-1.222-2.631-2.389-1.238-3.279-2.749-6.439-4.511-9.446-1.702-2.902.751-6.426 4.081-5.947 12.755 1.835 25.752.613 37.779-3.297 3.666-1.192 6.775 3.01 4.494 6.117z" fill="#000000" style="fill: rgb(255, 255, 255);"></path><path d="m480 370.532v31.95c0 4.418-3.582 8-8 8h-96.287c-2.403 0-4.32-2.112-3.969-4.49.346-2.348.324-1.519.256-39.083-.004-2.313 1.951-4.154 4.257-3.983 22.872 1.692 44.021-12.964 53.389-34.653.838-1.939 2.994-2.935 4.991-2.244 5.948 2.056 18.139 6.242 18.19 6.259 16.261 5.672 27.173 21.022 27.173 38.244z" fill="#000000" style="fill: rgb(255, 255, 255);"></path><path d="m461.974 172.093v18.897c-.002 3.478-4.142 5.297-6.702 2.942-5.127-4.715-12.216-7.117-19.432-6.149-26.211 3.466-52.961-3.164-74.8-19.899-2.228-1.709-4.71-2.992-7.322-3.822-1.649-.524-2.757-2.073-2.755-3.804.032-25.954.2-31.617-.674-37.853-.285-2.031 1.005-3.978 3.002-4.446 8.219-1.927 9.577-1.465 53.189-1.451 30.62.009 55.514 24.965 55.494 55.585z" fill="#000000" style="fill: rgb(255, 255, 255);"></path><path d="m317 179.662v39.4c0 45.898-39.819 82.083-86.17 77.03-39.24-4.28-68.83-37.73-68.83-77.811v-38.62c0-3.58 2.37-6.72 5.82-7.699 12.255-3.465 21.238-12.423 25.59-23.91 1.876-4.996 8.084-6.797 12.34-3.521 29.938 22.913 66.566 31.92 102.2 27.2 4.747-.643 9.05 3.062 9.05 7.931z" fill="#000000" style="fill: rgb(255, 255, 255);"></path></g></svg>