<svg width="181" height="47" viewBox="0 0 181 47" fill="none" xmlns="http://www.w3.org/2000/svg">
<g clip-path="url(#clip0_129_38)">
<path d="M92.2726 32.1644C92.2726 36.1005 92.2726 40.0365 92.2726 43.9707C92.2726 45.3012 92.175 45.4088 90.8529 45.4106C87.1476 45.4164 83.4423 45.451 79.739 45.3799C79.189 45.3703 78.4909 44.9845 78.132 44.5543C76.2346 42.2849 74.4424 39.9309 72.5781 37.6345C69.7015 34.0883 66.7958 30.5669 63.9077 27.0321C63.6854 26.7595 63.5177 26.435 63.27 26.1893C63.036 25.9569 62.7279 25.7976 62.4529 25.6055C62.3437 25.9109 62.1487 26.2142 62.139 26.5234C62.1058 27.5774 62.1448 28.6334 62.1467 29.6895C62.1526 34.5202 62.137 39.353 62.1721 44.1837C62.178 45.0977 61.8659 45.4261 60.9279 45.4203C56.7682 45.3876 52.6086 45.3934 48.4489 45.4203C47.5109 45.4261 47.191 45.0478 47.2047 44.153C47.2613 40.8583 47.2789 37.5635 47.2866 34.2687C47.2866 33.9865 47.1033 33.7023 47.0058 33.4201C46.7737 33.6025 46.4383 33.7369 46.3233 33.9731C44.7515 37.2486 42.2534 39.7446 39.3086 41.7876C32.7737 46.3169 25.5367 47.3115 17.8707 45.499C11.5171 43.9956 6.59105 40.4014 3.15879 34.958C1.1638 31.7977 0.0892683 28.2744 0.0132127 24.5131C-0.0316406 22.2744 0.0112625 20.0568 0.567053 17.843C1.63183 13.6035 3.67558 9.96504 6.85821 6.91604C9.29005 4.58705 12.0749 2.78414 15.2185 1.61485C17.7322 0.683632 20.3474 0.0500227 23.0893 0.00970211C25.993 -0.0344585 28.8812 0.0442626 31.6816 0.841074C36.2001 2.12749 40.1764 4.35664 43.2654 7.90101C44.4141 9.22007 45.2975 10.7618 46.3213 12.1884C46.4715 12.3977 46.7289 12.534 46.9356 12.7049C47.0584 12.4419 47.2886 12.1769 47.2886 11.9138C47.2886 8.71702 47.2476 5.52018 47.234 2.32333C47.2282 0.948596 47.4368 0.823793 48.8311 0.835314C52.5677 0.864114 56.3061 0.871794 60.0426 0.823793C60.9182 0.812273 61.5109 1.08684 62.0434 1.74156C66.4916 7.2002 70.9614 12.6435 75.4174 18.0983C75.7627 18.5207 76.0181 19.0122 76.3692 19.4269C76.5291 19.617 76.8196 19.7015 77.0517 19.834C77.1356 19.6055 77.2876 19.377 77.2896 19.1485C77.3032 17.7085 77.2759 16.2704 77.274 14.8304C77.2701 10.6716 77.2682 6.51091 77.274 2.35214C77.274 0.960116 77.4241 0.827633 78.8517 0.829554C82.8495 0.831474 86.8454 0.829554 90.8431 0.833394C92.0658 0.833394 92.4598 1.2462 92.216 2.42893C91.3209 6.79124 88.267 9.98616 83.4501 10.5737C82.6584 10.6697 82.2878 10.9424 82.2996 11.7661C82.3269 13.7168 82.2859 15.6694 82.2878 17.6202C82.2878 18.5879 82.6077 18.8817 83.5749 18.8759C86.0125 18.8606 88.4483 18.8433 90.886 18.8375C92.0385 18.8337 92.2862 19.0794 92.2862 20.1661C92.2862 24.1656 92.2862 28.165 92.2862 32.1644H92.2726ZM33.9633 23.1787C34.0022 21.3758 33.5829 19.6708 32.7425 18.1002C31.7206 16.1897 30.2424 14.7056 28.1791 13.8415C25.757 12.8259 23.3076 12.7875 20.9071 13.7975C17.7556 15.1203 16.0239 17.6298 15.392 20.8574C14.6276 24.7627 15.5578 28.2533 18.5883 30.9816C21.6013 33.6947 25.406 33.9001 28.4697 32.4082C32.2764 30.5535 33.8443 27.2415 33.9633 23.1806V23.1787Z" fill="white"/>
<path d="M140.79 0.835335C143.162 0.835335 145.533 0.850696 147.906 0.825735C148.632 0.818055 149.123 1.0331 149.47 1.70319C151.124 4.88275 152.813 8.04311 154.488 11.2112C155.056 12.2845 155.605 13.3674 156.195 14.4291C156.323 14.6614 156.633 15.0108 156.779 14.9763C157.031 14.9149 157.29 14.6345 157.424 14.383C159.587 10.3433 161.743 6.29973 163.872 2.24271C164.377 1.28078 164.976 0.798854 166.209 0.821895C170.82 0.908297 175.436 0.837256 180.05 0.846855C180.366 0.846855 180.786 0.956297 180.963 1.17134C181.079 1.30958 180.901 1.76655 180.749 2.02C178.209 6.28822 175.655 10.5488 173.102 14.8093C170.303 19.4808 167.486 24.1425 164.726 28.837C164.422 29.3554 164.338 30.0582 164.334 30.6764C164.303 35.1559 164.319 39.6352 164.322 44.1146C164.322 45.3473 164.13 45.5393 162.844 45.5374C158.749 45.5336 154.656 45.5316 150.56 45.5316C149.39 45.5316 149.209 45.3761 149.207 44.1934C149.201 40.386 149.099 36.5747 149.265 32.7731C149.357 30.638 148.712 28.8793 147.643 27.1033C144.501 21.8885 141.457 16.616 138.354 11.3782C136.574 8.37144 134.743 5.3954 132.966 2.38672C132.742 2.00656 132.712 1.51694 132.593 1.07726C133.018 1.00622 133.446 0.875656 133.871 0.871816C136.178 0.850696 138.485 0.862216 140.792 0.862216C140.792 0.854536 140.792 0.844936 140.792 0.837256L140.79 0.835335Z" fill="white"/>
<path d="M106.899 23.2478C106.899 16.3703 106.899 9.49274 106.899 2.61712C106.899 0.960142 107.075 0.839179 108.736 0.8507C112.732 0.88142 116.728 0.867981 120.723 0.8603C121.841 0.85838 122.024 0.998542 122.024 2.12368C122.028 11.8467 122.028 21.5717 122.02 31.2946C122.02 32.6271 122.152 32.8133 123.495 32.8115C129.633 32.8019 135.775 32.7827 141.913 32.7577C143.068 32.7538 143.349 33.0016 143.351 34.1612C143.356 37.5827 143.336 41.0061 143.369 44.4276C143.376 45.2417 142.999 45.5316 142.265 45.5336C140.869 45.5374 139.47 45.524 138.074 45.524C128.165 45.5278 118.256 45.5316 108.348 45.5374C107.112 45.5374 106.895 45.3339 106.892 44.0686C106.889 37.1277 106.892 30.1868 106.892 23.2459H106.899V23.2478Z" fill="white"/>
</g>
<defs>
<clipPath id="clip0_129_38">
<rect width="181" height="46.3537" fill="white"/>
</clipPath>
</defs>
</svg>
