<svg width="112" height="131" viewBox="0 0 112 131" fill="none" xmlns="http://www.w3.org/2000/svg">
<path d="M2 96.4467L56.6068 128L2 96.4467Z" fill="white"/>
<path d="M56.6068 3L23.8427 43.0486M56.6068 3L90.5842 43.0486M56.6068 3L110 33.3398M56.6068 3L2 33.3398M23.8427 43.0486H90.5842M23.8427 43.0486L56.6068 100.087M23.8427 43.0486L2 96.4467M23.8427 43.0486L2 33.3398M90.5842 43.0486L110 33.3398M90.5842 43.0486L110 96.4467M90.5842 43.0486L56.6068 100.087M110 33.3398V96.4467M2 33.3398V96.4467M56.6068 100.087L110 96.4467M56.6068 100.087L2 96.4467M56.6068 100.087V128M2 96.4467L56.6068 128M110 96.4467L56.6068 128" stroke="white" stroke-width="4"/>
</svg>
