<svg width="181" height="89" viewBox="0 0 181 89" fill="none" xmlns="http://www.w3.org/2000/svg">
<path fill-rule="evenodd" clip-rule="evenodd" d="M173.606 68.9262C178.419 61.6985 180.992 53.2 181 44.5043C181 44.3625 180.999 44.2207 180.998 44.079C180.957 40.228 177.59 37.43 173.732 37.43L162.526 37.4301H144.013C139.667 37.4301 136.143 40.9471 136.143 45.2855V46.0711C136.143 50.4096 139.667 53.9266 144.013 53.9266H161.756C161.066 55.7411 160.175 57.4826 159.093 59.1167C156.228 63.4466 152.153 66.8301 147.381 68.8429C142.608 70.8556 137.35 71.4079 132.267 70.4305C127.183 69.4531 122.5 66.9895 118.805 63.3487L75.0779 13.7814L74.7129 13.4147C70.6666 9.30533 65.8452 6.04747 60.5307 3.83162C55.2162 1.61578 49.5153 0.486437 43.7611 0.509627C35.104 0.517276 26.6433 3.10167 19.4475 7.93639C12.2518 12.7711 6.64382 19.6393 3.33191 27.6735C0.0199907 35.7077 -0.847321 44.5476 0.839514 53.0766C2.52635 61.6057 6.69167 69.4413 12.8094 75.5939C16.871 79.6821 21.6954 82.9256 27.0065 85.1386C32.3177 87.3516 38.0112 88.4907 43.7611 88.4907C49.5111 88.4907 55.2046 87.3516 60.5157 85.1386C61.5584 84.7042 62.5823 84.23 63.5854 83.7175C64.7859 86.5239 67.5759 88.4907 70.8261 88.4907H72.4C76.7462 88.4907 80.2696 84.9737 80.2696 80.6352V65.5307C80.2696 61.3831 77.0393 57.9501 72.8924 57.6906L71.3185 57.5921C68.7254 57.4298 66.3617 58.5368 64.814 60.3628C64.6786 60.4979 64.5471 60.6378 64.42 60.7824L62.157 63.3487C58.4618 66.9895 53.7786 69.4531 48.6948 70.4305C43.611 71.4079 38.3531 70.8556 33.5806 68.8429C28.8081 66.8301 24.7337 63.4466 21.8684 59.1167C19.0031 54.7868 17.4745 49.7035 17.4745 44.5043C17.4745 39.3052 19.0031 34.2218 21.8684 29.892C24.7337 25.5621 28.8081 22.1786 33.5806 20.1658C38.3531 18.1531 43.611 17.6008 48.6948 18.5782C53.7786 19.5556 58.4618 22.0192 62.157 25.6599L105.884 75.2273L106.249 75.5939C112.374 81.7389 120.175 85.9228 128.666 87.6171C137.157 89.3115 145.958 88.4403 153.957 85.1136C161.955 81.787 168.793 76.154 173.606 68.9262Z" fill="white"/>
<path fill-rule="evenodd" clip-rule="evenodd" d="M131.232 18.6806C133.2 18.3004 135.195 18.1498 137.177 18.2249C139.159 18.1498 141.154 18.3004 143.122 18.6806C148.223 19.6656 152.921 22.1485 156.628 25.8178L158.899 28.4043C160.442 30.1683 162.618 31.241 164.946 31.3865C167.274 31.532 169.564 30.7384 171.312 29.1803C173.06 27.6221 174.123 25.4271 174.267 23.078C174.411 20.7289 173.625 18.4183 172.08 16.6543L169.591 13.8461L169.225 13.4766C163.079 7.28344 155.253 3.06676 146.735 1.35915C143.573 0.725305 140.368 0.447695 137.177 0.520661C133.987 0.447695 130.782 0.725305 127.62 1.35915C119.101 3.06676 111.275 7.28344 105.13 13.4766L104.763 13.8461L102.274 16.6543C100.73 18.4183 99.9432 20.7289 100.087 23.078C100.232 25.4271 101.295 27.6221 103.043 29.1803C104.79 30.7384 107.08 31.532 109.409 31.3865C111.736 31.241 113.912 30.1683 115.456 28.4043L117.726 25.8178C121.433 22.1485 126.132 19.6656 131.232 18.6806Z" fill="white"/>
</svg>
