<svg width="145" height="126" viewBox="0 0 145 126" fill="none" xmlns="http://www.w3.org/2000/svg">
<path d="M59.0107 0C60.2751 0 61.3 1.02495 61.3 2.2893V2.2893C61.3 3.35052 60.5707 4.27262 59.538 4.51705L44.4 8.1V8.1C43.1298 8.37614 42.3239 9.62974 42.6 10.9V10.9L49.7549 41.3299C50.3872 44.0191 48.7188 46.7115 46.0292 47.3422L13.8 54.9V54.9C12.5453 55.1728 11.7759 56.4576 12.1 57.7V57.7L21.4 97.6L21.4305 97.717C21.7479 98.9337 22.9739 99.6787 24.2 99.4V99.4L55.1585 92.1402C58.2961 91.4044 61.3 93.7854 61.3 97.0081V119.9C61.3 122.661 59.0614 124.9 56.3 124.9H4.99999C2.23857 124.9 0 122.661 0 119.9V5C0 2.23858 2.23858 0 5 0H59.0107Z" fill="white"/>
<path d="M81.9252 1.64562C84.6163 1.01319 87.3099 2.68445 87.9382 5.37646L94.4627 33.3278C95.0907 36.0181 97.7815 37.6893 100.471 37.0596L130.027 30.1408C132.717 29.5109 135.409 31.183 136.036 33.8742L143.066 64.0352C143.692 66.7227 142.023 69.4096 139.336 70.0386L109.768 76.9604C107.079 77.5898 105.41 80.2795 106.039 82.9682L112.559 110.825C113.189 113.516 111.516 116.208 108.823 116.834L76.8633 124.269C74.1763 124.894 71.4908 123.224 70.8621 120.538L64.3394 92.6687C63.7101 89.9798 61.0202 88.3103 58.3313 88.9397L28.773 95.8592C26.0825 96.4891 23.3912 94.817 22.7639 92.1258L15.7339 61.9648C15.1075 59.2773 16.7768 56.5904 19.4637 55.9614L49.0318 49.0396C51.7205 48.4102 53.3899 45.7205 52.7606 43.0318L46.2384 15.164C45.6095 12.4769 47.2765 9.7885 49.9629 9.15716L81.9252 1.64562Z" fill="white"/>
</svg>
