<svg width="114" height="127" viewBox="0 0 114 127" fill="none" xmlns="http://www.w3.org/2000/svg">
<path fill-rule="evenodd" clip-rule="evenodd" d="M34.9697 63.4866L0.289416 3.4103C0.110923 3.10114 0.0170401 2.75041 0.0172208 2.39343C0.0174014 2.03644 0.111639 1.68581 0.290445 1.37683C0.469251 1.06786 0.726311 0.811447 1.03574 0.633426C1.34517 0.455405 1.69604 0.362057 2.05302 0.362783H111.947C112.305 0.359032 112.657 0.449813 112.968 0.625945C113.28 0.802077 113.539 1.05731 113.72 1.36585C113.901 1.67438 113.998 2.02526 114 2.38302C114.002 2.74077 113.909 3.09271 113.732 3.40324L79.0352 63.5068L113.71 123.562V123.59C113.888 123.899 113.982 124.25 113.982 124.607C113.982 124.964 113.888 125.314 113.709 125.623C113.53 125.932 113.273 126.189 112.964 126.367C112.654 126.545 112.303 126.638 111.946 126.637H2.05246C1.6913 126.641 1.33568 126.548 1.02223 126.369C0.708784 126.189 0.448843 125.93 0.269182 125.616C0.0895209 125.303 -0.00336444 124.947 9.31192e-05 124.586C0.00355068 124.225 0.103226 123.871 0.288853 123.562L34.9697 63.4866ZM40.7798 53.4222L51.1866 35.3953C51.7745 34.3756 52.6206 33.5287 53.6398 32.9399C54.659 32.3511 55.8153 32.041 56.9924 32.041C58.1694 32.041 59.3257 32.3511 60.3449 32.9399C61.3641 33.5287 62.2102 34.3756 62.7982 35.3953L35.2859 83.0409L15.9567 116.549H54.6432C73.9301 116.549 85.9861 95.6683 76.3427 78.9634L73.2286 73.5653L62.827 91.5836C62.2376 92.6015 61.3909 93.4466 60.3719 94.0341C59.3529 94.6216 58.1974 94.9308 57.0212 94.9308C55.8449 94.9308 54.6894 94.6216 53.6704 94.0341C52.6514 93.4466 51.8047 92.6015 51.2154 91.5836L78.7276 43.931L98.0709 10.4224H15.9573L40.7798 53.4222Z" fill="white"/>
</svg>
